M48
; DRILL file {KiCad (5.1.4)-1} date 2021/08/08 15:03:36
; FORMAT={-:-/ absolute / inch / decimal}
; #@! TF.CreationDate,2021-08-08T15:03:36+09:00
; #@! TF.GenerationSoftware,Kicad,Pcbnew,(5.1.4)-1
; #@! TF.FileFunction,Plated,1,2,PTH
FMAT,2
INCH
T1C0.0157
T2C0.0315
T3C0.0354
T4C0.0394
T5C0.0402
T6C0.0472
%
G90
G05
T1
X4.3504Y-2.7165
X4.4882Y-3.0906
X4.9803Y-3.1299
X5.7677Y-3.3071
T2
X6.4898Y-4.0787
X6.8898Y-4.0787
X5.3248Y-2.7657
X5.4232Y-2.7657
X5.3051Y-4.9803
X5.7051Y-4.9803
X4.4587Y-4.3701
X4.8587Y-4.3701
X6.4898Y-4.3228
X6.8898Y-4.3228
X6.0394Y-3.2185
X6.0394Y-3.3169
X5.9307Y-4.3228
X6.3307Y-4.3228
X5.9307Y-4.0787
X6.3307Y-4.0787
X4.1535Y-2.5197
X4.1535Y-2.6181
X6.0394Y-2.7854
X6.0394Y-2.8839
X4.0256Y-2.8843
X4.0256Y-3.4843
X4.1256Y-2.8843
X4.1256Y-3.4843
X4.2256Y-2.8843
X4.2256Y-3.4843
X4.3256Y-2.8843
X4.3256Y-3.4843
X4.4256Y-2.8843
X4.4256Y-3.4843
X4.5256Y-2.8843
X4.5256Y-3.4843
X4.6256Y-2.8843
X4.6256Y-3.4843
X4.7256Y-2.8843
X4.7256Y-3.4843
X4.8256Y-2.8843
X4.8256Y-3.4843
X4.9256Y-2.8843
X4.9256Y-3.4843
X5.0256Y-2.8843
X5.0256Y-3.4843
X5.1256Y-2.8843
X5.1256Y-3.4843
X5.2256Y-2.8843
X5.2256Y-3.4843
X5.3256Y-2.8843
X5.3256Y-3.4843
X5.4256Y-2.8843
X5.4256Y-3.4843
X5.5256Y-2.8843
X5.5256Y-3.4843
X5.6256Y-2.8843
X5.6256Y-3.4843
X5.7256Y-2.8843
X5.7256Y-3.4843
X5.8256Y-2.8843
X5.8256Y-3.4843
X5.9256Y-2.8843
X5.9256Y-3.4843
X6.1575Y-3.2335
X6.1575Y-3.5335
X6.2575Y-3.2335
X6.2575Y-3.5335
X6.3575Y-3.2335
X6.3575Y-3.5335
X6.4575Y-3.2335
X6.4575Y-3.5335
X6.5575Y-3.2335
X6.5575Y-3.5335
X6.6575Y-3.2335
X6.6575Y-3.5335
X6.7575Y-3.2335
X6.7575Y-3.5335
X4.7638Y-4.2421
X4.8622Y-4.2421
X6.1575Y-2.8024
X6.1575Y-3.1024
X6.2575Y-2.8024
X6.2575Y-3.1024
X6.3575Y-2.8024
X6.3575Y-3.1024
X6.4575Y-2.8024
X6.4575Y-3.1024
X6.5575Y-2.8024
X6.5575Y-3.1024
X6.6575Y-2.8024
X6.6575Y-3.1024
X6.7575Y-2.8024
X6.7575Y-3.1024
X6.8575Y-2.8024
X6.8575Y-3.1024
X4.4587Y-4.626
X4.8587Y-4.626
X4.4587Y-4.2421
X4.5571Y-4.2421
X5.3051Y-4.8524
X5.7051Y-4.8524
X4.4587Y-4.498
X4.8587Y-4.498
T3
X6.1811Y-4.9114
X6.2811Y-4.9114
X6.3811Y-4.9114
X5.8366Y-4.9114
X5.9366Y-4.9114
X6.0366Y-4.9114
T4
X7.1752Y-3.0709
X7.1752Y-3.1709
X7.1752Y-3.2709
X7.1752Y-3.3709
X7.1752Y-3.4709
X7.1752Y-3.5709
X6.9134Y-3.3236
X6.9134Y-3.4236
X6.9134Y-3.5236
X4.7047Y-2.5181
X4.7047Y-2.6181
X4.8047Y-2.5181
X4.8047Y-2.6181
X4.9047Y-2.5181
X4.9047Y-2.6181
X5.0047Y-2.5181
X5.0047Y-2.6181
X5.1047Y-2.5181
X5.1047Y-2.6181
X5.2047Y-2.5181
X5.2047Y-2.6181
X5.3047Y-2.5181
X5.3047Y-2.6181
X5.4047Y-2.5181
X5.4047Y-2.6181
X5.5047Y-2.5181
X5.5047Y-2.6181
X5.6047Y-2.5181
X5.6047Y-2.6181
X5.7047Y-2.5181
X5.7047Y-2.6181
X5.8047Y-2.5181
X5.8047Y-2.6181
X5.9047Y-2.5181
X5.9047Y-2.6181
X6.0047Y-2.5181
X6.0047Y-2.6181
X6.1047Y-2.5181
X6.1047Y-2.6181
X6.2047Y-2.5181
X6.2047Y-2.6181
X6.3047Y-2.5181
X6.3047Y-2.6181
X6.4047Y-2.5181
X6.4047Y-2.6181
X6.5047Y-2.5181
X6.5047Y-2.6181
X6.6047Y-2.5181
X6.6047Y-2.6181
X7.0709Y-2.5512
X7.0709Y-2.6512
X7.0709Y-2.7512
X7.0709Y-2.8512
X7.1709Y-2.5512
X7.1709Y-2.6512
X7.1709Y-2.7512
X7.1709Y-2.8512
X7.3307Y-2.5512
X7.3307Y-2.6512
X7.3307Y-2.7512
X7.3307Y-2.8512
X7.4307Y-2.5512
X7.4307Y-2.6512
X7.4307Y-2.7512
X7.4307Y-2.8512
X3.7287Y-2.7465
X3.7287Y-2.8465
X3.7287Y-2.9465
X3.7287Y-3.0465
X3.7287Y-3.1465
X3.7287Y-3.2465
X3.7287Y-3.3465
X3.8287Y-2.7465
X3.8287Y-2.8465
X3.8287Y-2.9465
X3.8287Y-3.0465
X3.8287Y-3.1465
X3.8287Y-3.2465
X3.8287Y-3.3465
X6.6406Y-4.8917
X6.7406Y-4.8917
X6.8406Y-4.8917
T5
X5.5461Y-3.8528
X5.5461Y-4.5528
X5.5551Y-4.1028
X5.5551Y-4.2028
X5.5551Y-4.3028
X5.6461Y-3.8528
X5.6461Y-4.5528
X5.7461Y-3.8528
X5.7461Y-4.5528
X5.8461Y-3.8528
X5.8461Y-4.5528
X5.9461Y-3.8528
X5.9461Y-4.5528
X6.0461Y-3.8528
X6.0461Y-4.5528
X6.1461Y-3.8528
X6.1461Y-4.5528
X6.2461Y-3.8528
X6.2461Y-4.5528
X6.3461Y-3.8528
X6.3461Y-4.5528
X6.4461Y-3.8528
X6.4461Y-4.5528
X6.5461Y-3.8528
X6.5461Y-4.5528
X6.6461Y-3.8528
X6.6461Y-4.5528
X6.7461Y-3.8528
X6.7461Y-4.5528
X6.8461Y-3.8528
X6.8461Y-4.5528
X6.9461Y-3.8528
X6.9461Y-4.5528
X7.0461Y-3.8528
X7.0461Y-4.5528
X7.1461Y-3.8528
X7.1461Y-4.5528
X7.2461Y-3.8528
X7.2461Y-4.5528
X7.3461Y-3.8528
X7.3461Y-4.5528
X7.4461Y-3.8528
X7.4461Y-4.5528
T6
G00X3.8465Y-4.4646
M15
G01X3.8465Y-4.4331
M16
G05
G00X3.9685Y-4.626
M15
G01X4.0Y-4.626
M16
G05
G00X4.0984Y-4.3346
M15
G01X4.1299Y-4.3346
M16
G05
G00X4.1654Y-4.2362
M15
G01X4.1969Y-4.2362
M16
G05
G00X4.2913Y-4.6339
M15
G01X4.2913Y-4.6024
M16
G05
T0
M30
