G04 #@! TF.GenerationSoftware,KiCad,Pcbnew,(6.0.0-0)*
G04 #@! TF.CreationDate,2022-01-10T15:54:51+09:00*
G04 #@! TF.ProjectId,KZ80-USBKBD,4b5a3830-2d55-4534-924b-42442e6b6963,rev?*
G04 #@! TF.SameCoordinates,Original*
G04 #@! TF.FileFunction,Legend,Top*
G04 #@! TF.FilePolarity,Positive*
%FSLAX46Y46*%
G04 Gerber Fmt 4.6, Leading zero omitted, Abs format (unit mm)*
G04 Created by KiCad (PCBNEW (6.0.0-0)) date 2022-01-10 15:54:51*
%MOMM*%
%LPD*%
G01*
G04 APERTURE LIST*
%ADD10C,0.120000*%
%ADD11C,0.200000*%
%ADD12C,0.150000*%
%ADD13C,0.254000*%
%ADD14O,2.000000X3.000000*%
%ADD15O,3.000000X2.000000*%
%ADD16C,1.702000*%
%ADD17C,1.902000*%
%ADD18O,1.802000X1.802000*%
%ADD19O,2.102000X3.102000*%
%ADD20O,3.102000X2.102000*%
%ADD21C,3.302000*%
%ADD22O,1.702000X1.702000*%
%ADD23O,1.602000X1.602000*%
%ADD24O,1.902000X1.902000*%
G04 APERTURE END LIST*
D10*
X154852000Y-72968000D02*
X155052000Y-72968000D01*
X154852000Y-80968000D02*
X165252000Y-80968000D01*
X163588000Y-85490000D02*
X163588000Y-83890000D01*
X173788000Y-88690000D02*
X173788000Y-85490000D01*
X165252000Y-72968000D02*
X165252000Y-80968000D01*
X155052000Y-72968000D02*
X175452000Y-72968000D01*
X165252000Y-80968000D02*
X175452000Y-80968000D01*
X175452000Y-77768000D02*
X154852000Y-77768000D01*
X173788000Y-83890000D02*
X173788000Y-85490000D01*
X154852000Y-74368000D02*
X154852000Y-72968000D01*
X173788000Y-85490000D02*
X163588000Y-85490000D01*
X154852000Y-79368000D02*
X175452000Y-79368000D01*
X154852000Y-74368000D02*
X154852000Y-80968000D01*
X154852000Y-76168000D02*
X175452000Y-76168000D01*
X173788000Y-87090000D02*
X163588000Y-87090000D01*
X163588000Y-85490000D02*
X163588000Y-88690000D01*
X163588000Y-83890000D02*
X173788000Y-83890000D01*
X175452000Y-72968000D02*
X175452000Y-74368000D01*
X175452000Y-74368000D02*
X154852000Y-74368000D01*
X163588000Y-88690000D02*
X173788000Y-88690000D01*
X175452000Y-74368000D02*
X175452000Y-80968000D01*
D11*
X176883000Y-67198857D02*
X177625857Y-67198857D01*
X177225857Y-67656000D01*
X177397285Y-67656000D01*
X177511571Y-67713142D01*
X177568714Y-67770285D01*
X177625857Y-67884571D01*
X177625857Y-68170285D01*
X177568714Y-68284571D01*
X177511571Y-68341714D01*
X177397285Y-68398857D01*
X177054428Y-68398857D01*
X176940142Y-68341714D01*
X176883000Y-68284571D01*
X177629714Y-69554857D02*
X177058285Y-69554857D01*
X177001142Y-70126285D01*
X177058285Y-70069142D01*
X177172571Y-70012000D01*
X177458285Y-70012000D01*
X177572571Y-70069142D01*
X177629714Y-70126285D01*
X177686857Y-70240571D01*
X177686857Y-70526285D01*
X177629714Y-70640571D01*
X177572571Y-70697714D01*
X177458285Y-70754857D01*
X177172571Y-70754857D01*
X177058285Y-70697714D01*
X177001142Y-70640571D01*
X176944000Y-71954857D02*
X177744000Y-71954857D01*
X177229714Y-73154857D01*
D12*
X178852190Y-90606380D02*
X178947428Y-90606380D01*
X179042666Y-90654000D01*
X179090285Y-90701619D01*
X179137904Y-90796857D01*
X179185523Y-90987333D01*
X179185523Y-91225428D01*
X179137904Y-91415904D01*
X179090285Y-91511142D01*
X179042666Y-91558761D01*
X178947428Y-91606380D01*
X178852190Y-91606380D01*
X178756952Y-91558761D01*
X178709333Y-91511142D01*
X178661714Y-91415904D01*
X178614095Y-91225428D01*
X178614095Y-90987333D01*
X178661714Y-90796857D01*
X178709333Y-90701619D01*
X178756952Y-90654000D01*
X178852190Y-90606380D01*
X179804571Y-90606380D02*
X179899809Y-90606380D01*
X179995047Y-90654000D01*
X180042666Y-90701619D01*
X180090285Y-90796857D01*
X180137904Y-90987333D01*
X180137904Y-91225428D01*
X180090285Y-91415904D01*
X180042666Y-91511142D01*
X179995047Y-91558761D01*
X179899809Y-91606380D01*
X179804571Y-91606380D01*
X179709333Y-91558761D01*
X179661714Y-91511142D01*
X179614095Y-91415904D01*
X179566476Y-91225428D01*
X179566476Y-90987333D01*
X179614095Y-90796857D01*
X179661714Y-90701619D01*
X179709333Y-90654000D01*
X179804571Y-90606380D01*
D11*
X137291428Y-75027428D02*
X137291428Y-76027428D01*
X135791428Y-75384571D01*
X136791428Y-77241714D02*
X135791428Y-77241714D01*
X137362857Y-76884571D02*
X136291428Y-76527428D01*
X136291428Y-77456000D01*
X135791428Y-78027428D02*
X137291428Y-78027428D01*
X136577142Y-78027428D02*
X136577142Y-78884571D01*
X135791428Y-78884571D02*
X137291428Y-78884571D01*
X135934285Y-80456000D02*
X135862857Y-80384571D01*
X135791428Y-80170285D01*
X135791428Y-80027428D01*
X135862857Y-79813142D01*
X136005714Y-79670285D01*
X136148571Y-79598857D01*
X136434285Y-79527428D01*
X136648571Y-79527428D01*
X136934285Y-79598857D01*
X137077142Y-79670285D01*
X137220000Y-79813142D01*
X137291428Y-80027428D01*
X137291428Y-80170285D01*
X137220000Y-80384571D01*
X137148571Y-80456000D01*
X137291428Y-81384571D02*
X137291428Y-81527428D01*
X137220000Y-81670285D01*
X137148571Y-81741714D01*
X137005714Y-81813142D01*
X136720000Y-81884571D01*
X136362857Y-81884571D01*
X136077142Y-81813142D01*
X135934285Y-81741714D01*
X135862857Y-81670285D01*
X135791428Y-81527428D01*
X135791428Y-81384571D01*
X135862857Y-81241714D01*
X135934285Y-81170285D01*
X136077142Y-81098857D01*
X136362857Y-81027428D01*
X136720000Y-81027428D01*
X137005714Y-81098857D01*
X137148571Y-81170285D01*
X137220000Y-81241714D01*
X137291428Y-81384571D01*
X137291428Y-82813142D02*
X137291428Y-82956000D01*
X137220000Y-83098857D01*
X137148571Y-83170285D01*
X137005714Y-83241714D01*
X136720000Y-83313142D01*
X136362857Y-83313142D01*
X136077142Y-83241714D01*
X135934285Y-83170285D01*
X135862857Y-83098857D01*
X135791428Y-82956000D01*
X135791428Y-82813142D01*
X135862857Y-82670285D01*
X135934285Y-82598857D01*
X136077142Y-82527428D01*
X136362857Y-82456000D01*
X136720000Y-82456000D01*
X137005714Y-82527428D01*
X137148571Y-82598857D01*
X137220000Y-82670285D01*
X137291428Y-82813142D01*
X148821428Y-75107142D02*
X148821428Y-76107142D01*
X147321428Y-75464285D01*
X148321428Y-77321428D02*
X147321428Y-77321428D01*
X148892857Y-76964285D02*
X147821428Y-76607142D01*
X147821428Y-77535714D01*
X147321428Y-78107142D02*
X148821428Y-78107142D01*
X148107142Y-78107142D02*
X148107142Y-78964285D01*
X147321428Y-78964285D02*
X148821428Y-78964285D01*
X147464285Y-80535714D02*
X147392857Y-80464285D01*
X147321428Y-80250000D01*
X147321428Y-80107142D01*
X147392857Y-79892857D01*
X147535714Y-79750000D01*
X147678571Y-79678571D01*
X147964285Y-79607142D01*
X148178571Y-79607142D01*
X148464285Y-79678571D01*
X148607142Y-79750000D01*
X148750000Y-79892857D01*
X148821428Y-80107142D01*
X148821428Y-80250000D01*
X148750000Y-80464285D01*
X148678571Y-80535714D01*
X147321428Y-81964285D02*
X147321428Y-81107142D01*
X147321428Y-81535714D02*
X148821428Y-81535714D01*
X148607142Y-81392857D01*
X148464285Y-81250000D01*
X148392857Y-81107142D01*
X148821428Y-82464285D02*
X148821428Y-83392857D01*
X148250000Y-82892857D01*
X148250000Y-83107142D01*
X148178571Y-83250000D01*
X148107142Y-83321428D01*
X147964285Y-83392857D01*
X147607142Y-83392857D01*
X147464285Y-83321428D01*
X147392857Y-83250000D01*
X147321428Y-83107142D01*
X147321428Y-82678571D01*
X147392857Y-82535714D01*
X147464285Y-82464285D01*
X147321428Y-84107142D02*
X147321428Y-84392857D01*
X147392857Y-84535714D01*
X147464285Y-84607142D01*
X147678571Y-84750000D01*
X147964285Y-84821428D01*
X148535714Y-84821428D01*
X148678571Y-84750000D01*
X148750000Y-84678571D01*
X148821428Y-84535714D01*
X148821428Y-84250000D01*
X148750000Y-84107142D01*
X148678571Y-84035714D01*
X148535714Y-83964285D01*
X148178571Y-83964285D01*
X148035714Y-84035714D01*
X147964285Y-84107142D01*
X147892857Y-84250000D01*
X147892857Y-84535714D01*
X147964285Y-84678571D01*
X148035714Y-84750000D01*
X148178571Y-84821428D01*
X120880571Y-89285714D02*
X120952000Y-89142857D01*
X121023428Y-89071428D01*
X121166285Y-89000000D01*
X121237714Y-89000000D01*
X121380571Y-89071428D01*
X121452000Y-89142857D01*
X121523428Y-89285714D01*
X121523428Y-89571428D01*
X121452000Y-89714285D01*
X121380571Y-89785714D01*
X121237714Y-89857142D01*
X121166285Y-89857142D01*
X121023428Y-89785714D01*
X120952000Y-89714285D01*
X120880571Y-89571428D01*
X120880571Y-89285714D01*
X120809142Y-89142857D01*
X120737714Y-89071428D01*
X120594857Y-89000000D01*
X120309142Y-89000000D01*
X120166285Y-89071428D01*
X120094857Y-89142857D01*
X120023428Y-89285714D01*
X120023428Y-89571428D01*
X120094857Y-89714285D01*
X120166285Y-89785714D01*
X120309142Y-89857142D01*
X120594857Y-89857142D01*
X120737714Y-89785714D01*
X120809142Y-89714285D01*
X120880571Y-89571428D01*
X121380571Y-90428571D02*
X121452000Y-90500000D01*
X121523428Y-90642857D01*
X121523428Y-91000000D01*
X121452000Y-91142857D01*
X121380571Y-91214285D01*
X121237714Y-91285714D01*
X121094857Y-91285714D01*
X120880571Y-91214285D01*
X120023428Y-90357142D01*
X120023428Y-91285714D01*
X121523428Y-92642857D02*
X121523428Y-91928571D01*
X120809142Y-91857142D01*
X120880571Y-91928571D01*
X120952000Y-92071428D01*
X120952000Y-92428571D01*
X120880571Y-92571428D01*
X120809142Y-92642857D01*
X120666285Y-92714285D01*
X120309142Y-92714285D01*
X120166285Y-92642857D01*
X120094857Y-92571428D01*
X120023428Y-92428571D01*
X120023428Y-92071428D01*
X120094857Y-91928571D01*
X120166285Y-91857142D01*
X121523428Y-94071428D02*
X121523428Y-93357142D01*
X120809142Y-93285714D01*
X120880571Y-93357142D01*
X120952000Y-93500000D01*
X120952000Y-93857142D01*
X120880571Y-94000000D01*
X120809142Y-94071428D01*
X120666285Y-94142857D01*
X120309142Y-94142857D01*
X120166285Y-94071428D01*
X120094857Y-94000000D01*
X120023428Y-93857142D01*
X120023428Y-93500000D01*
X120094857Y-93357142D01*
X120166285Y-93285714D01*
X119452000Y-96357142D02*
X119523428Y-96285714D01*
X119737714Y-96142857D01*
X119880571Y-96071428D01*
X120094857Y-96000000D01*
X120452000Y-95928571D01*
X120737714Y-95928571D01*
X121094857Y-96000000D01*
X121309142Y-96071428D01*
X121452000Y-96142857D01*
X121666285Y-96285714D01*
X121737714Y-96357142D01*
X120023428Y-96928571D02*
X121523428Y-96928571D01*
X121523428Y-97500000D01*
X121452000Y-97642857D01*
X121380571Y-97714285D01*
X121237714Y-97785714D01*
X121023428Y-97785714D01*
X120880571Y-97714285D01*
X120809142Y-97642857D01*
X120737714Y-97500000D01*
X120737714Y-96928571D01*
X120023428Y-98428571D02*
X121523428Y-98428571D01*
X121523428Y-99000000D01*
X121452000Y-99142857D01*
X121380571Y-99214285D01*
X121237714Y-99285714D01*
X121023428Y-99285714D01*
X120880571Y-99214285D01*
X120809142Y-99142857D01*
X120737714Y-99000000D01*
X120737714Y-98428571D01*
X120023428Y-99928571D02*
X121523428Y-99928571D01*
X119452000Y-100500000D02*
X119523428Y-100571428D01*
X119737714Y-100714285D01*
X119880571Y-100785714D01*
X120094857Y-100857142D01*
X120452000Y-100928571D01*
X120737714Y-100928571D01*
X121094857Y-100857142D01*
X121309142Y-100785714D01*
X121452000Y-100714285D01*
X121666285Y-100571428D01*
X121737714Y-100500000D01*
D12*
X147857142Y-128452380D02*
X147857142Y-127452380D01*
X148428571Y-128452380D02*
X148000000Y-127880952D01*
X148428571Y-127452380D02*
X147857142Y-128023809D01*
X148809523Y-128166666D02*
X149285714Y-128166666D01*
X148714285Y-128452380D02*
X149047619Y-127452380D01*
X149380952Y-128452380D01*
X149714285Y-128452380D02*
X149714285Y-127452380D01*
X150285714Y-128452380D01*
X150285714Y-127452380D01*
X150714285Y-128166666D02*
X151190476Y-128166666D01*
X150619047Y-128452380D02*
X150952380Y-127452380D01*
X151285714Y-128452380D01*
X157580190Y-72258380D02*
X157580190Y-71258380D01*
X158770666Y-71210761D02*
X157913523Y-72496476D01*
X159294476Y-71258380D02*
X159484952Y-71258380D01*
X159580190Y-71306000D01*
X159675428Y-71401238D01*
X159723047Y-71591714D01*
X159723047Y-71925047D01*
X159675428Y-72115523D01*
X159580190Y-72210761D01*
X159484952Y-72258380D01*
X159294476Y-72258380D01*
X159199238Y-72210761D01*
X159104000Y-72115523D01*
X159056380Y-71925047D01*
X159056380Y-71591714D01*
X159104000Y-71401238D01*
X159199238Y-71306000D01*
X159294476Y-71258380D01*
X161199238Y-71258380D02*
X161199238Y-71972666D01*
X161151619Y-72115523D01*
X161056380Y-72210761D01*
X160913523Y-72258380D01*
X160818285Y-72258380D01*
X162104000Y-71591714D02*
X162104000Y-72258380D01*
X161675428Y-71591714D02*
X161675428Y-72115523D01*
X161723047Y-72210761D01*
X161818285Y-72258380D01*
X161961142Y-72258380D01*
X162056380Y-72210761D01*
X162104000Y-72163142D01*
X162580190Y-72258380D02*
X162580190Y-71591714D01*
X162580190Y-71686952D02*
X162627809Y-71639333D01*
X162723047Y-71591714D01*
X162865904Y-71591714D01*
X162961142Y-71639333D01*
X163008761Y-71734571D01*
X163008761Y-72258380D01*
X163008761Y-71734571D02*
X163056380Y-71639333D01*
X163151619Y-71591714D01*
X163294476Y-71591714D01*
X163389714Y-71639333D01*
X163437333Y-71734571D01*
X163437333Y-72258380D01*
X163913523Y-71591714D02*
X163913523Y-72591714D01*
X163913523Y-71639333D02*
X164008761Y-71591714D01*
X164199238Y-71591714D01*
X164294476Y-71639333D01*
X164342095Y-71686952D01*
X164389714Y-71782190D01*
X164389714Y-72067904D01*
X164342095Y-72163142D01*
X164294476Y-72210761D01*
X164199238Y-72258380D01*
X164008761Y-72258380D01*
X163913523Y-72210761D01*
X165199238Y-72210761D02*
X165104000Y-72258380D01*
X164913523Y-72258380D01*
X164818285Y-72210761D01*
X164770666Y-72115523D01*
X164770666Y-71734571D01*
X164818285Y-71639333D01*
X164913523Y-71591714D01*
X165104000Y-71591714D01*
X165199238Y-71639333D01*
X165246857Y-71734571D01*
X165246857Y-71829809D01*
X164770666Y-71925047D01*
X165675428Y-72258380D02*
X165675428Y-71591714D01*
X165675428Y-71782190D02*
X165723047Y-71686952D01*
X165770666Y-71639333D01*
X165865904Y-71591714D01*
X165961142Y-71591714D01*
X167008761Y-72210761D02*
X167151619Y-72258380D01*
X167389714Y-72258380D01*
X167484952Y-72210761D01*
X167532571Y-72163142D01*
X167580190Y-72067904D01*
X167580190Y-71972666D01*
X167532571Y-71877428D01*
X167484952Y-71829809D01*
X167389714Y-71782190D01*
X167199238Y-71734571D01*
X167104000Y-71686952D01*
X167056380Y-71639333D01*
X167008761Y-71544095D01*
X167008761Y-71448857D01*
X167056380Y-71353619D01*
X167104000Y-71306000D01*
X167199238Y-71258380D01*
X167437333Y-71258380D01*
X167580190Y-71306000D01*
X168389714Y-72210761D02*
X168294476Y-72258380D01*
X168104000Y-72258380D01*
X168008761Y-72210761D01*
X167961142Y-72115523D01*
X167961142Y-71734571D01*
X168008761Y-71639333D01*
X168104000Y-71591714D01*
X168294476Y-71591714D01*
X168389714Y-71639333D01*
X168437333Y-71734571D01*
X168437333Y-71829809D01*
X167961142Y-71925047D01*
X168723047Y-71591714D02*
X169103999Y-71591714D01*
X168865904Y-71258380D02*
X168865904Y-72115523D01*
X168913523Y-72210761D01*
X169008761Y-72258380D01*
X169103999Y-72258380D01*
X169294476Y-71591714D02*
X169675428Y-71591714D01*
X169437333Y-71258380D02*
X169437333Y-72115523D01*
X169484952Y-72210761D01*
X169580190Y-72258380D01*
X169675428Y-72258380D01*
X170008761Y-72258380D02*
X170008761Y-71591714D01*
X170008761Y-71258380D02*
X169961142Y-71306000D01*
X170008761Y-71353619D01*
X170056380Y-71306000D01*
X170008761Y-71258380D01*
X170008761Y-71353619D01*
X170484952Y-71591714D02*
X170484952Y-72258380D01*
X170484952Y-71686952D02*
X170532571Y-71639333D01*
X170627809Y-71591714D01*
X170770666Y-71591714D01*
X170865904Y-71639333D01*
X170913523Y-71734571D01*
X170913523Y-72258380D01*
X171818285Y-71591714D02*
X171818285Y-72401238D01*
X171770666Y-72496476D01*
X171723047Y-72544095D01*
X171627809Y-72591714D01*
X171484952Y-72591714D01*
X171389714Y-72544095D01*
X171818285Y-72210761D02*
X171723047Y-72258380D01*
X171532571Y-72258380D01*
X171437333Y-72210761D01*
X171389714Y-72163142D01*
X171342095Y-72067904D01*
X171342095Y-71782190D01*
X171389714Y-71686952D01*
X171437333Y-71639333D01*
X171532571Y-71591714D01*
X171723047Y-71591714D01*
X171818285Y-71639333D01*
X172246857Y-72210761D02*
X172342095Y-72258380D01*
X172532571Y-72258380D01*
X172627809Y-72210761D01*
X172675428Y-72115523D01*
X172675428Y-72067904D01*
X172627809Y-71972666D01*
X172532571Y-71925047D01*
X172389714Y-71925047D01*
X172294476Y-71877428D01*
X172246857Y-71782190D01*
X172246857Y-71734571D01*
X172294476Y-71639333D01*
X172389714Y-71591714D01*
X172532571Y-71591714D01*
X172627809Y-71639333D01*
D11*
X104128571Y-125415071D02*
X103771428Y-125415071D01*
X103771428Y-123272214D01*
X104128571Y-123272214D01*
X104699999Y-124915071D02*
X104699999Y-123415071D01*
X105557142Y-124915071D02*
X104914285Y-124057928D01*
X105557142Y-123415071D02*
X104699999Y-124272214D01*
X106057142Y-123415071D02*
X107057142Y-123415071D01*
X106057142Y-124915071D01*
X107057142Y-124915071D01*
X107842857Y-124057928D02*
X107699999Y-123986500D01*
X107628571Y-123915071D01*
X107557142Y-123772214D01*
X107557142Y-123700785D01*
X107628571Y-123557928D01*
X107699999Y-123486500D01*
X107842857Y-123415071D01*
X108128571Y-123415071D01*
X108271428Y-123486500D01*
X108342857Y-123557928D01*
X108414285Y-123700785D01*
X108414285Y-123772214D01*
X108342857Y-123915071D01*
X108271428Y-123986500D01*
X108128571Y-124057928D01*
X107842857Y-124057928D01*
X107699999Y-124129357D01*
X107628571Y-124200785D01*
X107557142Y-124343642D01*
X107557142Y-124629357D01*
X107628571Y-124772214D01*
X107699999Y-124843642D01*
X107842857Y-124915071D01*
X108128571Y-124915071D01*
X108271428Y-124843642D01*
X108342857Y-124772214D01*
X108414285Y-124629357D01*
X108414285Y-124343642D01*
X108342857Y-124200785D01*
X108271428Y-124129357D01*
X108128571Y-124057928D01*
X109342857Y-123415071D02*
X109485714Y-123415071D01*
X109628571Y-123486500D01*
X109699999Y-123557928D01*
X109771428Y-123700785D01*
X109842857Y-123986500D01*
X109842857Y-124343642D01*
X109771428Y-124629357D01*
X109699999Y-124772214D01*
X109628571Y-124843642D01*
X109485714Y-124915071D01*
X109342857Y-124915071D01*
X109199999Y-124843642D01*
X109128571Y-124772214D01*
X109057142Y-124629357D01*
X108985714Y-124343642D01*
X108985714Y-123986500D01*
X109057142Y-123700785D01*
X109128571Y-123557928D01*
X109199999Y-123486500D01*
X109342857Y-123415071D01*
X110485714Y-124343642D02*
X111628571Y-124343642D01*
X112342857Y-123415071D02*
X112342857Y-124629357D01*
X112414285Y-124772214D01*
X112485714Y-124843642D01*
X112628571Y-124915071D01*
X112914285Y-124915071D01*
X113057142Y-124843642D01*
X113128571Y-124772214D01*
X113199999Y-124629357D01*
X113199999Y-123415071D01*
X113842857Y-124843642D02*
X114057142Y-124915071D01*
X114414285Y-124915071D01*
X114557142Y-124843642D01*
X114628571Y-124772214D01*
X114699999Y-124629357D01*
X114699999Y-124486500D01*
X114628571Y-124343642D01*
X114557142Y-124272214D01*
X114414285Y-124200785D01*
X114128571Y-124129357D01*
X113985714Y-124057928D01*
X113914285Y-123986500D01*
X113842857Y-123843642D01*
X113842857Y-123700785D01*
X113914285Y-123557928D01*
X113985714Y-123486500D01*
X114128571Y-123415071D01*
X114485714Y-123415071D01*
X114699999Y-123486500D01*
X115842857Y-124129357D02*
X116057142Y-124200785D01*
X116128571Y-124272214D01*
X116199999Y-124415071D01*
X116199999Y-124629357D01*
X116128571Y-124772214D01*
X116057142Y-124843642D01*
X115914285Y-124915071D01*
X115342857Y-124915071D01*
X115342857Y-123415071D01*
X115842857Y-123415071D01*
X115985714Y-123486500D01*
X116057142Y-123557928D01*
X116128571Y-123700785D01*
X116128571Y-123843642D01*
X116057142Y-123986500D01*
X115985714Y-124057928D01*
X115842857Y-124129357D01*
X115342857Y-124129357D01*
X116842857Y-124915071D02*
X116842857Y-123415071D01*
X117699999Y-124915071D02*
X117057142Y-124057928D01*
X117699999Y-123415071D02*
X116842857Y-124272214D01*
X118842857Y-124129357D02*
X119057142Y-124200785D01*
X119128571Y-124272214D01*
X119199999Y-124415071D01*
X119199999Y-124629357D01*
X119128571Y-124772214D01*
X119057142Y-124843642D01*
X118914285Y-124915071D01*
X118342857Y-124915071D01*
X118342857Y-123415071D01*
X118842857Y-123415071D01*
X118985714Y-123486500D01*
X119057142Y-123557928D01*
X119128571Y-123700785D01*
X119128571Y-123843642D01*
X119057142Y-123986500D01*
X118985714Y-124057928D01*
X118842857Y-124129357D01*
X118342857Y-124129357D01*
X119842857Y-124915071D02*
X119842857Y-123415071D01*
X120199999Y-123415071D01*
X120414285Y-123486500D01*
X120557142Y-123629357D01*
X120628571Y-123772214D01*
X120699999Y-124057928D01*
X120699999Y-124272214D01*
X120628571Y-124557928D01*
X120557142Y-124700785D01*
X120414285Y-124843642D01*
X120199999Y-124915071D01*
X119842857Y-124915071D01*
X121199999Y-125415071D02*
X121557142Y-125415071D01*
X121557142Y-123272214D01*
X121199999Y-123272214D01*
X124342857Y-124915071D02*
X123842857Y-124200785D01*
X123485714Y-124915071D02*
X123485714Y-123415071D01*
X124057142Y-123415071D01*
X124199999Y-123486500D01*
X124271428Y-123557928D01*
X124342857Y-123700785D01*
X124342857Y-123915071D01*
X124271428Y-124057928D01*
X124199999Y-124129357D01*
X124057142Y-124200785D01*
X123485714Y-124200785D01*
X124985714Y-124129357D02*
X125485714Y-124129357D01*
X125699999Y-124915071D02*
X124985714Y-124915071D01*
X124985714Y-123415071D01*
X125699999Y-123415071D01*
X126128571Y-123415071D02*
X126628571Y-124915071D01*
X127128571Y-123415071D01*
X127557142Y-123557928D02*
X127628571Y-123486500D01*
X127771428Y-123415071D01*
X128128571Y-123415071D01*
X128271428Y-123486500D01*
X128342857Y-123557928D01*
X128414285Y-123700785D01*
X128414285Y-123843642D01*
X128342857Y-124057928D01*
X127485714Y-124915071D01*
X128414285Y-124915071D01*
X110914285Y-127330071D02*
X110914285Y-125830071D01*
X111771428Y-127330071D02*
X111128571Y-126472928D01*
X111771428Y-125830071D02*
X110914285Y-126687214D01*
X112414285Y-125830071D02*
X112414285Y-127044357D01*
X112485714Y-127187214D01*
X112557142Y-127258642D01*
X112700000Y-127330071D01*
X112985714Y-127330071D01*
X113128571Y-127258642D01*
X113200000Y-127187214D01*
X113271428Y-127044357D01*
X113271428Y-125830071D01*
X113985714Y-127330071D02*
X113985714Y-125830071D01*
X114842857Y-127330071D01*
X114842857Y-125830071D01*
X115557142Y-127330071D02*
X115557142Y-125830071D01*
X116271428Y-126758642D02*
X117414285Y-126758642D01*
X118128571Y-127330071D02*
X118128571Y-125830071D01*
X118985714Y-127330071D01*
X118985714Y-125830071D01*
X119700000Y-126544357D02*
X120200000Y-126544357D01*
X120414285Y-127330071D02*
X119700000Y-127330071D01*
X119700000Y-125830071D01*
X120414285Y-125830071D01*
X120842857Y-125830071D02*
X121700000Y-125830071D01*
X121271428Y-127330071D02*
X121271428Y-125830071D01*
X123271428Y-125972928D02*
X123342857Y-125901500D01*
X123485714Y-125830071D01*
X123842857Y-125830071D01*
X123985714Y-125901500D01*
X124057142Y-125972928D01*
X124128571Y-126115785D01*
X124128571Y-126258642D01*
X124057142Y-126472928D01*
X123200000Y-127330071D01*
X124128571Y-127330071D01*
X125057142Y-125830071D02*
X125200000Y-125830071D01*
X125342857Y-125901500D01*
X125414285Y-125972928D01*
X125485714Y-126115785D01*
X125557142Y-126401500D01*
X125557142Y-126758642D01*
X125485714Y-127044357D01*
X125414285Y-127187214D01*
X125342857Y-127258642D01*
X125200000Y-127330071D01*
X125057142Y-127330071D01*
X124914285Y-127258642D01*
X124842857Y-127187214D01*
X124771428Y-127044357D01*
X124700000Y-126758642D01*
X124700000Y-126401500D01*
X124771428Y-126115785D01*
X124842857Y-125972928D01*
X124914285Y-125901500D01*
X125057142Y-125830071D01*
X126128571Y-125972928D02*
X126200000Y-125901500D01*
X126342857Y-125830071D01*
X126700000Y-125830071D01*
X126842857Y-125901500D01*
X126914285Y-125972928D01*
X126985714Y-126115785D01*
X126985714Y-126258642D01*
X126914285Y-126472928D01*
X126057142Y-127330071D01*
X126985714Y-127330071D01*
X128414285Y-127330071D02*
X127557142Y-127330071D01*
X127985714Y-127330071D02*
X127985714Y-125830071D01*
X127842857Y-126044357D01*
X127700000Y-126187214D01*
X127557142Y-126258642D01*
D12*
X178804571Y-86034952D02*
X178709333Y-85987333D01*
X178661714Y-85939714D01*
X178614095Y-85844476D01*
X178614095Y-85796857D01*
X178661714Y-85701619D01*
X178709333Y-85654000D01*
X178804571Y-85606380D01*
X178995047Y-85606380D01*
X179090285Y-85654000D01*
X179137904Y-85701619D01*
X179185523Y-85796857D01*
X179185523Y-85844476D01*
X179137904Y-85939714D01*
X179090285Y-85987333D01*
X178995047Y-86034952D01*
X178804571Y-86034952D01*
X178709333Y-86082571D01*
X178661714Y-86130190D01*
X178614095Y-86225428D01*
X178614095Y-86415904D01*
X178661714Y-86511142D01*
X178709333Y-86558761D01*
X178804571Y-86606380D01*
X178995047Y-86606380D01*
X179090285Y-86558761D01*
X179137904Y-86511142D01*
X179185523Y-86415904D01*
X179185523Y-86225428D01*
X179137904Y-86130190D01*
X179090285Y-86082571D01*
X178995047Y-86034952D01*
X179804571Y-85606380D02*
X179899809Y-85606380D01*
X179995047Y-85654000D01*
X180042666Y-85701619D01*
X180090285Y-85796857D01*
X180137904Y-85987333D01*
X180137904Y-86225428D01*
X180090285Y-86415904D01*
X180042666Y-86511142D01*
X179995047Y-86558761D01*
X179899809Y-86606380D01*
X179804571Y-86606380D01*
X179709333Y-86558761D01*
X179661714Y-86511142D01*
X179614095Y-86415904D01*
X179566476Y-86225428D01*
X179566476Y-85987333D01*
X179614095Y-85796857D01*
X179661714Y-85701619D01*
X179709333Y-85654000D01*
X179804571Y-85606380D01*
X178336476Y-61452380D02*
X178336476Y-60452380D01*
X179526952Y-60404761D02*
X178669809Y-61690476D01*
X180050761Y-60452380D02*
X180241238Y-60452380D01*
X180336476Y-60500000D01*
X180431714Y-60595238D01*
X180479333Y-60785714D01*
X180479333Y-61119047D01*
X180431714Y-61309523D01*
X180336476Y-61404761D01*
X180241238Y-61452380D01*
X180050761Y-61452380D01*
X179955523Y-61404761D01*
X179860285Y-61309523D01*
X179812666Y-61119047D01*
X179812666Y-60785714D01*
X179860285Y-60595238D01*
X179955523Y-60500000D01*
X180050761Y-60452380D01*
X181955523Y-60452380D02*
X181955523Y-61166666D01*
X181907904Y-61309523D01*
X181812666Y-61404761D01*
X181669809Y-61452380D01*
X181574571Y-61452380D01*
X182431714Y-61452380D02*
X182431714Y-60452380D01*
X182812666Y-60452380D01*
X182907904Y-60500000D01*
X182955523Y-60547619D01*
X183003142Y-60642857D01*
X183003142Y-60785714D01*
X182955523Y-60880952D01*
X182907904Y-60928571D01*
X182812666Y-60976190D01*
X182431714Y-60976190D01*
X174446761Y-65999428D02*
X174494380Y-65856571D01*
X174494380Y-65618476D01*
X174446761Y-65523238D01*
X174399142Y-65475619D01*
X174303904Y-65428000D01*
X174208666Y-65428000D01*
X174113428Y-65475619D01*
X174065809Y-65523238D01*
X174018190Y-65618476D01*
X173970571Y-65808952D01*
X173922952Y-65904190D01*
X173875333Y-65951809D01*
X173780095Y-65999428D01*
X173684857Y-65999428D01*
X173589619Y-65951809D01*
X173542000Y-65904190D01*
X173494380Y-65808952D01*
X173494380Y-65570857D01*
X173542000Y-65428000D01*
X173970571Y-64666095D02*
X174018190Y-64523238D01*
X174065809Y-64475619D01*
X174161047Y-64428000D01*
X174303904Y-64428000D01*
X174399142Y-64475619D01*
X174446761Y-64523238D01*
X174494380Y-64618476D01*
X174494380Y-64999428D01*
X173494380Y-64999428D01*
X173494380Y-64666095D01*
X173542000Y-64570857D01*
X173589619Y-64523238D01*
X173684857Y-64475619D01*
X173780095Y-64475619D01*
X173875333Y-64523238D01*
X173922952Y-64570857D01*
X173970571Y-64666095D01*
X173970571Y-64999428D01*
X174399142Y-63428000D02*
X174446761Y-63475619D01*
X174494380Y-63618476D01*
X174494380Y-63713714D01*
X174446761Y-63856571D01*
X174351523Y-63951809D01*
X174256285Y-63999428D01*
X174065809Y-64047047D01*
X173922952Y-64047047D01*
X173732476Y-63999428D01*
X173637238Y-63951809D01*
X173542000Y-63856571D01*
X173494380Y-63713714D01*
X173494380Y-63618476D01*
X173542000Y-63475619D01*
X173589619Y-63428000D01*
X173922952Y-62856571D02*
X173875333Y-62951809D01*
X173827714Y-62999428D01*
X173732476Y-63047047D01*
X173684857Y-63047047D01*
X173589619Y-62999428D01*
X173542000Y-62951809D01*
X173494380Y-62856571D01*
X173494380Y-62666095D01*
X173542000Y-62570857D01*
X173589619Y-62523238D01*
X173684857Y-62475619D01*
X173732476Y-62475619D01*
X173827714Y-62523238D01*
X173875333Y-62570857D01*
X173922952Y-62666095D01*
X173922952Y-62856571D01*
X173970571Y-62951809D01*
X174018190Y-62999428D01*
X174113428Y-63047047D01*
X174303904Y-63047047D01*
X174399142Y-62999428D01*
X174446761Y-62951809D01*
X174494380Y-62856571D01*
X174494380Y-62666095D01*
X174446761Y-62570857D01*
X174399142Y-62523238D01*
X174303904Y-62475619D01*
X174113428Y-62475619D01*
X174018190Y-62523238D01*
X173970571Y-62570857D01*
X173922952Y-62666095D01*
X173494380Y-61856571D02*
X173494380Y-61761333D01*
X173542000Y-61666095D01*
X173589619Y-61618476D01*
X173684857Y-61570857D01*
X173875333Y-61523238D01*
X174113428Y-61523238D01*
X174303904Y-61570857D01*
X174399142Y-61618476D01*
X174446761Y-61666095D01*
X174494380Y-61761333D01*
X174494380Y-61856571D01*
X174446761Y-61951809D01*
X174399142Y-61999428D01*
X174303904Y-62047047D01*
X174113428Y-62094666D01*
X173875333Y-62094666D01*
X173684857Y-62047047D01*
X173589619Y-61999428D01*
X173542000Y-61951809D01*
X173494380Y-61856571D01*
X173922952Y-60951809D02*
X173875333Y-61047047D01*
X173827714Y-61094666D01*
X173732476Y-61142285D01*
X173684857Y-61142285D01*
X173589619Y-61094666D01*
X173542000Y-61047047D01*
X173494380Y-60951809D01*
X173494380Y-60761333D01*
X173542000Y-60666095D01*
X173589619Y-60618476D01*
X173684857Y-60570857D01*
X173732476Y-60570857D01*
X173827714Y-60618476D01*
X173875333Y-60666095D01*
X173922952Y-60761333D01*
X173922952Y-60951809D01*
X173970571Y-61047047D01*
X174018190Y-61094666D01*
X174113428Y-61142285D01*
X174303904Y-61142285D01*
X174399142Y-61094666D01*
X174446761Y-61047047D01*
X174494380Y-60951809D01*
X174494380Y-60761333D01*
X174446761Y-60666095D01*
X174399142Y-60618476D01*
X174303904Y-60570857D01*
X174113428Y-60570857D01*
X174018190Y-60618476D01*
X173970571Y-60666095D01*
X173922952Y-60761333D01*
X173494380Y-59951809D02*
X173494380Y-59856571D01*
X173542000Y-59761333D01*
X173589619Y-59713714D01*
X173684857Y-59666095D01*
X173875333Y-59618476D01*
X174113428Y-59618476D01*
X174303904Y-59666095D01*
X174399142Y-59713714D01*
X174446761Y-59761333D01*
X174494380Y-59856571D01*
X174494380Y-59951809D01*
X174446761Y-60047047D01*
X174399142Y-60094666D01*
X174303904Y-60142285D01*
X174113428Y-60189904D01*
X173875333Y-60189904D01*
X173684857Y-60142285D01*
X173589619Y-60094666D01*
X173542000Y-60047047D01*
X173494380Y-59951809D01*
X173970571Y-58094666D02*
X174018190Y-57951809D01*
X174065809Y-57904190D01*
X174161047Y-57856571D01*
X174303904Y-57856571D01*
X174399142Y-57904190D01*
X174446761Y-57951809D01*
X174494380Y-58047047D01*
X174494380Y-58428000D01*
X173494380Y-58428000D01*
X173494380Y-58094666D01*
X173542000Y-57999428D01*
X173589619Y-57951809D01*
X173684857Y-57904190D01*
X173780095Y-57904190D01*
X173875333Y-57951809D01*
X173922952Y-57999428D01*
X173970571Y-58094666D01*
X173970571Y-58428000D01*
X173494380Y-57428000D02*
X174303904Y-57428000D01*
X174399142Y-57380380D01*
X174446761Y-57332761D01*
X174494380Y-57237523D01*
X174494380Y-57047047D01*
X174446761Y-56951809D01*
X174399142Y-56904190D01*
X174303904Y-56856571D01*
X173494380Y-56856571D01*
X174446761Y-56428000D02*
X174494380Y-56285142D01*
X174494380Y-56047047D01*
X174446761Y-55951809D01*
X174399142Y-55904190D01*
X174303904Y-55856571D01*
X174208666Y-55856571D01*
X174113428Y-55904190D01*
X174065809Y-55951809D01*
X174018190Y-56047047D01*
X173970571Y-56237523D01*
X173922952Y-56332761D01*
X173875333Y-56380380D01*
X173780095Y-56428000D01*
X173684857Y-56428000D01*
X173589619Y-56380380D01*
X173542000Y-56332761D01*
X173494380Y-56237523D01*
X173494380Y-55999428D01*
X173542000Y-55856571D01*
D11*
X156200000Y-107178571D02*
X155700000Y-106464285D01*
X155342857Y-107178571D02*
X155342857Y-105678571D01*
X155914285Y-105678571D01*
X156057142Y-105750000D01*
X156128571Y-105821428D01*
X156200000Y-105964285D01*
X156200000Y-106178571D01*
X156128571Y-106321428D01*
X156057142Y-106392857D01*
X155914285Y-106464285D01*
X155342857Y-106464285D01*
X157485714Y-107178571D02*
X157485714Y-106392857D01*
X157414285Y-106250000D01*
X157271428Y-106178571D01*
X156985714Y-106178571D01*
X156842857Y-106250000D01*
X157485714Y-107107142D02*
X157342857Y-107178571D01*
X156985714Y-107178571D01*
X156842857Y-107107142D01*
X156771428Y-106964285D01*
X156771428Y-106821428D01*
X156842857Y-106678571D01*
X156985714Y-106607142D01*
X157342857Y-106607142D01*
X157485714Y-106535714D01*
X158128571Y-107107142D02*
X158271428Y-107178571D01*
X158557142Y-107178571D01*
X158700000Y-107107142D01*
X158771428Y-106964285D01*
X158771428Y-106892857D01*
X158700000Y-106750000D01*
X158557142Y-106678571D01*
X158342857Y-106678571D01*
X158200000Y-106607142D01*
X158128571Y-106464285D01*
X158128571Y-106392857D01*
X158200000Y-106250000D01*
X158342857Y-106178571D01*
X158557142Y-106178571D01*
X158700000Y-106250000D01*
X159414285Y-106178571D02*
X159414285Y-107678571D01*
X159414285Y-106250000D02*
X159557142Y-106178571D01*
X159842857Y-106178571D01*
X159985714Y-106250000D01*
X160057142Y-106321428D01*
X160128571Y-106464285D01*
X160128571Y-106892857D01*
X160057142Y-107035714D01*
X159985714Y-107107142D01*
X159842857Y-107178571D01*
X159557142Y-107178571D01*
X159414285Y-107107142D01*
X160771428Y-107178571D02*
X160771428Y-105678571D01*
X160771428Y-106250000D02*
X160914285Y-106178571D01*
X161200000Y-106178571D01*
X161342857Y-106250000D01*
X161414285Y-106321428D01*
X161485714Y-106464285D01*
X161485714Y-106892857D01*
X161414285Y-107035714D01*
X161342857Y-107107142D01*
X161200000Y-107178571D01*
X160914285Y-107178571D01*
X160771428Y-107107142D01*
X162700000Y-107107142D02*
X162557142Y-107178571D01*
X162271428Y-107178571D01*
X162128571Y-107107142D01*
X162057142Y-106964285D01*
X162057142Y-106392857D01*
X162128571Y-106250000D01*
X162271428Y-106178571D01*
X162557142Y-106178571D01*
X162700000Y-106250000D01*
X162771428Y-106392857D01*
X162771428Y-106535714D01*
X162057142Y-106678571D01*
X163414285Y-107178571D02*
X163414285Y-106178571D01*
X163414285Y-106464285D02*
X163485714Y-106321428D01*
X163557142Y-106250000D01*
X163700000Y-106178571D01*
X163842857Y-106178571D01*
X164342857Y-107178571D02*
X164342857Y-106178571D01*
X164342857Y-106464285D02*
X164414285Y-106321428D01*
X164485714Y-106250000D01*
X164628571Y-106178571D01*
X164771428Y-106178571D01*
X165128571Y-106178571D02*
X165485714Y-107178571D01*
X165842857Y-106178571D02*
X165485714Y-107178571D01*
X165342857Y-107535714D01*
X165271428Y-107607142D01*
X165128571Y-107678571D01*
X167557142Y-107178571D02*
X167557142Y-105678571D01*
X168128571Y-105678571D01*
X168271428Y-105750000D01*
X168342857Y-105821428D01*
X168414285Y-105964285D01*
X168414285Y-106178571D01*
X168342857Y-106321428D01*
X168271428Y-106392857D01*
X168128571Y-106464285D01*
X167557142Y-106464285D01*
X169057142Y-107178571D02*
X169057142Y-106178571D01*
X169057142Y-105678571D02*
X168985714Y-105750000D01*
X169057142Y-105821428D01*
X169128571Y-105750000D01*
X169057142Y-105678571D01*
X169057142Y-105821428D01*
X170914285Y-107178571D02*
X170914285Y-105678571D01*
X171485714Y-105678571D01*
X171628571Y-105750000D01*
X171700000Y-105821428D01*
X171771428Y-105964285D01*
X171771428Y-106178571D01*
X171700000Y-106321428D01*
X171628571Y-106392857D01*
X171485714Y-106464285D01*
X170914285Y-106464285D01*
X172414285Y-107178571D02*
X172414285Y-106178571D01*
X172414285Y-105678571D02*
X172342857Y-105750000D01*
X172414285Y-105821428D01*
X172485714Y-105750000D01*
X172414285Y-105678571D01*
X172414285Y-105821428D01*
X173771428Y-107107142D02*
X173628571Y-107178571D01*
X173342857Y-107178571D01*
X173200000Y-107107142D01*
X173128571Y-107035714D01*
X173057142Y-106892857D01*
X173057142Y-106464285D01*
X173128571Y-106321428D01*
X173200000Y-106250000D01*
X173342857Y-106178571D01*
X173628571Y-106178571D01*
X173771428Y-106250000D01*
X174628571Y-107178571D02*
X174485714Y-107107142D01*
X174414285Y-107035714D01*
X174342857Y-106892857D01*
X174342857Y-106464285D01*
X174414285Y-106321428D01*
X174485714Y-106250000D01*
X174628571Y-106178571D01*
X174842857Y-106178571D01*
X174985714Y-106250000D01*
X175057142Y-106321428D01*
X175128571Y-106464285D01*
X175128571Y-106892857D01*
X175057142Y-107035714D01*
X174985714Y-107107142D01*
X174842857Y-107178571D01*
X174628571Y-107178571D01*
D12*
X168476190Y-127452380D02*
X168476190Y-126452380D01*
X169047619Y-127452380D02*
X168619047Y-126880952D01*
X169047619Y-126452380D02*
X168476190Y-127023809D01*
X169476190Y-126928571D02*
X169809523Y-126928571D01*
X169952380Y-127452380D02*
X169476190Y-127452380D01*
X169476190Y-126452380D01*
X169952380Y-126452380D01*
X170571428Y-126976190D02*
X170571428Y-127452380D01*
X170238095Y-126452380D02*
X170571428Y-126976190D01*
X170904761Y-126452380D01*
X172000000Y-127452380D02*
X172000000Y-126452380D01*
X172333333Y-127166666D01*
X172666666Y-126452380D01*
X172666666Y-127452380D01*
X173095238Y-127166666D02*
X173571428Y-127166666D01*
X173000000Y-127452380D02*
X173333333Y-126452380D01*
X173666666Y-127452380D01*
X174000000Y-127452380D02*
X174000000Y-126452380D01*
X174380952Y-126452380D01*
X174476190Y-126500000D01*
X174523809Y-126547619D01*
X174571428Y-126642857D01*
X174571428Y-126785714D01*
X174523809Y-126880952D01*
X174476190Y-126928571D01*
X174380952Y-126976190D01*
X174000000Y-126976190D01*
X170118666Y-73200380D02*
X170118666Y-73914666D01*
X170071047Y-74057523D01*
X169975809Y-74152761D01*
X169832952Y-74200380D01*
X169737714Y-74200380D01*
X171071047Y-73200380D02*
X170594857Y-73200380D01*
X170547238Y-73676571D01*
X170594857Y-73628952D01*
X170690095Y-73581333D01*
X170928190Y-73581333D01*
X171023428Y-73628952D01*
X171071047Y-73676571D01*
X171118666Y-73771809D01*
X171118666Y-74009904D01*
X171071047Y-74105142D01*
X171023428Y-74152761D01*
X170928190Y-74200380D01*
X170690095Y-74200380D01*
X170594857Y-74152761D01*
X170547238Y-74105142D01*
X166856761Y-75810380D02*
X166285333Y-75810380D01*
X166571047Y-75810380D02*
X166571047Y-74810380D01*
X166475809Y-74953238D01*
X166380571Y-75048476D01*
X166285333Y-75096095D01*
X167285333Y-75429428D02*
X168047238Y-75429428D01*
X168475809Y-74905619D02*
X168523428Y-74858000D01*
X168618666Y-74810380D01*
X168856761Y-74810380D01*
X168952000Y-74858000D01*
X168999619Y-74905619D01*
X169047238Y-75000857D01*
X169047238Y-75096095D01*
X168999619Y-75238952D01*
X168428190Y-75810380D01*
X169047238Y-75810380D01*
X170999619Y-75429428D02*
X171761523Y-75429428D01*
X171380571Y-75810380D02*
X171380571Y-75048476D01*
X172428190Y-74810380D02*
X172523428Y-74810380D01*
X172618666Y-74858000D01*
X172666285Y-74905619D01*
X172713904Y-75000857D01*
X172761523Y-75191333D01*
X172761523Y-75429428D01*
X172713904Y-75619904D01*
X172666285Y-75715142D01*
X172618666Y-75762761D01*
X172523428Y-75810380D01*
X172428190Y-75810380D01*
X172332952Y-75762761D01*
X172285333Y-75715142D01*
X172237714Y-75619904D01*
X172190095Y-75429428D01*
X172190095Y-75191333D01*
X172237714Y-75000857D01*
X172285333Y-74905619D01*
X172332952Y-74858000D01*
X172428190Y-74810380D01*
X173380571Y-74810380D02*
X173475809Y-74810380D01*
X173571047Y-74858000D01*
X173618666Y-74905619D01*
X173666285Y-75000857D01*
X173713904Y-75191333D01*
X173713904Y-75429428D01*
X173666285Y-75619904D01*
X173618666Y-75715142D01*
X173571047Y-75762761D01*
X173475809Y-75810380D01*
X173380571Y-75810380D01*
X173285333Y-75762761D01*
X173237714Y-75715142D01*
X173190095Y-75619904D01*
X173142476Y-75429428D01*
X173142476Y-75191333D01*
X173190095Y-75000857D01*
X173237714Y-74905619D01*
X173285333Y-74858000D01*
X173380571Y-74810380D01*
X174142476Y-75810380D02*
X174142476Y-74810380D01*
X174571047Y-75810380D02*
X174571047Y-75286571D01*
X174523428Y-75191333D01*
X174428190Y-75143714D01*
X174285333Y-75143714D01*
X174190095Y-75191333D01*
X174142476Y-75238952D01*
X166237714Y-76420380D02*
X166856761Y-76420380D01*
X166523428Y-76801333D01*
X166666285Y-76801333D01*
X166761523Y-76848952D01*
X166809142Y-76896571D01*
X166856761Y-76991809D01*
X166856761Y-77229904D01*
X166809142Y-77325142D01*
X166761523Y-77372761D01*
X166666285Y-77420380D01*
X166380571Y-77420380D01*
X166285333Y-77372761D01*
X166237714Y-77325142D01*
X167285333Y-77039428D02*
X168047238Y-77039428D01*
X168952000Y-76753714D02*
X168952000Y-77420380D01*
X168713904Y-76372761D02*
X168475809Y-77087047D01*
X169094857Y-77087047D01*
X170999619Y-77039428D02*
X171761523Y-77039428D01*
X171380571Y-77420380D02*
X171380571Y-76658476D01*
X172428190Y-76420380D02*
X172523428Y-76420380D01*
X172618666Y-76468000D01*
X172666285Y-76515619D01*
X172713904Y-76610857D01*
X172761523Y-76801333D01*
X172761523Y-77039428D01*
X172713904Y-77229904D01*
X172666285Y-77325142D01*
X172618666Y-77372761D01*
X172523428Y-77420380D01*
X172428190Y-77420380D01*
X172332952Y-77372761D01*
X172285333Y-77325142D01*
X172237714Y-77229904D01*
X172190095Y-77039428D01*
X172190095Y-76801333D01*
X172237714Y-76610857D01*
X172285333Y-76515619D01*
X172332952Y-76468000D01*
X172428190Y-76420380D01*
X173332952Y-76848952D02*
X173237714Y-76801333D01*
X173190095Y-76753714D01*
X173142476Y-76658476D01*
X173142476Y-76610857D01*
X173190095Y-76515619D01*
X173237714Y-76468000D01*
X173332952Y-76420380D01*
X173523428Y-76420380D01*
X173618666Y-76468000D01*
X173666285Y-76515619D01*
X173713904Y-76610857D01*
X173713904Y-76658476D01*
X173666285Y-76753714D01*
X173618666Y-76801333D01*
X173523428Y-76848952D01*
X173332952Y-76848952D01*
X173237714Y-76896571D01*
X173190095Y-76944190D01*
X173142476Y-77039428D01*
X173142476Y-77229904D01*
X173190095Y-77325142D01*
X173237714Y-77372761D01*
X173332952Y-77420380D01*
X173523428Y-77420380D01*
X173618666Y-77372761D01*
X173666285Y-77325142D01*
X173713904Y-77229904D01*
X173713904Y-77039428D01*
X173666285Y-76944190D01*
X173618666Y-76896571D01*
X173523428Y-76848952D01*
X174142476Y-77420380D02*
X174142476Y-76420380D01*
X174571047Y-77420380D02*
X174571047Y-76896571D01*
X174523428Y-76801333D01*
X174428190Y-76753714D01*
X174285333Y-76753714D01*
X174190095Y-76801333D01*
X174142476Y-76848952D01*
X166809142Y-78030380D02*
X166332952Y-78030380D01*
X166285333Y-78506571D01*
X166332952Y-78458952D01*
X166428190Y-78411333D01*
X166666285Y-78411333D01*
X166761523Y-78458952D01*
X166809142Y-78506571D01*
X166856761Y-78601809D01*
X166856761Y-78839904D01*
X166809142Y-78935142D01*
X166761523Y-78982761D01*
X166666285Y-79030380D01*
X166428190Y-79030380D01*
X166332952Y-78982761D01*
X166285333Y-78935142D01*
X167285333Y-78649428D02*
X168047238Y-78649428D01*
X168952000Y-78030380D02*
X168761523Y-78030380D01*
X168666285Y-78078000D01*
X168618666Y-78125619D01*
X168523428Y-78268476D01*
X168475809Y-78458952D01*
X168475809Y-78839904D01*
X168523428Y-78935142D01*
X168571047Y-78982761D01*
X168666285Y-79030380D01*
X168856761Y-79030380D01*
X168952000Y-78982761D01*
X168999619Y-78935142D01*
X169047238Y-78839904D01*
X169047238Y-78601809D01*
X168999619Y-78506571D01*
X168952000Y-78458952D01*
X168856761Y-78411333D01*
X168666285Y-78411333D01*
X168571047Y-78458952D01*
X168523428Y-78506571D01*
X168475809Y-78601809D01*
X170999619Y-78649428D02*
X171761523Y-78649428D01*
X171380571Y-79030380D02*
X171380571Y-78268476D01*
X172761523Y-79030380D02*
X172190095Y-79030380D01*
X172475809Y-79030380D02*
X172475809Y-78030380D01*
X172380571Y-78173238D01*
X172285333Y-78268476D01*
X172190095Y-78316095D01*
X173380571Y-78030380D02*
X173475809Y-78030380D01*
X173571047Y-78078000D01*
X173618666Y-78125619D01*
X173666285Y-78220857D01*
X173713904Y-78411333D01*
X173713904Y-78649428D01*
X173666285Y-78839904D01*
X173618666Y-78935142D01*
X173571047Y-78982761D01*
X173475809Y-79030380D01*
X173380571Y-79030380D01*
X173285333Y-78982761D01*
X173237714Y-78935142D01*
X173190095Y-78839904D01*
X173142476Y-78649428D01*
X173142476Y-78411333D01*
X173190095Y-78220857D01*
X173237714Y-78125619D01*
X173285333Y-78078000D01*
X173380571Y-78030380D01*
X174142476Y-79030380D02*
X174142476Y-78030380D01*
X174571047Y-79030380D02*
X174571047Y-78506571D01*
X174523428Y-78411333D01*
X174428190Y-78363714D01*
X174285333Y-78363714D01*
X174190095Y-78411333D01*
X174142476Y-78458952D01*
X166237714Y-79640380D02*
X166904380Y-79640380D01*
X166475809Y-80640380D01*
X167285333Y-80259428D02*
X168047238Y-80259428D01*
X168666285Y-80068952D02*
X168571047Y-80021333D01*
X168523428Y-79973714D01*
X168475809Y-79878476D01*
X168475809Y-79830857D01*
X168523428Y-79735619D01*
X168571047Y-79688000D01*
X168666285Y-79640380D01*
X168856761Y-79640380D01*
X168952000Y-79688000D01*
X168999619Y-79735619D01*
X169047238Y-79830857D01*
X169047238Y-79878476D01*
X168999619Y-79973714D01*
X168952000Y-80021333D01*
X168856761Y-80068952D01*
X168666285Y-80068952D01*
X168571047Y-80116571D01*
X168523428Y-80164190D01*
X168475809Y-80259428D01*
X168475809Y-80449904D01*
X168523428Y-80545142D01*
X168571047Y-80592761D01*
X168666285Y-80640380D01*
X168856761Y-80640380D01*
X168952000Y-80592761D01*
X168999619Y-80545142D01*
X169047238Y-80449904D01*
X169047238Y-80259428D01*
X168999619Y-80164190D01*
X168952000Y-80116571D01*
X168856761Y-80068952D01*
X170999619Y-80259428D02*
X171761523Y-80259428D01*
X171380571Y-80640380D02*
X171380571Y-79878476D01*
X172761523Y-80640380D02*
X172190095Y-80640380D01*
X172475809Y-80640380D02*
X172475809Y-79640380D01*
X172380571Y-79783238D01*
X172285333Y-79878476D01*
X172190095Y-79926095D01*
X173332952Y-80068952D02*
X173237714Y-80021333D01*
X173190095Y-79973714D01*
X173142476Y-79878476D01*
X173142476Y-79830857D01*
X173190095Y-79735619D01*
X173237714Y-79688000D01*
X173332952Y-79640380D01*
X173523428Y-79640380D01*
X173618666Y-79688000D01*
X173666285Y-79735619D01*
X173713904Y-79830857D01*
X173713904Y-79878476D01*
X173666285Y-79973714D01*
X173618666Y-80021333D01*
X173523428Y-80068952D01*
X173332952Y-80068952D01*
X173237714Y-80116571D01*
X173190095Y-80164190D01*
X173142476Y-80259428D01*
X173142476Y-80449904D01*
X173190095Y-80545142D01*
X173237714Y-80592761D01*
X173332952Y-80640380D01*
X173523428Y-80640380D01*
X173618666Y-80592761D01*
X173666285Y-80545142D01*
X173713904Y-80449904D01*
X173713904Y-80259428D01*
X173666285Y-80164190D01*
X173618666Y-80116571D01*
X173523428Y-80068952D01*
X174142476Y-80640380D02*
X174142476Y-79640380D01*
X174571047Y-80640380D02*
X174571047Y-80116571D01*
X174523428Y-80021333D01*
X174428190Y-79973714D01*
X174285333Y-79973714D01*
X174190095Y-80021333D01*
X174142476Y-80068952D01*
X157404761Y-128357142D02*
X157357142Y-128404761D01*
X157214285Y-128452380D01*
X157119047Y-128452380D01*
X156976190Y-128404761D01*
X156880952Y-128309523D01*
X156833333Y-128214285D01*
X156785714Y-128023809D01*
X156785714Y-127880952D01*
X156833333Y-127690476D01*
X156880952Y-127595238D01*
X156976190Y-127500000D01*
X157119047Y-127452380D01*
X157214285Y-127452380D01*
X157357142Y-127500000D01*
X157404761Y-127547619D01*
X157785714Y-128166666D02*
X158261904Y-128166666D01*
X157690476Y-128452380D02*
X158023809Y-127452380D01*
X158357142Y-128452380D01*
X158690476Y-128452380D02*
X158690476Y-127452380D01*
X159071428Y-127452380D01*
X159166666Y-127500000D01*
X159214285Y-127547619D01*
X159261904Y-127642857D01*
X159261904Y-127785714D01*
X159214285Y-127880952D01*
X159166666Y-127928571D01*
X159071428Y-127976190D01*
X158690476Y-127976190D01*
X159642857Y-128404761D02*
X159785714Y-128452380D01*
X160023809Y-128452380D01*
X160119047Y-128404761D01*
X160166666Y-128357142D01*
X160214285Y-128261904D01*
X160214285Y-128166666D01*
X160166666Y-128071428D01*
X160119047Y-128023809D01*
X160023809Y-127976190D01*
X159833333Y-127928571D01*
X159738095Y-127880952D01*
X159690476Y-127833333D01*
X159642857Y-127738095D01*
X159642857Y-127642857D01*
X159690476Y-127547619D01*
X159738095Y-127500000D01*
X159833333Y-127452380D01*
X160071428Y-127452380D01*
X160214285Y-127500000D01*
X96547619Y-105957142D02*
X96500000Y-106004761D01*
X96357142Y-106052380D01*
X96261904Y-106052380D01*
X96119047Y-106004761D01*
X96023809Y-105909523D01*
X95976190Y-105814285D01*
X95928571Y-105623809D01*
X95928571Y-105480952D01*
X95976190Y-105290476D01*
X96023809Y-105195238D01*
X96119047Y-105100000D01*
X96261904Y-105052380D01*
X96357142Y-105052380D01*
X96500000Y-105100000D01*
X96547619Y-105147619D01*
X96976190Y-106052380D02*
X96976190Y-105052380D01*
X97309523Y-105766666D01*
X97642857Y-105052380D01*
X97642857Y-106052380D01*
X97976190Y-105052380D02*
X98547619Y-105052380D01*
X98261904Y-106052380D02*
X98261904Y-105052380D01*
X99833333Y-105052380D02*
X100023809Y-105052380D01*
X100119047Y-105100000D01*
X100214285Y-105195238D01*
X100261904Y-105385714D01*
X100261904Y-105719047D01*
X100214285Y-105909523D01*
X100119047Y-106004761D01*
X100023809Y-106052380D01*
X99833333Y-106052380D01*
X99738095Y-106004761D01*
X99642857Y-105909523D01*
X99595238Y-105719047D01*
X99595238Y-105385714D01*
X99642857Y-105195238D01*
X99738095Y-105100000D01*
X99833333Y-105052380D01*
X100690476Y-105052380D02*
X100690476Y-105861904D01*
X100738095Y-105957142D01*
X100785714Y-106004761D01*
X100880952Y-106052380D01*
X101071428Y-106052380D01*
X101166666Y-106004761D01*
X101214285Y-105957142D01*
X101261904Y-105861904D01*
X101261904Y-105052380D01*
X101595238Y-105052380D02*
X102166666Y-105052380D01*
X101880952Y-106052380D02*
X101880952Y-105052380D01*
X167804666Y-84232380D02*
X167804666Y-84946666D01*
X167757047Y-85089523D01*
X167661809Y-85184761D01*
X167518952Y-85232380D01*
X167423714Y-85232380D01*
X168280857Y-85232380D02*
X168280857Y-84232380D01*
X168661809Y-84232380D01*
X168757047Y-84280000D01*
X168804666Y-84327619D01*
X168852285Y-84422857D01*
X168852285Y-84565714D01*
X168804666Y-84660952D01*
X168757047Y-84708571D01*
X168661809Y-84756190D01*
X168280857Y-84756190D01*
X169804666Y-85232380D02*
X169233238Y-85232380D01*
X169518952Y-85232380D02*
X169518952Y-84232380D01*
X169423714Y-84375238D01*
X169328476Y-84470476D01*
X169233238Y-84518095D01*
X165042761Y-86842380D02*
X164471333Y-86842380D01*
X164757047Y-86842380D02*
X164757047Y-85842380D01*
X164661809Y-85985238D01*
X164566571Y-86080476D01*
X164471333Y-86128095D01*
X165471333Y-86461428D02*
X166233238Y-86461428D01*
X166661809Y-85937619D02*
X166709428Y-85890000D01*
X166804666Y-85842380D01*
X167042761Y-85842380D01*
X167138000Y-85890000D01*
X167185619Y-85937619D01*
X167233238Y-86032857D01*
X167233238Y-86128095D01*
X167185619Y-86270952D01*
X166614190Y-86842380D01*
X167233238Y-86842380D01*
X169185619Y-86461428D02*
X169947523Y-86461428D01*
X169566571Y-86842380D02*
X169566571Y-86080476D01*
X170566571Y-86270952D02*
X170471333Y-86223333D01*
X170423714Y-86175714D01*
X170376095Y-86080476D01*
X170376095Y-86032857D01*
X170423714Y-85937619D01*
X170471333Y-85890000D01*
X170566571Y-85842380D01*
X170757047Y-85842380D01*
X170852285Y-85890000D01*
X170899904Y-85937619D01*
X170947523Y-86032857D01*
X170947523Y-86080476D01*
X170899904Y-86175714D01*
X170852285Y-86223333D01*
X170757047Y-86270952D01*
X170566571Y-86270952D01*
X170471333Y-86318571D01*
X170423714Y-86366190D01*
X170376095Y-86461428D01*
X170376095Y-86651904D01*
X170423714Y-86747142D01*
X170471333Y-86794761D01*
X170566571Y-86842380D01*
X170757047Y-86842380D01*
X170852285Y-86794761D01*
X170899904Y-86747142D01*
X170947523Y-86651904D01*
X170947523Y-86461428D01*
X170899904Y-86366190D01*
X170852285Y-86318571D01*
X170757047Y-86270952D01*
X171566571Y-85842380D02*
X171661809Y-85842380D01*
X171757047Y-85890000D01*
X171804666Y-85937619D01*
X171852285Y-86032857D01*
X171899904Y-86223333D01*
X171899904Y-86461428D01*
X171852285Y-86651904D01*
X171804666Y-86747142D01*
X171757047Y-86794761D01*
X171661809Y-86842380D01*
X171566571Y-86842380D01*
X171471333Y-86794761D01*
X171423714Y-86747142D01*
X171376095Y-86651904D01*
X171328476Y-86461428D01*
X171328476Y-86223333D01*
X171376095Y-86032857D01*
X171423714Y-85937619D01*
X171471333Y-85890000D01*
X171566571Y-85842380D01*
X172328476Y-86842380D02*
X172328476Y-85842380D01*
X172757047Y-86842380D02*
X172757047Y-86318571D01*
X172709428Y-86223333D01*
X172614190Y-86175714D01*
X172471333Y-86175714D01*
X172376095Y-86223333D01*
X172328476Y-86270952D01*
X164471333Y-87547619D02*
X164518952Y-87500000D01*
X164614190Y-87452380D01*
X164852285Y-87452380D01*
X164947523Y-87500000D01*
X164995142Y-87547619D01*
X165042761Y-87642857D01*
X165042761Y-87738095D01*
X164995142Y-87880952D01*
X164423714Y-88452380D01*
X165042761Y-88452380D01*
X165471333Y-88071428D02*
X166233238Y-88071428D01*
X166614190Y-87452380D02*
X167233238Y-87452380D01*
X166899904Y-87833333D01*
X167042761Y-87833333D01*
X167138000Y-87880952D01*
X167185619Y-87928571D01*
X167233238Y-88023809D01*
X167233238Y-88261904D01*
X167185619Y-88357142D01*
X167138000Y-88404761D01*
X167042761Y-88452380D01*
X166757047Y-88452380D01*
X166661809Y-88404761D01*
X166614190Y-88357142D01*
X169185619Y-88071428D02*
X169947523Y-88071428D01*
X169566571Y-88452380D02*
X169566571Y-87690476D01*
X170614190Y-87452380D02*
X170709428Y-87452380D01*
X170804666Y-87500000D01*
X170852285Y-87547619D01*
X170899904Y-87642857D01*
X170947523Y-87833333D01*
X170947523Y-88071428D01*
X170899904Y-88261904D01*
X170852285Y-88357142D01*
X170804666Y-88404761D01*
X170709428Y-88452380D01*
X170614190Y-88452380D01*
X170518952Y-88404761D01*
X170471333Y-88357142D01*
X170423714Y-88261904D01*
X170376095Y-88071428D01*
X170376095Y-87833333D01*
X170423714Y-87642857D01*
X170471333Y-87547619D01*
X170518952Y-87500000D01*
X170614190Y-87452380D01*
X171566571Y-87452380D02*
X171661809Y-87452380D01*
X171757047Y-87500000D01*
X171804666Y-87547619D01*
X171852285Y-87642857D01*
X171899904Y-87833333D01*
X171899904Y-88071428D01*
X171852285Y-88261904D01*
X171804666Y-88357142D01*
X171757047Y-88404761D01*
X171661809Y-88452380D01*
X171566571Y-88452380D01*
X171471333Y-88404761D01*
X171423714Y-88357142D01*
X171376095Y-88261904D01*
X171328476Y-88071428D01*
X171328476Y-87833333D01*
X171376095Y-87642857D01*
X171423714Y-87547619D01*
X171471333Y-87500000D01*
X171566571Y-87452380D01*
X172328476Y-88452380D02*
X172328476Y-87452380D01*
X172757047Y-88452380D02*
X172757047Y-87928571D01*
X172709428Y-87833333D01*
X172614190Y-87785714D01*
X172471333Y-87785714D01*
X172376095Y-87833333D01*
X172328476Y-87880952D01*
D11*
X177625857Y-65798857D02*
X176940142Y-65798857D01*
X177283000Y-65798857D02*
X177283000Y-64598857D01*
X177168714Y-64770285D01*
X177054428Y-64884571D01*
X176940142Y-64941714D01*
D12*
X159518666Y-73200380D02*
X159518666Y-73914666D01*
X159471047Y-74057523D01*
X159375809Y-74152761D01*
X159232952Y-74200380D01*
X159137714Y-74200380D01*
X160423428Y-73200380D02*
X160232952Y-73200380D01*
X160137714Y-73248000D01*
X160090095Y-73295619D01*
X159994857Y-73438476D01*
X159947238Y-73628952D01*
X159947238Y-74009904D01*
X159994857Y-74105142D01*
X160042476Y-74152761D01*
X160137714Y-74200380D01*
X160328190Y-74200380D01*
X160423428Y-74152761D01*
X160471047Y-74105142D01*
X160518666Y-74009904D01*
X160518666Y-73771809D01*
X160471047Y-73676571D01*
X160423428Y-73628952D01*
X160328190Y-73581333D01*
X160137714Y-73581333D01*
X160042476Y-73628952D01*
X159994857Y-73676571D01*
X159947238Y-73771809D01*
X156256761Y-75810380D02*
X155685333Y-75810380D01*
X155971047Y-75810380D02*
X155971047Y-74810380D01*
X155875809Y-74953238D01*
X155780571Y-75048476D01*
X155685333Y-75096095D01*
X156685333Y-75429428D02*
X157447238Y-75429428D01*
X157875809Y-74905619D02*
X157923428Y-74858000D01*
X158018666Y-74810380D01*
X158256761Y-74810380D01*
X158352000Y-74858000D01*
X158399619Y-74905619D01*
X158447238Y-75000857D01*
X158447238Y-75096095D01*
X158399619Y-75238952D01*
X157828190Y-75810380D01*
X158447238Y-75810380D01*
X160399619Y-75429428D02*
X161161523Y-75429428D01*
X160780571Y-75810380D02*
X160780571Y-75048476D01*
X161828190Y-74810380D02*
X161923428Y-74810380D01*
X162018666Y-74858000D01*
X162066285Y-74905619D01*
X162113904Y-75000857D01*
X162161523Y-75191333D01*
X162161523Y-75429428D01*
X162113904Y-75619904D01*
X162066285Y-75715142D01*
X162018666Y-75762761D01*
X161923428Y-75810380D01*
X161828190Y-75810380D01*
X161732952Y-75762761D01*
X161685333Y-75715142D01*
X161637714Y-75619904D01*
X161590095Y-75429428D01*
X161590095Y-75191333D01*
X161637714Y-75000857D01*
X161685333Y-74905619D01*
X161732952Y-74858000D01*
X161828190Y-74810380D01*
X162780571Y-74810380D02*
X162875809Y-74810380D01*
X162971047Y-74858000D01*
X163018666Y-74905619D01*
X163066285Y-75000857D01*
X163113904Y-75191333D01*
X163113904Y-75429428D01*
X163066285Y-75619904D01*
X163018666Y-75715142D01*
X162971047Y-75762761D01*
X162875809Y-75810380D01*
X162780571Y-75810380D01*
X162685333Y-75762761D01*
X162637714Y-75715142D01*
X162590095Y-75619904D01*
X162542476Y-75429428D01*
X162542476Y-75191333D01*
X162590095Y-75000857D01*
X162637714Y-74905619D01*
X162685333Y-74858000D01*
X162780571Y-74810380D01*
X163542476Y-75810380D02*
X163542476Y-74810380D01*
X163971047Y-75810380D02*
X163971047Y-75286571D01*
X163923428Y-75191333D01*
X163828190Y-75143714D01*
X163685333Y-75143714D01*
X163590095Y-75191333D01*
X163542476Y-75238952D01*
X155637714Y-76420380D02*
X156256761Y-76420380D01*
X155923428Y-76801333D01*
X156066285Y-76801333D01*
X156161523Y-76848952D01*
X156209142Y-76896571D01*
X156256761Y-76991809D01*
X156256761Y-77229904D01*
X156209142Y-77325142D01*
X156161523Y-77372761D01*
X156066285Y-77420380D01*
X155780571Y-77420380D01*
X155685333Y-77372761D01*
X155637714Y-77325142D01*
X156685333Y-77039428D02*
X157447238Y-77039428D01*
X158352000Y-76753714D02*
X158352000Y-77420380D01*
X158113904Y-76372761D02*
X157875809Y-77087047D01*
X158494857Y-77087047D01*
X160399619Y-77039428D02*
X161161523Y-77039428D01*
X160780571Y-77420380D02*
X160780571Y-76658476D01*
X161590095Y-76515619D02*
X161637714Y-76468000D01*
X161732952Y-76420380D01*
X161971047Y-76420380D01*
X162066285Y-76468000D01*
X162113904Y-76515619D01*
X162161523Y-76610857D01*
X162161523Y-76706095D01*
X162113904Y-76848952D01*
X161542476Y-77420380D01*
X162161523Y-77420380D01*
X162780571Y-76420380D02*
X162875809Y-76420380D01*
X162971047Y-76468000D01*
X163018666Y-76515619D01*
X163066285Y-76610857D01*
X163113904Y-76801333D01*
X163113904Y-77039428D01*
X163066285Y-77229904D01*
X163018666Y-77325142D01*
X162971047Y-77372761D01*
X162875809Y-77420380D01*
X162780571Y-77420380D01*
X162685333Y-77372761D01*
X162637714Y-77325142D01*
X162590095Y-77229904D01*
X162542476Y-77039428D01*
X162542476Y-76801333D01*
X162590095Y-76610857D01*
X162637714Y-76515619D01*
X162685333Y-76468000D01*
X162780571Y-76420380D01*
X163542476Y-77420380D02*
X163542476Y-76420380D01*
X163971047Y-77420380D02*
X163971047Y-76896571D01*
X163923428Y-76801333D01*
X163828190Y-76753714D01*
X163685333Y-76753714D01*
X163590095Y-76801333D01*
X163542476Y-76848952D01*
X156209142Y-78030380D02*
X155732952Y-78030380D01*
X155685333Y-78506571D01*
X155732952Y-78458952D01*
X155828190Y-78411333D01*
X156066285Y-78411333D01*
X156161523Y-78458952D01*
X156209142Y-78506571D01*
X156256761Y-78601809D01*
X156256761Y-78839904D01*
X156209142Y-78935142D01*
X156161523Y-78982761D01*
X156066285Y-79030380D01*
X155828190Y-79030380D01*
X155732952Y-78982761D01*
X155685333Y-78935142D01*
X156685333Y-78649428D02*
X157447238Y-78649428D01*
X158352000Y-78030380D02*
X158161523Y-78030380D01*
X158066285Y-78078000D01*
X158018666Y-78125619D01*
X157923428Y-78268476D01*
X157875809Y-78458952D01*
X157875809Y-78839904D01*
X157923428Y-78935142D01*
X157971047Y-78982761D01*
X158066285Y-79030380D01*
X158256761Y-79030380D01*
X158352000Y-78982761D01*
X158399619Y-78935142D01*
X158447238Y-78839904D01*
X158447238Y-78601809D01*
X158399619Y-78506571D01*
X158352000Y-78458952D01*
X158256761Y-78411333D01*
X158066285Y-78411333D01*
X157971047Y-78458952D01*
X157923428Y-78506571D01*
X157875809Y-78601809D01*
X160399619Y-78649428D02*
X161161523Y-78649428D01*
X160780571Y-79030380D02*
X160780571Y-78268476D01*
X162066285Y-78363714D02*
X162066285Y-79030380D01*
X161828190Y-77982761D02*
X161590095Y-78697047D01*
X162209142Y-78697047D01*
X162780571Y-78030380D02*
X162875809Y-78030380D01*
X162971047Y-78078000D01*
X163018666Y-78125619D01*
X163066285Y-78220857D01*
X163113904Y-78411333D01*
X163113904Y-78649428D01*
X163066285Y-78839904D01*
X163018666Y-78935142D01*
X162971047Y-78982761D01*
X162875809Y-79030380D01*
X162780571Y-79030380D01*
X162685333Y-78982761D01*
X162637714Y-78935142D01*
X162590095Y-78839904D01*
X162542476Y-78649428D01*
X162542476Y-78411333D01*
X162590095Y-78220857D01*
X162637714Y-78125619D01*
X162685333Y-78078000D01*
X162780571Y-78030380D01*
X163542476Y-79030380D02*
X163542476Y-78030380D01*
X163971047Y-79030380D02*
X163971047Y-78506571D01*
X163923428Y-78411333D01*
X163828190Y-78363714D01*
X163685333Y-78363714D01*
X163590095Y-78411333D01*
X163542476Y-78458952D01*
X155637714Y-79640380D02*
X156304380Y-79640380D01*
X155875809Y-80640380D01*
X156685333Y-80259428D02*
X157447238Y-80259428D01*
X158066285Y-80068952D02*
X157971047Y-80021333D01*
X157923428Y-79973714D01*
X157875809Y-79878476D01*
X157875809Y-79830857D01*
X157923428Y-79735619D01*
X157971047Y-79688000D01*
X158066285Y-79640380D01*
X158256761Y-79640380D01*
X158352000Y-79688000D01*
X158399619Y-79735619D01*
X158447238Y-79830857D01*
X158447238Y-79878476D01*
X158399619Y-79973714D01*
X158352000Y-80021333D01*
X158256761Y-80068952D01*
X158066285Y-80068952D01*
X157971047Y-80116571D01*
X157923428Y-80164190D01*
X157875809Y-80259428D01*
X157875809Y-80449904D01*
X157923428Y-80545142D01*
X157971047Y-80592761D01*
X158066285Y-80640380D01*
X158256761Y-80640380D01*
X158352000Y-80592761D01*
X158399619Y-80545142D01*
X158447238Y-80449904D01*
X158447238Y-80259428D01*
X158399619Y-80164190D01*
X158352000Y-80116571D01*
X158256761Y-80068952D01*
X160399619Y-80259428D02*
X161161523Y-80259428D01*
X160780571Y-80640380D02*
X160780571Y-79878476D01*
X162066285Y-79640380D02*
X161875809Y-79640380D01*
X161780571Y-79688000D01*
X161732952Y-79735619D01*
X161637714Y-79878476D01*
X161590095Y-80068952D01*
X161590095Y-80449904D01*
X161637714Y-80545142D01*
X161685333Y-80592761D01*
X161780571Y-80640380D01*
X161971047Y-80640380D01*
X162066285Y-80592761D01*
X162113904Y-80545142D01*
X162161523Y-80449904D01*
X162161523Y-80211809D01*
X162113904Y-80116571D01*
X162066285Y-80068952D01*
X161971047Y-80021333D01*
X161780571Y-80021333D01*
X161685333Y-80068952D01*
X161637714Y-80116571D01*
X161590095Y-80211809D01*
X162780571Y-79640380D02*
X162875809Y-79640380D01*
X162971047Y-79688000D01*
X163018666Y-79735619D01*
X163066285Y-79830857D01*
X163113904Y-80021333D01*
X163113904Y-80259428D01*
X163066285Y-80449904D01*
X163018666Y-80545142D01*
X162971047Y-80592761D01*
X162875809Y-80640380D01*
X162780571Y-80640380D01*
X162685333Y-80592761D01*
X162637714Y-80545142D01*
X162590095Y-80449904D01*
X162542476Y-80259428D01*
X162542476Y-80021333D01*
X162590095Y-79830857D01*
X162637714Y-79735619D01*
X162685333Y-79688000D01*
X162780571Y-79640380D01*
X163542476Y-80640380D02*
X163542476Y-79640380D01*
X163971047Y-80640380D02*
X163971047Y-80116571D01*
X163923428Y-80021333D01*
X163828190Y-79973714D01*
X163685333Y-79973714D01*
X163590095Y-80021333D01*
X163542476Y-80068952D01*
X101583333Y-65607142D02*
X101535714Y-65654761D01*
X101392857Y-65702380D01*
X101297619Y-65702380D01*
X101154761Y-65654761D01*
X101059523Y-65559523D01*
X101011904Y-65464285D01*
X100964285Y-65273809D01*
X100964285Y-65130952D01*
X101011904Y-64940476D01*
X101059523Y-64845238D01*
X101154761Y-64750000D01*
X101297619Y-64702380D01*
X101392857Y-64702380D01*
X101535714Y-64750000D01*
X101583333Y-64797619D01*
X102535714Y-65702380D02*
X101964285Y-65702380D01*
X102250000Y-65702380D02*
X102250000Y-64702380D01*
X102154761Y-64845238D01*
X102059523Y-64940476D01*
X101964285Y-64988095D01*
X107441333Y-91275142D02*
X107393714Y-91322761D01*
X107250857Y-91370380D01*
X107155619Y-91370380D01*
X107012761Y-91322761D01*
X106917523Y-91227523D01*
X106869904Y-91132285D01*
X106822285Y-90941809D01*
X106822285Y-90798952D01*
X106869904Y-90608476D01*
X106917523Y-90513238D01*
X107012761Y-90418000D01*
X107155619Y-90370380D01*
X107250857Y-90370380D01*
X107393714Y-90418000D01*
X107441333Y-90465619D01*
X107822285Y-90465619D02*
X107869904Y-90418000D01*
X107965142Y-90370380D01*
X108203238Y-90370380D01*
X108298476Y-90418000D01*
X108346095Y-90465619D01*
X108393714Y-90560857D01*
X108393714Y-90656095D01*
X108346095Y-90798952D01*
X107774666Y-91370380D01*
X108393714Y-91370380D01*
X99941333Y-91143142D02*
X99893714Y-91190761D01*
X99750857Y-91238380D01*
X99655619Y-91238380D01*
X99512761Y-91190761D01*
X99417523Y-91095523D01*
X99369904Y-91000285D01*
X99322285Y-90809809D01*
X99322285Y-90666952D01*
X99369904Y-90476476D01*
X99417523Y-90381238D01*
X99512761Y-90286000D01*
X99655619Y-90238380D01*
X99750857Y-90238380D01*
X99893714Y-90286000D01*
X99941333Y-90333619D01*
X100274666Y-90238380D02*
X100893714Y-90238380D01*
X100560380Y-90619333D01*
X100703238Y-90619333D01*
X100798476Y-90666952D01*
X100846095Y-90714571D01*
X100893714Y-90809809D01*
X100893714Y-91047904D01*
X100846095Y-91143142D01*
X100798476Y-91190761D01*
X100703238Y-91238380D01*
X100417523Y-91238380D01*
X100322285Y-91190761D01*
X100274666Y-91143142D01*
X131457333Y-105541142D02*
X131409714Y-105588761D01*
X131266857Y-105636380D01*
X131171619Y-105636380D01*
X131028761Y-105588761D01*
X130933523Y-105493523D01*
X130885904Y-105398285D01*
X130838285Y-105207809D01*
X130838285Y-105064952D01*
X130885904Y-104874476D01*
X130933523Y-104779238D01*
X131028761Y-104684000D01*
X131171619Y-104636380D01*
X131266857Y-104636380D01*
X131409714Y-104684000D01*
X131457333Y-104731619D01*
X132314476Y-104969714D02*
X132314476Y-105636380D01*
X132076380Y-104588761D02*
X131838285Y-105303047D01*
X132457333Y-105303047D01*
X147535333Y-70421142D02*
X147487714Y-70468761D01*
X147344857Y-70516380D01*
X147249619Y-70516380D01*
X147106761Y-70468761D01*
X147011523Y-70373523D01*
X146963904Y-70278285D01*
X146916285Y-70087809D01*
X146916285Y-69944952D01*
X146963904Y-69754476D01*
X147011523Y-69659238D01*
X147106761Y-69564000D01*
X147249619Y-69516380D01*
X147344857Y-69516380D01*
X147487714Y-69564000D01*
X147535333Y-69611619D01*
X148440095Y-69516380D02*
X147963904Y-69516380D01*
X147916285Y-69992571D01*
X147963904Y-69944952D01*
X148059142Y-69897333D01*
X148297238Y-69897333D01*
X148392476Y-69944952D01*
X148440095Y-69992571D01*
X148487714Y-70087809D01*
X148487714Y-70325904D01*
X148440095Y-70421142D01*
X148392476Y-70468761D01*
X148297238Y-70516380D01*
X148059142Y-70516380D01*
X147963904Y-70468761D01*
X147916285Y-70421142D01*
X135861333Y-70521142D02*
X135813714Y-70568761D01*
X135670857Y-70616380D01*
X135575619Y-70616380D01*
X135432761Y-70568761D01*
X135337523Y-70473523D01*
X135289904Y-70378285D01*
X135242285Y-70187809D01*
X135242285Y-70044952D01*
X135289904Y-69854476D01*
X135337523Y-69759238D01*
X135432761Y-69664000D01*
X135575619Y-69616380D01*
X135670857Y-69616380D01*
X135813714Y-69664000D01*
X135861333Y-69711619D01*
X136718476Y-69616380D02*
X136528000Y-69616380D01*
X136432761Y-69664000D01*
X136385142Y-69711619D01*
X136289904Y-69854476D01*
X136242285Y-70044952D01*
X136242285Y-70425904D01*
X136289904Y-70521142D01*
X136337523Y-70568761D01*
X136432761Y-70616380D01*
X136623238Y-70616380D01*
X136718476Y-70568761D01*
X136766095Y-70521142D01*
X136813714Y-70425904D01*
X136813714Y-70187809D01*
X136766095Y-70092571D01*
X136718476Y-70044952D01*
X136623238Y-69997333D01*
X136432761Y-69997333D01*
X136337523Y-70044952D01*
X136289904Y-70092571D01*
X136242285Y-70187809D01*
X152261904Y-125452380D02*
X152261904Y-124452380D01*
X152500000Y-124452380D01*
X152642857Y-124500000D01*
X152738095Y-124595238D01*
X152785714Y-124690476D01*
X152833333Y-124880952D01*
X152833333Y-125023809D01*
X152785714Y-125214285D01*
X152738095Y-125309523D01*
X152642857Y-125404761D01*
X152500000Y-125452380D01*
X152261904Y-125452380D01*
X153785714Y-125452380D02*
X153214285Y-125452380D01*
X153500000Y-125452380D02*
X153500000Y-124452380D01*
X153404761Y-124595238D01*
X153309523Y-124690476D01*
X153214285Y-124738095D01*
X161261904Y-125452380D02*
X161261904Y-124452380D01*
X161500000Y-124452380D01*
X161642857Y-124500000D01*
X161738095Y-124595238D01*
X161785714Y-124690476D01*
X161833333Y-124880952D01*
X161833333Y-125023809D01*
X161785714Y-125214285D01*
X161738095Y-125309523D01*
X161642857Y-125404761D01*
X161500000Y-125452380D01*
X161261904Y-125452380D01*
X162214285Y-124547619D02*
X162261904Y-124500000D01*
X162357142Y-124452380D01*
X162595238Y-124452380D01*
X162690476Y-124500000D01*
X162738095Y-124547619D01*
X162785714Y-124642857D01*
X162785714Y-124738095D01*
X162738095Y-124880952D01*
X162166666Y-125452380D01*
X162785714Y-125452380D01*
X116682380Y-61178333D02*
X117396666Y-61178333D01*
X117539523Y-61225952D01*
X117634761Y-61321190D01*
X117682380Y-61464047D01*
X117682380Y-61559285D01*
X117682380Y-60178333D02*
X117682380Y-60749761D01*
X117682380Y-60464047D02*
X116682380Y-60464047D01*
X116825238Y-60559285D01*
X116920476Y-60654523D01*
X116968095Y-60749761D01*
X96497666Y-86845380D02*
X96497666Y-87559666D01*
X96450047Y-87702523D01*
X96354809Y-87797761D01*
X96211952Y-87845380D01*
X96116714Y-87845380D01*
X96926238Y-86940619D02*
X96973857Y-86893000D01*
X97069095Y-86845380D01*
X97307190Y-86845380D01*
X97402428Y-86893000D01*
X97450047Y-86940619D01*
X97497666Y-87035857D01*
X97497666Y-87131095D01*
X97450047Y-87273952D01*
X96878619Y-87845380D01*
X97497666Y-87845380D01*
D13*
X104254666Y-112397523D02*
X104254666Y-113304666D01*
X104194190Y-113486095D01*
X104073238Y-113607047D01*
X103891809Y-113667523D01*
X103770857Y-113667523D01*
X104738476Y-112397523D02*
X105524666Y-112397523D01*
X105101333Y-112881333D01*
X105282761Y-112881333D01*
X105403714Y-112941809D01*
X105464190Y-113002285D01*
X105524666Y-113123238D01*
X105524666Y-113425619D01*
X105464190Y-113546571D01*
X105403714Y-113607047D01*
X105282761Y-113667523D01*
X104919904Y-113667523D01*
X104798952Y-113607047D01*
X104738476Y-113546571D01*
D12*
X179166666Y-76952380D02*
X179166666Y-77666666D01*
X179119047Y-77809523D01*
X179023809Y-77904761D01*
X178880952Y-77952380D01*
X178785714Y-77952380D01*
X180071428Y-77285714D02*
X180071428Y-77952380D01*
X179833333Y-76904761D02*
X179595238Y-77619047D01*
X180214285Y-77619047D01*
X187419666Y-62378380D02*
X187419666Y-63092666D01*
X187372047Y-63235523D01*
X187276809Y-63330761D01*
X187133952Y-63378380D01*
X187038714Y-63378380D01*
X188372047Y-62378380D02*
X187895857Y-62378380D01*
X187848238Y-62854571D01*
X187895857Y-62806952D01*
X187991095Y-62759333D01*
X188229190Y-62759333D01*
X188324428Y-62806952D01*
X188372047Y-62854571D01*
X188419666Y-62949809D01*
X188419666Y-63187904D01*
X188372047Y-63283142D01*
X188324428Y-63330761D01*
X188229190Y-63378380D01*
X187991095Y-63378380D01*
X187895857Y-63330761D01*
X187848238Y-63283142D01*
X180819666Y-62378380D02*
X180819666Y-63092666D01*
X180772047Y-63235523D01*
X180676809Y-63330761D01*
X180533952Y-63378380D01*
X180438714Y-63378380D01*
X181724428Y-62378380D02*
X181533952Y-62378380D01*
X181438714Y-62426000D01*
X181391095Y-62473619D01*
X181295857Y-62616476D01*
X181248238Y-62806952D01*
X181248238Y-63187904D01*
X181295857Y-63283142D01*
X181343476Y-63330761D01*
X181438714Y-63378380D01*
X181629190Y-63378380D01*
X181724428Y-63330761D01*
X181772047Y-63283142D01*
X181819666Y-63187904D01*
X181819666Y-62949809D01*
X181772047Y-62854571D01*
X181724428Y-62806952D01*
X181629190Y-62759333D01*
X181438714Y-62759333D01*
X181343476Y-62806952D01*
X181295857Y-62854571D01*
X181248238Y-62949809D01*
X175492666Y-83106380D02*
X175492666Y-83820666D01*
X175445047Y-83963523D01*
X175349809Y-84058761D01*
X175206952Y-84106380D01*
X175111714Y-84106380D01*
X175968857Y-84106380D02*
X175968857Y-83106380D01*
X176349809Y-83106380D01*
X176445047Y-83154000D01*
X176492666Y-83201619D01*
X176540285Y-83296857D01*
X176540285Y-83439714D01*
X176492666Y-83534952D01*
X176445047Y-83582571D01*
X176349809Y-83630190D01*
X175968857Y-83630190D01*
X177492666Y-84106380D02*
X176921238Y-84106380D01*
X177206952Y-84106380D02*
X177206952Y-83106380D01*
X177111714Y-83249238D01*
X177016476Y-83344476D01*
X176921238Y-83392095D01*
X139663333Y-123452380D02*
X139330000Y-122976190D01*
X139091904Y-123452380D02*
X139091904Y-122452380D01*
X139472857Y-122452380D01*
X139568095Y-122500000D01*
X139615714Y-122547619D01*
X139663333Y-122642857D01*
X139663333Y-122785714D01*
X139615714Y-122880952D01*
X139568095Y-122928571D01*
X139472857Y-122976190D01*
X139091904Y-122976190D01*
X140615714Y-123452380D02*
X140044285Y-123452380D01*
X140330000Y-123452380D02*
X140330000Y-122452380D01*
X140234761Y-122595238D01*
X140139523Y-122690476D01*
X140044285Y-122738095D01*
X139833333Y-126952380D02*
X139500000Y-126476190D01*
X139261904Y-126952380D02*
X139261904Y-125952380D01*
X139642857Y-125952380D01*
X139738095Y-126000000D01*
X139785714Y-126047619D01*
X139833333Y-126142857D01*
X139833333Y-126285714D01*
X139785714Y-126380952D01*
X139738095Y-126428571D01*
X139642857Y-126476190D01*
X139261904Y-126476190D01*
X140214285Y-126047619D02*
X140261904Y-126000000D01*
X140357142Y-125952380D01*
X140595238Y-125952380D01*
X140690476Y-126000000D01*
X140738095Y-126047619D01*
X140785714Y-126142857D01*
X140785714Y-126238095D01*
X140738095Y-126380952D01*
X140166666Y-126952380D01*
X140785714Y-126952380D01*
X103691333Y-99988380D02*
X103358000Y-99512190D01*
X103119904Y-99988380D02*
X103119904Y-98988380D01*
X103500857Y-98988380D01*
X103596095Y-99036000D01*
X103643714Y-99083619D01*
X103691333Y-99178857D01*
X103691333Y-99321714D01*
X103643714Y-99416952D01*
X103596095Y-99464571D01*
X103500857Y-99512190D01*
X103119904Y-99512190D01*
X104024666Y-98988380D02*
X104643714Y-98988380D01*
X104310380Y-99369333D01*
X104453238Y-99369333D01*
X104548476Y-99416952D01*
X104596095Y-99464571D01*
X104643714Y-99559809D01*
X104643714Y-99797904D01*
X104596095Y-99893142D01*
X104548476Y-99940761D01*
X104453238Y-99988380D01*
X104167523Y-99988380D01*
X104072285Y-99940761D01*
X104024666Y-99893142D01*
X103691333Y-103238380D02*
X103358000Y-102762190D01*
X103119904Y-103238380D02*
X103119904Y-102238380D01*
X103500857Y-102238380D01*
X103596095Y-102286000D01*
X103643714Y-102333619D01*
X103691333Y-102428857D01*
X103691333Y-102571714D01*
X103643714Y-102666952D01*
X103596095Y-102714571D01*
X103500857Y-102762190D01*
X103119904Y-102762190D01*
X104548476Y-102571714D02*
X104548476Y-103238380D01*
X104310380Y-102190761D02*
X104072285Y-102905047D01*
X104691333Y-102905047D01*
X103691333Y-96738380D02*
X103358000Y-96262190D01*
X103119904Y-96738380D02*
X103119904Y-95738380D01*
X103500857Y-95738380D01*
X103596095Y-95786000D01*
X103643714Y-95833619D01*
X103691333Y-95928857D01*
X103691333Y-96071714D01*
X103643714Y-96166952D01*
X103596095Y-96214571D01*
X103500857Y-96262190D01*
X103119904Y-96262190D01*
X104596095Y-95738380D02*
X104119904Y-95738380D01*
X104072285Y-96214571D01*
X104119904Y-96166952D01*
X104215142Y-96119333D01*
X104453238Y-96119333D01*
X104548476Y-96166952D01*
X104596095Y-96214571D01*
X104643714Y-96309809D01*
X104643714Y-96547904D01*
X104596095Y-96643142D01*
X104548476Y-96690761D01*
X104453238Y-96738380D01*
X104215142Y-96738380D01*
X104119904Y-96690761D01*
X104072285Y-96643142D01*
X176484761Y-125583333D02*
X176532380Y-125440476D01*
X176532380Y-125202380D01*
X176484761Y-125107142D01*
X176437142Y-125059523D01*
X176341904Y-125011904D01*
X176246666Y-125011904D01*
X176151428Y-125059523D01*
X176103809Y-125107142D01*
X176056190Y-125202380D01*
X176008571Y-125392857D01*
X175960952Y-125488095D01*
X175913333Y-125535714D01*
X175818095Y-125583333D01*
X175722857Y-125583333D01*
X175627619Y-125535714D01*
X175580000Y-125488095D01*
X175532380Y-125392857D01*
X175532380Y-125154761D01*
X175580000Y-125011904D01*
X175532380Y-124678571D02*
X176532380Y-124440476D01*
X175818095Y-124250000D01*
X176532380Y-124059523D01*
X175532380Y-123821428D01*
X176532380Y-122916666D02*
X176532380Y-123488095D01*
X176532380Y-123202380D02*
X175532380Y-123202380D01*
X175675238Y-123297619D01*
X175770476Y-123392857D01*
X175818095Y-123488095D01*
X144838095Y-105652380D02*
X144838095Y-106461904D01*
X144885714Y-106557142D01*
X144933333Y-106604761D01*
X145028571Y-106652380D01*
X145219047Y-106652380D01*
X145314285Y-106604761D01*
X145361904Y-106557142D01*
X145409523Y-106461904D01*
X145409523Y-105652380D01*
X146409523Y-106652380D02*
X145838095Y-106652380D01*
X146123809Y-106652380D02*
X146123809Y-105652380D01*
X146028571Y-105795238D01*
X145933333Y-105890476D01*
X145838095Y-105938095D01*
X158798155Y-120263841D02*
X158825093Y-120344653D01*
X158905905Y-120425465D01*
X159013654Y-120479340D01*
X159121404Y-120479340D01*
X159202216Y-120452402D01*
X159336903Y-120371590D01*
X159417715Y-120290778D01*
X159498528Y-120156091D01*
X159525465Y-120075279D01*
X159525465Y-119967529D01*
X159471590Y-119859780D01*
X159417715Y-119805905D01*
X159309966Y-119752030D01*
X159256091Y-119752030D01*
X159067529Y-119940592D01*
X159175279Y-120048341D01*
X159067529Y-119455719D02*
X158501844Y-120021404D01*
X158744280Y-119132470D01*
X158178595Y-119698155D01*
X158474906Y-118863096D02*
X157909221Y-119428781D01*
X157774534Y-119294094D01*
X157720659Y-119186345D01*
X157720659Y-119078595D01*
X157747597Y-118997783D01*
X157828409Y-118863096D01*
X157909221Y-118782284D01*
X158043908Y-118701471D01*
X158124720Y-118674534D01*
X158232470Y-118674534D01*
X158340219Y-118728409D01*
X158474906Y-118863096D01*
X156490592Y-120760277D02*
X156517529Y-120841089D01*
X156598341Y-120921902D01*
X156706091Y-120975776D01*
X156813841Y-120975776D01*
X156894653Y-120948839D01*
X157029340Y-120868027D01*
X157110152Y-120787215D01*
X157190964Y-120652528D01*
X157217902Y-120571715D01*
X157217902Y-120463966D01*
X157164027Y-120356216D01*
X157110152Y-120302341D01*
X157002402Y-120248467D01*
X156948528Y-120248467D01*
X156759966Y-120437028D01*
X156867715Y-120544778D01*
X156759966Y-119952155D02*
X156194280Y-120517841D01*
X155978781Y-120302341D01*
X155951844Y-120221529D01*
X155951844Y-120167654D01*
X155978781Y-120086842D01*
X156059593Y-120006030D01*
X156140406Y-119979093D01*
X156194280Y-119979093D01*
X156275093Y-120006030D01*
X156490592Y-120221529D01*
X155709407Y-119925218D02*
X155655532Y-119925218D01*
X155574720Y-119898280D01*
X155440033Y-119763593D01*
X155413096Y-119682781D01*
X155413096Y-119628906D01*
X155440033Y-119548094D01*
X155493908Y-119494219D01*
X155601658Y-119440345D01*
X156248155Y-119440345D01*
X155897969Y-119090158D01*
X155359221Y-118551410D02*
X155682470Y-118874659D01*
X155520845Y-118713035D02*
X154955160Y-119278720D01*
X155089847Y-119251783D01*
X155197597Y-119251783D01*
X155278409Y-119278720D01*
X150902592Y-94506277D02*
X150929529Y-94587089D01*
X151010341Y-94667902D01*
X151118091Y-94721776D01*
X151225841Y-94721776D01*
X151306653Y-94694839D01*
X151441340Y-94614027D01*
X151522152Y-94533215D01*
X151602964Y-94398528D01*
X151629902Y-94317715D01*
X151629902Y-94209966D01*
X151576027Y-94102216D01*
X151522152Y-94048341D01*
X151414402Y-93994467D01*
X151360528Y-93994467D01*
X151171966Y-94183028D01*
X151279715Y-94290778D01*
X151171966Y-93698155D02*
X150606280Y-94263841D01*
X150390781Y-94048341D01*
X150363844Y-93967529D01*
X150363844Y-93913654D01*
X150390781Y-93832842D01*
X150471593Y-93752030D01*
X150552406Y-93725093D01*
X150606280Y-93725093D01*
X150687093Y-93752030D01*
X150902592Y-93967529D01*
X150309969Y-92836158D02*
X150633218Y-93159407D01*
X150471593Y-92997783D02*
X149905908Y-93563468D01*
X150040595Y-93536531D01*
X150148345Y-93536531D01*
X150229157Y-93563468D01*
X149582659Y-93132470D02*
X149528784Y-93132470D01*
X149447972Y-93105532D01*
X149313285Y-92970845D01*
X149286348Y-92890033D01*
X149286348Y-92836158D01*
X149313285Y-92755346D01*
X149367160Y-92701471D01*
X149474910Y-92647597D01*
X150121407Y-92647597D01*
X149771221Y-92297410D01*
X184198155Y-94663841D02*
X184225093Y-94744653D01*
X184305905Y-94825465D01*
X184413654Y-94879340D01*
X184521404Y-94879340D01*
X184602216Y-94852402D01*
X184736903Y-94771590D01*
X184817715Y-94690778D01*
X184898528Y-94556091D01*
X184925465Y-94475279D01*
X184925465Y-94367529D01*
X184871590Y-94259780D01*
X184817715Y-94205905D01*
X184709966Y-94152030D01*
X184656091Y-94152030D01*
X184467529Y-94340592D01*
X184575279Y-94448341D01*
X184467529Y-93855719D02*
X183901844Y-94421404D01*
X184144280Y-93532470D01*
X183578595Y-94098155D01*
X183874906Y-93263096D02*
X183309221Y-93828781D01*
X183174534Y-93694094D01*
X183120659Y-93586345D01*
X183120659Y-93478595D01*
X183147597Y-93397783D01*
X183228409Y-93263096D01*
X183309221Y-93182284D01*
X183443908Y-93101471D01*
X183524720Y-93074534D01*
X183632470Y-93074534D01*
X183740219Y-93128409D01*
X183874906Y-93263096D01*
X179091218Y-94636903D02*
X179118155Y-94717715D01*
X179198967Y-94798528D01*
X179306717Y-94852402D01*
X179414467Y-94852402D01*
X179495279Y-94825465D01*
X179629966Y-94744653D01*
X179710778Y-94663841D01*
X179791590Y-94529154D01*
X179818528Y-94448341D01*
X179818528Y-94340592D01*
X179764653Y-94232842D01*
X179710778Y-94178967D01*
X179603028Y-94125093D01*
X179549154Y-94125093D01*
X179360592Y-94313654D01*
X179468341Y-94421404D01*
X179360592Y-93828781D02*
X178794906Y-94394467D01*
X178579407Y-94178967D01*
X178552470Y-94098155D01*
X178552470Y-94044280D01*
X178579407Y-93963468D01*
X178660219Y-93882656D01*
X178741032Y-93855719D01*
X178794906Y-93855719D01*
X178875719Y-93882656D01*
X179091218Y-94098155D01*
X178283096Y-93882656D02*
X177932910Y-93532470D01*
X178336971Y-93505532D01*
X178256158Y-93424720D01*
X178229221Y-93343908D01*
X178229221Y-93290033D01*
X178256158Y-93209221D01*
X178390845Y-93074534D01*
X178471658Y-93047597D01*
X178525532Y-93047597D01*
X178606345Y-93074534D01*
X178767969Y-93236158D01*
X178794906Y-93316971D01*
X178794906Y-93370845D01*
X145580155Y-94663841D02*
X145607093Y-94744653D01*
X145687905Y-94825465D01*
X145795654Y-94879340D01*
X145903404Y-94879340D01*
X145984216Y-94852402D01*
X146118903Y-94771590D01*
X146199715Y-94690778D01*
X146280528Y-94556091D01*
X146307465Y-94475279D01*
X146307465Y-94367529D01*
X146253590Y-94259780D01*
X146199715Y-94205905D01*
X146091966Y-94152030D01*
X146038091Y-94152030D01*
X145849529Y-94340592D01*
X145957279Y-94448341D01*
X145849529Y-93855719D02*
X145283844Y-94421404D01*
X145526280Y-93532470D01*
X144960595Y-94098155D01*
X145256906Y-93263096D02*
X144691221Y-93828781D01*
X144556534Y-93694094D01*
X144502659Y-93586345D01*
X144502659Y-93478595D01*
X144529597Y-93397783D01*
X144610409Y-93263096D01*
X144691221Y-93182284D01*
X144825908Y-93101471D01*
X144906720Y-93074534D01*
X145014470Y-93074534D01*
X145122219Y-93128409D01*
X145256906Y-93263096D01*
X141260592Y-120760277D02*
X141287529Y-120841089D01*
X141368341Y-120921902D01*
X141476091Y-120975776D01*
X141583841Y-120975776D01*
X141664653Y-120948839D01*
X141799340Y-120868027D01*
X141880152Y-120787215D01*
X141960964Y-120652528D01*
X141987902Y-120571715D01*
X141987902Y-120463966D01*
X141934027Y-120356216D01*
X141880152Y-120302341D01*
X141772402Y-120248467D01*
X141718528Y-120248467D01*
X141529966Y-120437028D01*
X141637715Y-120544778D01*
X141529966Y-119952155D02*
X140964280Y-120517841D01*
X140748781Y-120302341D01*
X140721844Y-120221529D01*
X140721844Y-120167654D01*
X140748781Y-120086842D01*
X140829593Y-120006030D01*
X140910406Y-119979093D01*
X140964280Y-119979093D01*
X141045093Y-120006030D01*
X141260592Y-120221529D01*
X140667969Y-119090158D02*
X140991218Y-119413407D01*
X140829593Y-119251783D02*
X140263908Y-119817468D01*
X140398595Y-119790531D01*
X140506345Y-119790531D01*
X140587157Y-119817468D01*
X139617410Y-119170971D02*
X139725160Y-119278720D01*
X139805972Y-119305658D01*
X139859847Y-119305658D01*
X139994534Y-119278720D01*
X140129221Y-119197908D01*
X140344720Y-118982409D01*
X140371658Y-118901597D01*
X140371658Y-118847722D01*
X140344720Y-118766910D01*
X140236971Y-118659160D01*
X140156158Y-118632223D01*
X140102284Y-118632223D01*
X140021471Y-118659160D01*
X139886784Y-118793847D01*
X139859847Y-118874659D01*
X139859847Y-118928534D01*
X139886784Y-119009346D01*
X139994534Y-119117096D01*
X140075346Y-119144033D01*
X140129221Y-119144033D01*
X140210033Y-119117096D01*
X183358308Y-122227868D02*
X183008122Y-121877682D01*
X183412183Y-121850744D01*
X183331370Y-121769932D01*
X183304433Y-121689120D01*
X183304433Y-121635245D01*
X183331370Y-121554433D01*
X183466057Y-121419746D01*
X183546870Y-121392809D01*
X183600744Y-121392809D01*
X183681557Y-121419746D01*
X183843181Y-121581370D01*
X183870118Y-121662183D01*
X183870118Y-121716057D01*
X182846497Y-121716057D02*
X183223621Y-120961810D01*
X182469374Y-121338934D01*
X182334687Y-121204247D02*
X181984500Y-120854061D01*
X182388561Y-120827123D01*
X182307749Y-120746311D01*
X182280812Y-120665499D01*
X182280812Y-120611624D01*
X182307749Y-120530812D01*
X182442436Y-120396125D01*
X182523248Y-120369187D01*
X182577123Y-120369187D01*
X182657935Y-120396125D01*
X182819560Y-120557749D01*
X182846497Y-120638561D01*
X182846497Y-120692436D01*
X182496311Y-120126751D02*
X182065312Y-119695752D01*
X181580439Y-119911251D02*
X181391877Y-119722690D01*
X181607377Y-119345566D02*
X181876751Y-119614940D01*
X181311065Y-120180625D01*
X181041691Y-119911251D01*
X181364940Y-119103129D02*
X180799255Y-119668815D01*
X181041691Y-118779881D01*
X180476006Y-119345566D01*
X187249966Y-121229526D02*
X187627089Y-120475279D01*
X186872842Y-120852402D01*
X187249966Y-120152030D02*
X187196091Y-120044280D01*
X187061404Y-119909593D01*
X186980592Y-119882656D01*
X186926717Y-119882656D01*
X186845905Y-119909593D01*
X186792030Y-119963468D01*
X186765093Y-120044280D01*
X186765093Y-120098155D01*
X186792030Y-120178967D01*
X186872842Y-120313654D01*
X186899780Y-120394467D01*
X186899780Y-120448341D01*
X186872842Y-120529154D01*
X186818967Y-120583028D01*
X186738155Y-120609966D01*
X186684280Y-120609966D01*
X186603468Y-120583028D01*
X186468781Y-120448341D01*
X186414906Y-120340592D01*
X186334094Y-119721032D02*
X186603468Y-119451658D01*
X186226345Y-120205905D02*
X186334094Y-119721032D01*
X185849221Y-119828781D01*
X186226345Y-119128409D02*
X186172470Y-119020659D01*
X186037783Y-118885972D01*
X185956971Y-118859035D01*
X185903096Y-118859035D01*
X185822284Y-118885972D01*
X185768409Y-118939847D01*
X185741471Y-119020659D01*
X185741471Y-119074534D01*
X185768409Y-119155346D01*
X185849221Y-119290033D01*
X185876158Y-119370845D01*
X185876158Y-119424720D01*
X185849221Y-119505532D01*
X185795346Y-119559407D01*
X185714534Y-119586345D01*
X185660659Y-119586345D01*
X185579847Y-119559407D01*
X185445160Y-119424720D01*
X185391285Y-119316971D01*
X143800592Y-120760277D02*
X143827529Y-120841089D01*
X143908341Y-120921902D01*
X144016091Y-120975776D01*
X144123841Y-120975776D01*
X144204653Y-120948839D01*
X144339340Y-120868027D01*
X144420152Y-120787215D01*
X144500964Y-120652528D01*
X144527902Y-120571715D01*
X144527902Y-120463966D01*
X144474027Y-120356216D01*
X144420152Y-120302341D01*
X144312402Y-120248467D01*
X144258528Y-120248467D01*
X144069966Y-120437028D01*
X144177715Y-120544778D01*
X144069966Y-119952155D02*
X143504280Y-120517841D01*
X143288781Y-120302341D01*
X143261844Y-120221529D01*
X143261844Y-120167654D01*
X143288781Y-120086842D01*
X143369593Y-120006030D01*
X143450406Y-119979093D01*
X143504280Y-119979093D01*
X143585093Y-120006030D01*
X143800592Y-120221529D01*
X143207969Y-119090158D02*
X143531218Y-119413407D01*
X143369593Y-119251783D02*
X142803908Y-119817468D01*
X142938595Y-119790531D01*
X143046345Y-119790531D01*
X143127157Y-119817468D01*
X142453722Y-119467282D02*
X142076598Y-119090158D01*
X142884720Y-118766910D01*
X139123809Y-102859523D02*
X139161904Y-102745238D01*
X139161904Y-102554761D01*
X139123809Y-102478571D01*
X139085714Y-102440476D01*
X139009523Y-102402380D01*
X138933333Y-102402380D01*
X138857142Y-102440476D01*
X138819047Y-102478571D01*
X138780952Y-102554761D01*
X138742857Y-102707142D01*
X138704761Y-102783333D01*
X138666666Y-102821428D01*
X138590476Y-102859523D01*
X138514285Y-102859523D01*
X138438095Y-102821428D01*
X138400000Y-102783333D01*
X138361904Y-102707142D01*
X138361904Y-102516666D01*
X138400000Y-102402380D01*
X138361904Y-102135714D02*
X139161904Y-101945238D01*
X138590476Y-101792857D01*
X139161904Y-101640476D01*
X138361904Y-101450000D01*
X139085714Y-100688095D02*
X139123809Y-100726190D01*
X139161904Y-100840476D01*
X139161904Y-100916666D01*
X139123809Y-101030952D01*
X139047619Y-101107142D01*
X138971428Y-101145238D01*
X138819047Y-101183333D01*
X138704761Y-101183333D01*
X138552380Y-101145238D01*
X138476190Y-101107142D01*
X138400000Y-101030952D01*
X138361904Y-100916666D01*
X138361904Y-100840476D01*
X138400000Y-100726190D01*
X138438095Y-100688095D01*
X139161904Y-99964285D02*
X139161904Y-100345238D01*
X138361904Y-100345238D01*
X139161904Y-99697619D02*
X138361904Y-99697619D01*
X139161904Y-99240476D02*
X138704761Y-99583333D01*
X138361904Y-99240476D02*
X138819047Y-99697619D01*
X189927309Y-121396870D02*
X190304433Y-120642622D01*
X189550186Y-121019746D01*
X189442436Y-120373248D02*
X189388561Y-120265499D01*
X189388561Y-120211624D01*
X189415499Y-120130812D01*
X189496311Y-120049999D01*
X189577123Y-120023062D01*
X189630998Y-120023062D01*
X189711810Y-120049999D01*
X189927309Y-120265499D01*
X189361624Y-120831184D01*
X189173062Y-120642622D01*
X189146125Y-120561810D01*
X189146125Y-120507935D01*
X189173062Y-120427123D01*
X189226937Y-120373248D01*
X189307749Y-120346311D01*
X189361624Y-120346311D01*
X189442436Y-120373248D01*
X189630998Y-120561810D01*
X188795938Y-120265499D02*
X189253874Y-119807563D01*
X189280812Y-119726751D01*
X189280812Y-119672876D01*
X189253874Y-119592064D01*
X189146125Y-119484314D01*
X189065312Y-119457377D01*
X189011438Y-119457377D01*
X188930625Y-119484314D01*
X188472690Y-119942250D01*
X188769001Y-119161065D02*
X188715126Y-119053316D01*
X188580439Y-118918629D01*
X188499627Y-118891691D01*
X188445752Y-118891691D01*
X188364940Y-118918629D01*
X188311065Y-118972503D01*
X188284128Y-119053316D01*
X188284128Y-119107190D01*
X188311065Y-119188003D01*
X188391877Y-119322690D01*
X188418815Y-119403502D01*
X188418815Y-119457377D01*
X188391877Y-119538189D01*
X188338003Y-119592064D01*
X188257190Y-119619001D01*
X188203316Y-119619001D01*
X188122503Y-119592064D01*
X187987816Y-119457377D01*
X187933942Y-119349627D01*
X169190592Y-120760277D02*
X169217529Y-120841089D01*
X169298341Y-120921902D01*
X169406091Y-120975776D01*
X169513841Y-120975776D01*
X169594653Y-120948839D01*
X169729340Y-120868027D01*
X169810152Y-120787215D01*
X169890964Y-120652528D01*
X169917902Y-120571715D01*
X169917902Y-120463966D01*
X169864027Y-120356216D01*
X169810152Y-120302341D01*
X169702402Y-120248467D01*
X169648528Y-120248467D01*
X169459966Y-120437028D01*
X169567715Y-120544778D01*
X169459966Y-119952155D02*
X168894280Y-120517841D01*
X168678781Y-120302341D01*
X168651844Y-120221529D01*
X168651844Y-120167654D01*
X168678781Y-120086842D01*
X168759593Y-120006030D01*
X168840406Y-119979093D01*
X168894280Y-119979093D01*
X168975093Y-120006030D01*
X169190592Y-120221529D01*
X168409407Y-119925218D02*
X168355532Y-119925218D01*
X168274720Y-119898280D01*
X168140033Y-119763593D01*
X168113096Y-119682781D01*
X168113096Y-119628906D01*
X168140033Y-119548094D01*
X168193908Y-119494219D01*
X168301658Y-119440345D01*
X168948155Y-119440345D01*
X168597969Y-119090158D01*
X167843722Y-119467282D02*
X167466598Y-119090158D01*
X168274720Y-118766910D01*
X139123809Y-114045238D02*
X139161904Y-113930952D01*
X139161904Y-113740476D01*
X139123809Y-113664285D01*
X139085714Y-113626190D01*
X139009523Y-113588095D01*
X138933333Y-113588095D01*
X138857142Y-113626190D01*
X138819047Y-113664285D01*
X138780952Y-113740476D01*
X138742857Y-113892857D01*
X138704761Y-113969047D01*
X138666666Y-114007142D01*
X138590476Y-114045238D01*
X138514285Y-114045238D01*
X138438095Y-114007142D01*
X138400000Y-113969047D01*
X138361904Y-113892857D01*
X138361904Y-113702380D01*
X138400000Y-113588095D01*
X138361904Y-113321428D02*
X139161904Y-113130952D01*
X138590476Y-112978571D01*
X139161904Y-112826190D01*
X138361904Y-112635714D01*
X139161904Y-112330952D02*
X138361904Y-112330952D01*
X138361904Y-112140476D01*
X138400000Y-112026190D01*
X138476190Y-111950000D01*
X138552380Y-111911904D01*
X138704761Y-111873809D01*
X138819047Y-111873809D01*
X138971428Y-111911904D01*
X139047619Y-111950000D01*
X139123809Y-112026190D01*
X139161904Y-112140476D01*
X139161904Y-112330952D01*
X139161904Y-111530952D02*
X138361904Y-111530952D01*
X138361904Y-110997619D02*
X138361904Y-110845238D01*
X138400000Y-110769047D01*
X138476190Y-110692857D01*
X138628571Y-110654761D01*
X138895238Y-110654761D01*
X139047619Y-110692857D01*
X139123809Y-110769047D01*
X139161904Y-110845238D01*
X139161904Y-110997619D01*
X139123809Y-111073809D01*
X139047619Y-111150000D01*
X138895238Y-111188095D01*
X138628571Y-111188095D01*
X138476190Y-111150000D01*
X138400000Y-111073809D01*
X138361904Y-110997619D01*
X151420592Y-120760277D02*
X151447529Y-120841089D01*
X151528341Y-120921902D01*
X151636091Y-120975776D01*
X151743841Y-120975776D01*
X151824653Y-120948839D01*
X151959340Y-120868027D01*
X152040152Y-120787215D01*
X152120964Y-120652528D01*
X152147902Y-120571715D01*
X152147902Y-120463966D01*
X152094027Y-120356216D01*
X152040152Y-120302341D01*
X151932402Y-120248467D01*
X151878528Y-120248467D01*
X151689966Y-120437028D01*
X151797715Y-120544778D01*
X151689966Y-119952155D02*
X151124280Y-120517841D01*
X150908781Y-120302341D01*
X150881844Y-120221529D01*
X150881844Y-120167654D01*
X150908781Y-120086842D01*
X150989593Y-120006030D01*
X151070406Y-119979093D01*
X151124280Y-119979093D01*
X151205093Y-120006030D01*
X151420592Y-120221529D01*
X150827969Y-119090158D02*
X151151218Y-119413407D01*
X150989593Y-119251783D02*
X150423908Y-119817468D01*
X150558595Y-119790531D01*
X150666345Y-119790531D01*
X150747157Y-119817468D01*
X150558595Y-118820784D02*
X150450845Y-118713035D01*
X150370033Y-118686097D01*
X150316158Y-118686097D01*
X150181471Y-118713035D01*
X150046784Y-118793847D01*
X149831285Y-119009346D01*
X149804348Y-119090158D01*
X149804348Y-119144033D01*
X149831285Y-119224845D01*
X149939035Y-119332595D01*
X150019847Y-119359532D01*
X150073722Y-119359532D01*
X150154534Y-119332595D01*
X150289221Y-119197908D01*
X150316158Y-119117096D01*
X150316158Y-119063221D01*
X150289221Y-118982409D01*
X150181471Y-118874659D01*
X150100659Y-118847722D01*
X150046784Y-118847722D01*
X149965972Y-118874659D01*
X176551218Y-94636903D02*
X176578155Y-94717715D01*
X176658967Y-94798528D01*
X176766717Y-94852402D01*
X176874467Y-94852402D01*
X176955279Y-94825465D01*
X177089966Y-94744653D01*
X177170778Y-94663841D01*
X177251590Y-94529154D01*
X177278528Y-94448341D01*
X177278528Y-94340592D01*
X177224653Y-94232842D01*
X177170778Y-94178967D01*
X177063028Y-94125093D01*
X177009154Y-94125093D01*
X176820592Y-94313654D01*
X176928341Y-94421404D01*
X176820592Y-93828781D02*
X176254906Y-94394467D01*
X176039407Y-94178967D01*
X176012470Y-94098155D01*
X176012470Y-94044280D01*
X176039407Y-93963468D01*
X176120219Y-93882656D01*
X176201032Y-93855719D01*
X176254906Y-93855719D01*
X176335719Y-93882656D01*
X176551218Y-94098155D01*
X175635346Y-93397783D02*
X176012470Y-93020659D01*
X175554534Y-93747969D02*
X176093282Y-93478595D01*
X175743096Y-93128409D01*
X189251218Y-94636903D02*
X189278155Y-94717715D01*
X189358967Y-94798528D01*
X189466717Y-94852402D01*
X189574467Y-94852402D01*
X189655279Y-94825465D01*
X189789966Y-94744653D01*
X189870778Y-94663841D01*
X189951590Y-94529154D01*
X189978528Y-94448341D01*
X189978528Y-94340592D01*
X189924653Y-94232842D01*
X189870778Y-94178967D01*
X189763028Y-94125093D01*
X189709154Y-94125093D01*
X189520592Y-94313654D01*
X189628341Y-94421404D01*
X189520592Y-93828781D02*
X188954906Y-94394467D01*
X188739407Y-94178967D01*
X188712470Y-94098155D01*
X188712470Y-94044280D01*
X188739407Y-93963468D01*
X188820219Y-93882656D01*
X188901032Y-93855719D01*
X188954906Y-93855719D01*
X189035719Y-93882656D01*
X189251218Y-94098155D01*
X188281471Y-93721032D02*
X188227597Y-93667157D01*
X188200659Y-93586345D01*
X188200659Y-93532470D01*
X188227597Y-93451658D01*
X188308409Y-93316971D01*
X188443096Y-93182284D01*
X188577783Y-93101471D01*
X188658595Y-93074534D01*
X188712470Y-93074534D01*
X188793282Y-93101471D01*
X188847157Y-93155346D01*
X188874094Y-93236158D01*
X188874094Y-93290033D01*
X188847157Y-93370845D01*
X188766345Y-93505532D01*
X188631658Y-93640219D01*
X188496971Y-93721032D01*
X188416158Y-93747969D01*
X188362284Y-93747969D01*
X188281471Y-93721032D01*
X166660592Y-120760277D02*
X166687529Y-120841089D01*
X166768341Y-120921902D01*
X166876091Y-120975776D01*
X166983841Y-120975776D01*
X167064653Y-120948839D01*
X167199340Y-120868027D01*
X167280152Y-120787215D01*
X167360964Y-120652528D01*
X167387902Y-120571715D01*
X167387902Y-120463966D01*
X167334027Y-120356216D01*
X167280152Y-120302341D01*
X167172402Y-120248467D01*
X167118528Y-120248467D01*
X166929966Y-120437028D01*
X167037715Y-120544778D01*
X166929966Y-119952155D02*
X166364280Y-120517841D01*
X166148781Y-120302341D01*
X166121844Y-120221529D01*
X166121844Y-120167654D01*
X166148781Y-120086842D01*
X166229593Y-120006030D01*
X166310406Y-119979093D01*
X166364280Y-119979093D01*
X166445093Y-120006030D01*
X166660592Y-120221529D01*
X165879407Y-119925218D02*
X165825532Y-119925218D01*
X165744720Y-119898280D01*
X165610033Y-119763593D01*
X165583096Y-119682781D01*
X165583096Y-119628906D01*
X165610033Y-119548094D01*
X165663908Y-119494219D01*
X165771658Y-119440345D01*
X166418155Y-119440345D01*
X166067969Y-119090158D01*
X165017410Y-119170971D02*
X165125160Y-119278720D01*
X165205972Y-119305658D01*
X165259847Y-119305658D01*
X165394534Y-119278720D01*
X165529221Y-119197908D01*
X165744720Y-118982409D01*
X165771658Y-118901597D01*
X165771658Y-118847722D01*
X165744720Y-118766910D01*
X165636971Y-118659160D01*
X165556158Y-118632223D01*
X165502284Y-118632223D01*
X165421471Y-118659160D01*
X165286784Y-118793847D01*
X165259847Y-118874659D01*
X165259847Y-118928534D01*
X165286784Y-119009346D01*
X165394534Y-119117096D01*
X165475346Y-119144033D01*
X165529221Y-119144033D01*
X165610033Y-119117096D01*
X161580592Y-120760277D02*
X161607529Y-120841089D01*
X161688341Y-120921902D01*
X161796091Y-120975776D01*
X161903841Y-120975776D01*
X161984653Y-120948839D01*
X162119340Y-120868027D01*
X162200152Y-120787215D01*
X162280964Y-120652528D01*
X162307902Y-120571715D01*
X162307902Y-120463966D01*
X162254027Y-120356216D01*
X162200152Y-120302341D01*
X162092402Y-120248467D01*
X162038528Y-120248467D01*
X161849966Y-120437028D01*
X161957715Y-120544778D01*
X161849966Y-119952155D02*
X161284280Y-120517841D01*
X161068781Y-120302341D01*
X161041844Y-120221529D01*
X161041844Y-120167654D01*
X161068781Y-120086842D01*
X161149593Y-120006030D01*
X161230406Y-119979093D01*
X161284280Y-119979093D01*
X161365093Y-120006030D01*
X161580592Y-120221529D01*
X160799407Y-119925218D02*
X160745532Y-119925218D01*
X160664720Y-119898280D01*
X160530033Y-119763593D01*
X160503096Y-119682781D01*
X160503096Y-119628906D01*
X160530033Y-119548094D01*
X160583908Y-119494219D01*
X160691658Y-119440345D01*
X161338155Y-119440345D01*
X160987969Y-119090158D01*
X160260659Y-119386470D02*
X160206784Y-119386470D01*
X160125972Y-119359532D01*
X159991285Y-119224845D01*
X159964348Y-119144033D01*
X159964348Y-119090158D01*
X159991285Y-119009346D01*
X160045160Y-118955471D01*
X160152910Y-118901597D01*
X160799407Y-118901597D01*
X160449221Y-118551410D01*
X179533773Y-122595211D02*
X179264399Y-122325837D01*
X179749272Y-122487462D02*
X178995025Y-122864585D01*
X179372149Y-122110338D01*
X179183587Y-121921776D02*
X178617902Y-122487462D01*
X178483215Y-122352775D01*
X178429340Y-122245025D01*
X178429340Y-122137276D01*
X178456277Y-122056463D01*
X178537089Y-121921776D01*
X178617902Y-121840964D01*
X178752589Y-121760152D01*
X178833401Y-121733215D01*
X178941150Y-121733215D01*
X179048900Y-121787089D01*
X179183587Y-121921776D01*
X178240778Y-121086717D02*
X178294653Y-121086717D01*
X178402402Y-121140592D01*
X178456277Y-121194467D01*
X178510152Y-121302216D01*
X178510152Y-121409966D01*
X178483215Y-121490778D01*
X178402402Y-121625465D01*
X178321590Y-121706277D01*
X178186903Y-121787089D01*
X178106091Y-121814027D01*
X177998341Y-121814027D01*
X177890592Y-121760152D01*
X177836717Y-121706277D01*
X177782842Y-121598528D01*
X177782842Y-121544653D01*
X178240778Y-120871218D02*
X177809780Y-120440219D01*
X177136345Y-121005905D02*
X177513468Y-120251658D01*
X176759221Y-120628781D01*
X176813096Y-119551285D02*
X176732284Y-120009221D01*
X177136345Y-119874534D02*
X176570659Y-120440219D01*
X176355160Y-120224720D01*
X176328223Y-120143908D01*
X176328223Y-120090033D01*
X176355160Y-120009221D01*
X176435972Y-119928409D01*
X176516784Y-119901471D01*
X176570659Y-119901471D01*
X176651471Y-119928409D01*
X176866971Y-120143908D01*
X176274348Y-119605160D02*
X176085786Y-119416598D01*
X176301285Y-119039475D02*
X176570659Y-119308849D01*
X176004974Y-119874534D01*
X175735600Y-119605160D01*
X175573975Y-118904788D02*
X175762537Y-119093349D01*
X176058849Y-118797038D02*
X175493163Y-119362723D01*
X175223789Y-119093349D01*
X153442592Y-94506277D02*
X153469529Y-94587089D01*
X153550341Y-94667902D01*
X153658091Y-94721776D01*
X153765841Y-94721776D01*
X153846653Y-94694839D01*
X153981340Y-94614027D01*
X154062152Y-94533215D01*
X154142964Y-94398528D01*
X154169902Y-94317715D01*
X154169902Y-94209966D01*
X154116027Y-94102216D01*
X154062152Y-94048341D01*
X153954402Y-93994467D01*
X153900528Y-93994467D01*
X153711966Y-94183028D01*
X153819715Y-94290778D01*
X153711966Y-93698155D02*
X153146280Y-94263841D01*
X152930781Y-94048341D01*
X152903844Y-93967529D01*
X152903844Y-93913654D01*
X152930781Y-93832842D01*
X153011593Y-93752030D01*
X153092406Y-93725093D01*
X153146280Y-93725093D01*
X153227093Y-93752030D01*
X153442592Y-93967529D01*
X152849969Y-92836158D02*
X153173218Y-93159407D01*
X153011593Y-92997783D02*
X152445908Y-93563468D01*
X152580595Y-93536531D01*
X152688345Y-93536531D01*
X152769157Y-93563468D01*
X152311221Y-92297410D02*
X152634470Y-92620659D01*
X152472845Y-92459035D02*
X151907160Y-93024720D01*
X152041847Y-92997783D01*
X152149597Y-92997783D01*
X152230409Y-93024720D01*
X161311218Y-94636903D02*
X161338155Y-94717715D01*
X161418967Y-94798528D01*
X161526717Y-94852402D01*
X161634467Y-94852402D01*
X161715279Y-94825465D01*
X161849966Y-94744653D01*
X161930778Y-94663841D01*
X162011590Y-94529154D01*
X162038528Y-94448341D01*
X162038528Y-94340592D01*
X161984653Y-94232842D01*
X161930778Y-94178967D01*
X161823028Y-94125093D01*
X161769154Y-94125093D01*
X161580592Y-94313654D01*
X161688341Y-94421404D01*
X161580592Y-93828781D02*
X161014906Y-94394467D01*
X160799407Y-94178967D01*
X160772470Y-94098155D01*
X160772470Y-94044280D01*
X160799407Y-93963468D01*
X160880219Y-93882656D01*
X160961032Y-93855719D01*
X161014906Y-93855719D01*
X161095719Y-93882656D01*
X161311218Y-94098155D01*
X160987969Y-93236158D02*
X160880219Y-93128409D01*
X160799407Y-93101471D01*
X160745532Y-93101471D01*
X160610845Y-93128409D01*
X160476158Y-93209221D01*
X160260659Y-93424720D01*
X160233722Y-93505532D01*
X160233722Y-93559407D01*
X160260659Y-93640219D01*
X160368409Y-93747969D01*
X160449221Y-93774906D01*
X160503096Y-93774906D01*
X160583908Y-93747969D01*
X160718595Y-93613282D01*
X160745532Y-93532470D01*
X160745532Y-93478595D01*
X160718595Y-93397783D01*
X160610845Y-93290033D01*
X160530033Y-93263096D01*
X160476158Y-93263096D01*
X160395346Y-93290033D01*
X146098155Y-120263841D02*
X146125093Y-120344653D01*
X146205905Y-120425465D01*
X146313654Y-120479340D01*
X146421404Y-120479340D01*
X146502216Y-120452402D01*
X146636903Y-120371590D01*
X146717715Y-120290778D01*
X146798528Y-120156091D01*
X146825465Y-120075279D01*
X146825465Y-119967529D01*
X146771590Y-119859780D01*
X146717715Y-119805905D01*
X146609966Y-119752030D01*
X146556091Y-119752030D01*
X146367529Y-119940592D01*
X146475279Y-120048341D01*
X146367529Y-119455719D02*
X145801844Y-120021404D01*
X146044280Y-119132470D01*
X145478595Y-119698155D01*
X145774906Y-118863096D02*
X145209221Y-119428781D01*
X145074534Y-119294094D01*
X145020659Y-119186345D01*
X145020659Y-119078595D01*
X145047597Y-118997783D01*
X145128409Y-118863096D01*
X145209221Y-118782284D01*
X145343908Y-118701471D01*
X145424720Y-118674534D01*
X145532470Y-118674534D01*
X145640219Y-118728409D01*
X145774906Y-118863096D01*
X186721218Y-94536903D02*
X186748155Y-94617715D01*
X186828967Y-94698528D01*
X186936717Y-94752402D01*
X187044467Y-94752402D01*
X187125279Y-94725465D01*
X187259966Y-94644653D01*
X187340778Y-94563841D01*
X187421590Y-94429154D01*
X187448528Y-94348341D01*
X187448528Y-94240592D01*
X187394653Y-94132842D01*
X187340778Y-94078967D01*
X187233028Y-94025093D01*
X187179154Y-94025093D01*
X186990592Y-94213654D01*
X187098341Y-94321404D01*
X186990592Y-93728781D02*
X186424906Y-94294467D01*
X186209407Y-94078967D01*
X186182470Y-93998155D01*
X186182470Y-93944280D01*
X186209407Y-93863468D01*
X186290219Y-93782656D01*
X186371032Y-93755719D01*
X186424906Y-93755719D01*
X186505719Y-93782656D01*
X186721218Y-93998155D01*
X186128595Y-92866784D02*
X186451844Y-93190033D01*
X186290219Y-93028409D02*
X185724534Y-93594094D01*
X185859221Y-93567157D01*
X185966971Y-93567157D01*
X186047783Y-93594094D01*
X174534592Y-120760277D02*
X174561529Y-120841089D01*
X174642341Y-120921902D01*
X174750091Y-120975776D01*
X174857841Y-120975776D01*
X174938653Y-120948839D01*
X175073340Y-120868027D01*
X175154152Y-120787215D01*
X175234964Y-120652528D01*
X175261902Y-120571715D01*
X175261902Y-120463966D01*
X175208027Y-120356216D01*
X175154152Y-120302341D01*
X175046402Y-120248467D01*
X174992528Y-120248467D01*
X174803966Y-120437028D01*
X174911715Y-120544778D01*
X174803966Y-119952155D02*
X174238280Y-120517841D01*
X174022781Y-120302341D01*
X173995844Y-120221529D01*
X173995844Y-120167654D01*
X174022781Y-120086842D01*
X174103593Y-120006030D01*
X174184406Y-119979093D01*
X174238280Y-119979093D01*
X174319093Y-120006030D01*
X174534592Y-120221529D01*
X173753407Y-119925218D02*
X173699532Y-119925218D01*
X173618720Y-119898280D01*
X173484033Y-119763593D01*
X173457096Y-119682781D01*
X173457096Y-119628906D01*
X173484033Y-119548094D01*
X173537908Y-119494219D01*
X173645658Y-119440345D01*
X174292155Y-119440345D01*
X173941969Y-119090158D01*
X173295471Y-119090158D02*
X173322409Y-119170971D01*
X173322409Y-119224845D01*
X173295471Y-119305658D01*
X173268534Y-119332595D01*
X173187722Y-119359532D01*
X173133847Y-119359532D01*
X173053035Y-119332595D01*
X172945285Y-119224845D01*
X172918348Y-119144033D01*
X172918348Y-119090158D01*
X172945285Y-119009346D01*
X172972223Y-118982409D01*
X173053035Y-118955471D01*
X173106910Y-118955471D01*
X173187722Y-118982409D01*
X173295471Y-119090158D01*
X173376284Y-119117096D01*
X173430158Y-119117096D01*
X173510971Y-119090158D01*
X173618720Y-118982409D01*
X173645658Y-118901597D01*
X173645658Y-118847722D01*
X173618720Y-118766910D01*
X173510971Y-118659160D01*
X173430158Y-118632223D01*
X173376284Y-118632223D01*
X173295471Y-118659160D01*
X173187722Y-118766910D01*
X173160784Y-118847722D01*
X173160784Y-118901597D01*
X173187722Y-118982409D01*
X143282592Y-94606277D02*
X143309529Y-94687089D01*
X143390341Y-94767902D01*
X143498091Y-94821776D01*
X143605841Y-94821776D01*
X143686653Y-94794839D01*
X143821340Y-94714027D01*
X143902152Y-94633215D01*
X143982964Y-94498528D01*
X144009902Y-94417715D01*
X144009902Y-94309966D01*
X143956027Y-94202216D01*
X143902152Y-94148341D01*
X143794402Y-94094467D01*
X143740528Y-94094467D01*
X143551966Y-94283028D01*
X143659715Y-94390778D01*
X143551966Y-93798155D02*
X142986280Y-94363841D01*
X142770781Y-94148341D01*
X142743844Y-94067529D01*
X142743844Y-94013654D01*
X142770781Y-93932842D01*
X142851593Y-93852030D01*
X142932406Y-93825093D01*
X142986280Y-93825093D01*
X143067093Y-93852030D01*
X143282592Y-94067529D01*
X142689969Y-92936158D02*
X143013218Y-93259407D01*
X142851593Y-93097783D02*
X142285908Y-93663468D01*
X142420595Y-93636531D01*
X142528345Y-93636531D01*
X142609157Y-93663468D01*
X141827972Y-92828409D02*
X142205096Y-92451285D01*
X141747160Y-93178595D02*
X142285908Y-92909221D01*
X141935722Y-92559035D01*
X184198155Y-120263841D02*
X184225093Y-120344653D01*
X184305905Y-120425465D01*
X184413654Y-120479340D01*
X184521404Y-120479340D01*
X184602216Y-120452402D01*
X184736903Y-120371590D01*
X184817715Y-120290778D01*
X184898528Y-120156091D01*
X184925465Y-120075279D01*
X184925465Y-119967529D01*
X184871590Y-119859780D01*
X184817715Y-119805905D01*
X184709966Y-119752030D01*
X184656091Y-119752030D01*
X184467529Y-119940592D01*
X184575279Y-120048341D01*
X184467529Y-119455719D02*
X183901844Y-120021404D01*
X184144280Y-119132470D01*
X183578595Y-119698155D01*
X183874906Y-118863096D02*
X183309221Y-119428781D01*
X183174534Y-119294094D01*
X183120659Y-119186345D01*
X183120659Y-119078595D01*
X183147597Y-118997783D01*
X183228409Y-118863096D01*
X183309221Y-118782284D01*
X183443908Y-118701471D01*
X183524720Y-118674534D01*
X183632470Y-118674534D01*
X183740219Y-118728409D01*
X183874906Y-118863096D01*
X168931218Y-94636903D02*
X168958155Y-94717715D01*
X169038967Y-94798528D01*
X169146717Y-94852402D01*
X169254467Y-94852402D01*
X169335279Y-94825465D01*
X169469966Y-94744653D01*
X169550778Y-94663841D01*
X169631590Y-94529154D01*
X169658528Y-94448341D01*
X169658528Y-94340592D01*
X169604653Y-94232842D01*
X169550778Y-94178967D01*
X169443028Y-94125093D01*
X169389154Y-94125093D01*
X169200592Y-94313654D01*
X169308341Y-94421404D01*
X169200592Y-93828781D02*
X168634906Y-94394467D01*
X168419407Y-94178967D01*
X168392470Y-94098155D01*
X168392470Y-94044280D01*
X168419407Y-93963468D01*
X168500219Y-93882656D01*
X168581032Y-93855719D01*
X168634906Y-93855719D01*
X168715719Y-93882656D01*
X168931218Y-94098155D01*
X167826784Y-93586345D02*
X167934534Y-93694094D01*
X168015346Y-93721032D01*
X168069221Y-93721032D01*
X168203908Y-93694094D01*
X168338595Y-93613282D01*
X168554094Y-93397783D01*
X168581032Y-93316971D01*
X168581032Y-93263096D01*
X168554094Y-93182284D01*
X168446345Y-93074534D01*
X168365532Y-93047597D01*
X168311658Y-93047597D01*
X168230845Y-93074534D01*
X168096158Y-93209221D01*
X168069221Y-93290033D01*
X168069221Y-93343908D01*
X168096158Y-93424720D01*
X168203908Y-93532470D01*
X168284720Y-93559407D01*
X168338595Y-93559407D01*
X168419407Y-93532470D01*
X164403435Y-119911624D02*
X164322622Y-120369560D01*
X164726683Y-120234873D02*
X164160998Y-120800558D01*
X163945499Y-120585059D01*
X163918561Y-120504247D01*
X163918561Y-120450372D01*
X163945499Y-120369560D01*
X164026311Y-120288748D01*
X164107123Y-120261810D01*
X164160998Y-120261810D01*
X164241810Y-120288748D01*
X164457309Y-120504247D01*
X163595312Y-120234873D02*
X164053248Y-119776937D01*
X164080186Y-119696125D01*
X164080186Y-119642250D01*
X164053248Y-119561438D01*
X163945499Y-119453688D01*
X163864687Y-119426751D01*
X163810812Y-119426751D01*
X163730000Y-119453688D01*
X163272064Y-119911624D01*
X163568375Y-119076564D02*
X163002690Y-119642250D01*
X163245126Y-118753316D01*
X162679441Y-119319001D01*
X174011218Y-94636903D02*
X174038155Y-94717715D01*
X174118967Y-94798528D01*
X174226717Y-94852402D01*
X174334467Y-94852402D01*
X174415279Y-94825465D01*
X174549966Y-94744653D01*
X174630778Y-94663841D01*
X174711590Y-94529154D01*
X174738528Y-94448341D01*
X174738528Y-94340592D01*
X174684653Y-94232842D01*
X174630778Y-94178967D01*
X174523028Y-94125093D01*
X174469154Y-94125093D01*
X174280592Y-94313654D01*
X174388341Y-94421404D01*
X174280592Y-93828781D02*
X173714906Y-94394467D01*
X173499407Y-94178967D01*
X173472470Y-94098155D01*
X173472470Y-94044280D01*
X173499407Y-93963468D01*
X173580219Y-93882656D01*
X173661032Y-93855719D01*
X173714906Y-93855719D01*
X173795719Y-93882656D01*
X174011218Y-94098155D01*
X172879847Y-93559407D02*
X173149221Y-93828781D01*
X173445532Y-93586345D01*
X173391658Y-93586345D01*
X173310845Y-93559407D01*
X173176158Y-93424720D01*
X173149221Y-93343908D01*
X173149221Y-93290033D01*
X173176158Y-93209221D01*
X173310845Y-93074534D01*
X173391658Y-93047597D01*
X173445532Y-93047597D01*
X173526345Y-93074534D01*
X173661032Y-93209221D01*
X173687969Y-93290033D01*
X173687969Y-93343908D01*
X141260592Y-94652277D02*
X141287529Y-94733089D01*
X141368341Y-94813902D01*
X141476091Y-94867776D01*
X141583841Y-94867776D01*
X141664653Y-94840839D01*
X141799340Y-94760027D01*
X141880152Y-94679215D01*
X141960964Y-94544528D01*
X141987902Y-94463715D01*
X141987902Y-94355966D01*
X141934027Y-94248216D01*
X141880152Y-94194341D01*
X141772402Y-94140467D01*
X141718528Y-94140467D01*
X141529966Y-94329028D01*
X141637715Y-94436778D01*
X141529966Y-93844155D02*
X140964280Y-94409841D01*
X140748781Y-94194341D01*
X140721844Y-94113529D01*
X140721844Y-94059654D01*
X140748781Y-93978842D01*
X140829593Y-93898030D01*
X140910406Y-93871093D01*
X140964280Y-93871093D01*
X141045093Y-93898030D01*
X141260592Y-94113529D01*
X140667969Y-92982158D02*
X140991218Y-93305407D01*
X140829593Y-93143783D02*
X140263908Y-93709468D01*
X140398595Y-93682531D01*
X140506345Y-93682531D01*
X140587157Y-93709468D01*
X139590473Y-93036033D02*
X139859847Y-93305407D01*
X140156158Y-93062971D01*
X140102284Y-93062971D01*
X140021471Y-93036033D01*
X139886784Y-92901346D01*
X139859847Y-92820534D01*
X139859847Y-92766659D01*
X139886784Y-92685847D01*
X140021471Y-92551160D01*
X140102284Y-92524223D01*
X140156158Y-92524223D01*
X140236971Y-92551160D01*
X140371658Y-92685847D01*
X140398595Y-92766659D01*
X140398595Y-92820534D01*
X148880592Y-120760277D02*
X148907529Y-120841089D01*
X148988341Y-120921902D01*
X149096091Y-120975776D01*
X149203841Y-120975776D01*
X149284653Y-120948839D01*
X149419340Y-120868027D01*
X149500152Y-120787215D01*
X149580964Y-120652528D01*
X149607902Y-120571715D01*
X149607902Y-120463966D01*
X149554027Y-120356216D01*
X149500152Y-120302341D01*
X149392402Y-120248467D01*
X149338528Y-120248467D01*
X149149966Y-120437028D01*
X149257715Y-120544778D01*
X149149966Y-119952155D02*
X148584280Y-120517841D01*
X148368781Y-120302341D01*
X148341844Y-120221529D01*
X148341844Y-120167654D01*
X148368781Y-120086842D01*
X148449593Y-120006030D01*
X148530406Y-119979093D01*
X148584280Y-119979093D01*
X148665093Y-120006030D01*
X148880592Y-120221529D01*
X148287969Y-119090158D02*
X148611218Y-119413407D01*
X148449593Y-119251783D02*
X147883908Y-119817468D01*
X148018595Y-119790531D01*
X148126345Y-119790531D01*
X148207157Y-119817468D01*
X147641471Y-119090158D02*
X147668409Y-119170971D01*
X147668409Y-119224845D01*
X147641471Y-119305658D01*
X147614534Y-119332595D01*
X147533722Y-119359532D01*
X147479847Y-119359532D01*
X147399035Y-119332595D01*
X147291285Y-119224845D01*
X147264348Y-119144033D01*
X147264348Y-119090158D01*
X147291285Y-119009346D01*
X147318223Y-118982409D01*
X147399035Y-118955471D01*
X147452910Y-118955471D01*
X147533722Y-118982409D01*
X147641471Y-119090158D01*
X147722284Y-119117096D01*
X147776158Y-119117096D01*
X147856971Y-119090158D01*
X147964720Y-118982409D01*
X147991658Y-118901597D01*
X147991658Y-118847722D01*
X147964720Y-118766910D01*
X147856971Y-118659160D01*
X147776158Y-118632223D01*
X147722284Y-118632223D01*
X147641471Y-118659160D01*
X147533722Y-118766910D01*
X147506784Y-118847722D01*
X147506784Y-118901597D01*
X147533722Y-118982409D01*
X153960592Y-120760277D02*
X153987529Y-120841089D01*
X154068341Y-120921902D01*
X154176091Y-120975776D01*
X154283841Y-120975776D01*
X154364653Y-120948839D01*
X154499340Y-120868027D01*
X154580152Y-120787215D01*
X154660964Y-120652528D01*
X154687902Y-120571715D01*
X154687902Y-120463966D01*
X154634027Y-120356216D01*
X154580152Y-120302341D01*
X154472402Y-120248467D01*
X154418528Y-120248467D01*
X154229966Y-120437028D01*
X154337715Y-120544778D01*
X154229966Y-119952155D02*
X153664280Y-120517841D01*
X153448781Y-120302341D01*
X153421844Y-120221529D01*
X153421844Y-120167654D01*
X153448781Y-120086842D01*
X153529593Y-120006030D01*
X153610406Y-119979093D01*
X153664280Y-119979093D01*
X153745093Y-120006030D01*
X153960592Y-120221529D01*
X153179407Y-119925218D02*
X153125532Y-119925218D01*
X153044720Y-119898280D01*
X152910033Y-119763593D01*
X152883096Y-119682781D01*
X152883096Y-119628906D01*
X152910033Y-119548094D01*
X152963908Y-119494219D01*
X153071658Y-119440345D01*
X153718155Y-119440345D01*
X153367969Y-119090158D01*
X152452097Y-119305658D02*
X152398223Y-119251783D01*
X152371285Y-119170971D01*
X152371285Y-119117096D01*
X152398223Y-119036284D01*
X152479035Y-118901597D01*
X152613722Y-118766910D01*
X152748409Y-118686097D01*
X152829221Y-118659160D01*
X152883096Y-118659160D01*
X152963908Y-118686097D01*
X153017783Y-118739972D01*
X153044720Y-118820784D01*
X153044720Y-118874659D01*
X153017783Y-118955471D01*
X152936971Y-119090158D01*
X152802284Y-119224845D01*
X152667597Y-119305658D01*
X152586784Y-119332595D01*
X152532910Y-119332595D01*
X152452097Y-119305658D01*
X172440964Y-120706402D02*
X172171590Y-120437028D01*
X172656463Y-120598653D02*
X171902216Y-120975776D01*
X172279340Y-120221529D01*
X171255719Y-120275404D02*
X171282656Y-120356216D01*
X171363468Y-120437028D01*
X171471218Y-120490903D01*
X171578967Y-120490903D01*
X171659780Y-120463966D01*
X171794467Y-120383154D01*
X171875279Y-120302341D01*
X171956091Y-120167654D01*
X171983028Y-120086842D01*
X171983028Y-119979093D01*
X171929154Y-119871343D01*
X171875279Y-119817468D01*
X171767529Y-119763593D01*
X171713654Y-119763593D01*
X171525093Y-119952155D01*
X171632842Y-120059905D01*
X171525093Y-119467282D02*
X170959407Y-120032967D01*
X171201844Y-119144033D01*
X170636158Y-119709719D01*
X170932470Y-118874659D02*
X170366784Y-119440345D01*
X170232097Y-119305658D01*
X170178223Y-119197908D01*
X170178223Y-119090158D01*
X170205160Y-119009346D01*
X170285972Y-118874659D01*
X170366784Y-118793847D01*
X170501471Y-118713035D01*
X170582284Y-118686097D01*
X170690033Y-118686097D01*
X170797783Y-118739972D01*
X170932470Y-118874659D01*
X158798155Y-94663841D02*
X158825093Y-94744653D01*
X158905905Y-94825465D01*
X159013654Y-94879340D01*
X159121404Y-94879340D01*
X159202216Y-94852402D01*
X159336903Y-94771590D01*
X159417715Y-94690778D01*
X159498528Y-94556091D01*
X159525465Y-94475279D01*
X159525465Y-94367529D01*
X159471590Y-94259780D01*
X159417715Y-94205905D01*
X159309966Y-94152030D01*
X159256091Y-94152030D01*
X159067529Y-94340592D01*
X159175279Y-94448341D01*
X159067529Y-93855719D02*
X158501844Y-94421404D01*
X158744280Y-93532470D01*
X158178595Y-94098155D01*
X158474906Y-93263096D02*
X157909221Y-93828781D01*
X157774534Y-93694094D01*
X157720659Y-93586345D01*
X157720659Y-93478595D01*
X157747597Y-93397783D01*
X157828409Y-93263096D01*
X157909221Y-93182284D01*
X158043908Y-93101471D01*
X158124720Y-93074534D01*
X158232470Y-93074534D01*
X158340219Y-93128409D01*
X158474906Y-93263096D01*
X181631218Y-94536903D02*
X181658155Y-94617715D01*
X181738967Y-94698528D01*
X181846717Y-94752402D01*
X181954467Y-94752402D01*
X182035279Y-94725465D01*
X182169966Y-94644653D01*
X182250778Y-94563841D01*
X182331590Y-94429154D01*
X182358528Y-94348341D01*
X182358528Y-94240592D01*
X182304653Y-94132842D01*
X182250778Y-94078967D01*
X182143028Y-94025093D01*
X182089154Y-94025093D01*
X181900592Y-94213654D01*
X182008341Y-94321404D01*
X181900592Y-93728781D02*
X181334906Y-94294467D01*
X181119407Y-94078967D01*
X181092470Y-93998155D01*
X181092470Y-93944280D01*
X181119407Y-93863468D01*
X181200219Y-93782656D01*
X181281032Y-93755719D01*
X181334906Y-93755719D01*
X181415719Y-93782656D01*
X181631218Y-93998155D01*
X180850033Y-93701844D02*
X180796158Y-93701844D01*
X180715346Y-93674906D01*
X180580659Y-93540219D01*
X180553722Y-93459407D01*
X180553722Y-93405532D01*
X180580659Y-93324720D01*
X180634534Y-93270845D01*
X180742284Y-93216971D01*
X181388781Y-93216971D01*
X181038595Y-92866784D01*
X166421218Y-94736903D02*
X166448155Y-94817715D01*
X166528967Y-94898528D01*
X166636717Y-94952402D01*
X166744467Y-94952402D01*
X166825279Y-94925465D01*
X166959966Y-94844653D01*
X167040778Y-94763841D01*
X167121590Y-94629154D01*
X167148528Y-94548341D01*
X167148528Y-94440592D01*
X167094653Y-94332842D01*
X167040778Y-94278967D01*
X166933028Y-94225093D01*
X166879154Y-94225093D01*
X166690592Y-94413654D01*
X166798341Y-94521404D01*
X166690592Y-93928781D02*
X166124906Y-94494467D01*
X165909407Y-94278967D01*
X165882470Y-94198155D01*
X165882470Y-94144280D01*
X165909407Y-94063468D01*
X165990219Y-93982656D01*
X166071032Y-93955719D01*
X166124906Y-93955719D01*
X166205719Y-93982656D01*
X166421218Y-94198155D01*
X165613096Y-93982656D02*
X165235972Y-93605532D01*
X166044094Y-93282284D01*
X163851218Y-94636903D02*
X163878155Y-94717715D01*
X163958967Y-94798528D01*
X164066717Y-94852402D01*
X164174467Y-94852402D01*
X164255279Y-94825465D01*
X164389966Y-94744653D01*
X164470778Y-94663841D01*
X164551590Y-94529154D01*
X164578528Y-94448341D01*
X164578528Y-94340592D01*
X164524653Y-94232842D01*
X164470778Y-94178967D01*
X164363028Y-94125093D01*
X164309154Y-94125093D01*
X164120592Y-94313654D01*
X164228341Y-94421404D01*
X164120592Y-93828781D02*
X163554906Y-94394467D01*
X163339407Y-94178967D01*
X163312470Y-94098155D01*
X163312470Y-94044280D01*
X163339407Y-93963468D01*
X163420219Y-93882656D01*
X163501032Y-93855719D01*
X163554906Y-93855719D01*
X163635719Y-93882656D01*
X163851218Y-94098155D01*
X163150845Y-93505532D02*
X163177783Y-93586345D01*
X163177783Y-93640219D01*
X163150845Y-93721032D01*
X163123908Y-93747969D01*
X163043096Y-93774906D01*
X162989221Y-93774906D01*
X162908409Y-93747969D01*
X162800659Y-93640219D01*
X162773722Y-93559407D01*
X162773722Y-93505532D01*
X162800659Y-93424720D01*
X162827597Y-93397783D01*
X162908409Y-93370845D01*
X162962284Y-93370845D01*
X163043096Y-93397783D01*
X163150845Y-93505532D01*
X163231658Y-93532470D01*
X163285532Y-93532470D01*
X163366345Y-93505532D01*
X163474094Y-93397783D01*
X163501032Y-93316971D01*
X163501032Y-93263096D01*
X163474094Y-93182284D01*
X163366345Y-93074534D01*
X163285532Y-93047597D01*
X163231658Y-93047597D01*
X163150845Y-93074534D01*
X163043096Y-93182284D01*
X163016158Y-93263096D01*
X163016158Y-93316971D01*
X163043096Y-93397783D01*
X148362592Y-94652277D02*
X148389529Y-94733089D01*
X148470341Y-94813902D01*
X148578091Y-94867776D01*
X148685841Y-94867776D01*
X148766653Y-94840839D01*
X148901340Y-94760027D01*
X148982152Y-94679215D01*
X149062964Y-94544528D01*
X149089902Y-94463715D01*
X149089902Y-94355966D01*
X149036027Y-94248216D01*
X148982152Y-94194341D01*
X148874402Y-94140467D01*
X148820528Y-94140467D01*
X148631966Y-94329028D01*
X148739715Y-94436778D01*
X148631966Y-93844155D02*
X148066280Y-94409841D01*
X147850781Y-94194341D01*
X147823844Y-94113529D01*
X147823844Y-94059654D01*
X147850781Y-93978842D01*
X147931593Y-93898030D01*
X148012406Y-93871093D01*
X148066280Y-93871093D01*
X148147093Y-93898030D01*
X148362592Y-94113529D01*
X147769969Y-92982158D02*
X148093218Y-93305407D01*
X147931593Y-93143783D02*
X147365908Y-93709468D01*
X147500595Y-93682531D01*
X147608345Y-93682531D01*
X147689157Y-93709468D01*
X147015722Y-93359282D02*
X146665536Y-93009096D01*
X147069597Y-92982158D01*
X146988784Y-92901346D01*
X146961847Y-92820534D01*
X146961847Y-92766659D01*
X146988784Y-92685847D01*
X147123471Y-92551160D01*
X147204284Y-92524223D01*
X147258158Y-92524223D01*
X147338971Y-92551160D01*
X147500595Y-92712784D01*
X147527532Y-92793597D01*
X147527532Y-92847471D01*
X155982592Y-94652277D02*
X156009529Y-94733089D01*
X156090341Y-94813902D01*
X156198091Y-94867776D01*
X156305841Y-94867776D01*
X156386653Y-94840839D01*
X156521340Y-94760027D01*
X156602152Y-94679215D01*
X156682964Y-94544528D01*
X156709902Y-94463715D01*
X156709902Y-94355966D01*
X156656027Y-94248216D01*
X156602152Y-94194341D01*
X156494402Y-94140467D01*
X156440528Y-94140467D01*
X156251966Y-94329028D01*
X156359715Y-94436778D01*
X156251966Y-93844155D02*
X155686280Y-94409841D01*
X155470781Y-94194341D01*
X155443844Y-94113529D01*
X155443844Y-94059654D01*
X155470781Y-93978842D01*
X155551593Y-93898030D01*
X155632406Y-93871093D01*
X155686280Y-93871093D01*
X155767093Y-93898030D01*
X155982592Y-94113529D01*
X155389969Y-92982158D02*
X155713218Y-93305407D01*
X155551593Y-93143783D02*
X154985908Y-93709468D01*
X155120595Y-93682531D01*
X155228345Y-93682531D01*
X155309157Y-93709468D01*
X154474097Y-93197658D02*
X154420223Y-93143783D01*
X154393285Y-93062971D01*
X154393285Y-93009096D01*
X154420223Y-92928284D01*
X154501035Y-92793597D01*
X154635722Y-92658910D01*
X154770409Y-92578097D01*
X154851221Y-92551160D01*
X154905096Y-92551160D01*
X154985908Y-92578097D01*
X155039783Y-92631972D01*
X155066720Y-92712784D01*
X155066720Y-92766659D01*
X155039783Y-92847471D01*
X154958971Y-92982158D01*
X154824284Y-93116845D01*
X154689597Y-93197658D01*
X154608784Y-93224595D01*
X154554910Y-93224595D01*
X154474097Y-93197658D01*
X171498155Y-94663841D02*
X171525093Y-94744653D01*
X171605905Y-94825465D01*
X171713654Y-94879340D01*
X171821404Y-94879340D01*
X171902216Y-94852402D01*
X172036903Y-94771590D01*
X172117715Y-94690778D01*
X172198528Y-94556091D01*
X172225465Y-94475279D01*
X172225465Y-94367529D01*
X172171590Y-94259780D01*
X172117715Y-94205905D01*
X172009966Y-94152030D01*
X171956091Y-94152030D01*
X171767529Y-94340592D01*
X171875279Y-94448341D01*
X171767529Y-93855719D02*
X171201844Y-94421404D01*
X171444280Y-93532470D01*
X170878595Y-94098155D01*
X171174906Y-93263096D02*
X170609221Y-93828781D01*
X170474534Y-93694094D01*
X170420659Y-93586345D01*
X170420659Y-93478595D01*
X170447597Y-93397783D01*
X170528409Y-93263096D01*
X170609221Y-93182284D01*
X170743908Y-93101471D01*
X170824720Y-93074534D01*
X170932470Y-93074534D01*
X171040219Y-93128409D01*
X171174906Y-93263096D01*
X179290592Y-120660152D02*
X178940406Y-120309966D01*
X179344467Y-120283028D01*
X179263654Y-120202216D01*
X179236717Y-120121404D01*
X179236717Y-120067529D01*
X179263654Y-119986717D01*
X179398341Y-119852030D01*
X179479154Y-119825093D01*
X179533028Y-119825093D01*
X179613841Y-119852030D01*
X179775465Y-120013654D01*
X179802402Y-120094467D01*
X179802402Y-120148341D01*
X178778781Y-120148341D02*
X179155905Y-119394094D01*
X178401658Y-119771218D01*
X178266971Y-119636531D02*
X177916784Y-119286345D01*
X178320845Y-119259407D01*
X178240033Y-119178595D01*
X178213096Y-119097783D01*
X178213096Y-119043908D01*
X178240033Y-118963096D01*
X178374720Y-118828409D01*
X178455532Y-118801471D01*
X178509407Y-118801471D01*
X178590219Y-118828409D01*
X178751844Y-118990033D01*
X178778781Y-119070845D01*
X178778781Y-119124720D01*
X120194095Y-69480380D02*
X120194095Y-70289904D01*
X120241714Y-70385142D01*
X120289333Y-70432761D01*
X120384571Y-70480380D01*
X120575047Y-70480380D01*
X120670285Y-70432761D01*
X120717904Y-70385142D01*
X120765523Y-70289904D01*
X120765523Y-69480380D01*
X121194095Y-69575619D02*
X121241714Y-69528000D01*
X121336952Y-69480380D01*
X121575047Y-69480380D01*
X121670285Y-69528000D01*
X121717904Y-69575619D01*
X121765523Y-69670857D01*
X121765523Y-69766095D01*
X121717904Y-69908952D01*
X121146476Y-70480380D01*
X121765523Y-70480380D01*
X143312095Y-69470380D02*
X143312095Y-70279904D01*
X143359714Y-70375142D01*
X143407333Y-70422761D01*
X143502571Y-70470380D01*
X143693047Y-70470380D01*
X143788285Y-70422761D01*
X143835904Y-70375142D01*
X143883523Y-70279904D01*
X143883523Y-69470380D01*
X144264476Y-69470380D02*
X144883523Y-69470380D01*
X144550190Y-69851333D01*
X144693047Y-69851333D01*
X144788285Y-69898952D01*
X144835904Y-69946571D01*
X144883523Y-70041809D01*
X144883523Y-70279904D01*
X144835904Y-70375142D01*
X144788285Y-70422761D01*
X144693047Y-70470380D01*
X144407333Y-70470380D01*
X144312095Y-70422761D01*
X144264476Y-70375142D01*
X131624095Y-69524380D02*
X131624095Y-70333904D01*
X131671714Y-70429142D01*
X131719333Y-70476761D01*
X131814571Y-70524380D01*
X132005047Y-70524380D01*
X132100285Y-70476761D01*
X132147904Y-70429142D01*
X132195523Y-70333904D01*
X132195523Y-69524380D01*
X133100285Y-69857714D02*
X133100285Y-70524380D01*
X132862190Y-69476761D02*
X132624095Y-70191047D01*
X133243142Y-70191047D01*
X155553333Y-104052380D02*
X155220000Y-103576190D01*
X154981904Y-104052380D02*
X154981904Y-103052380D01*
X155362857Y-103052380D01*
X155458095Y-103100000D01*
X155505714Y-103147619D01*
X155553333Y-103242857D01*
X155553333Y-103385714D01*
X155505714Y-103480952D01*
X155458095Y-103528571D01*
X155362857Y-103576190D01*
X154981904Y-103576190D01*
X156410476Y-103052380D02*
X156220000Y-103052380D01*
X156124761Y-103100000D01*
X156077142Y-103147619D01*
X155981904Y-103290476D01*
X155934285Y-103480952D01*
X155934285Y-103861904D01*
X155981904Y-103957142D01*
X156029523Y-104004761D01*
X156124761Y-104052380D01*
X156315238Y-104052380D01*
X156410476Y-104004761D01*
X156458095Y-103957142D01*
X156505714Y-103861904D01*
X156505714Y-103623809D01*
X156458095Y-103528571D01*
X156410476Y-103480952D01*
X156315238Y-103433333D01*
X156124761Y-103433333D01*
X156029523Y-103480952D01*
X155981904Y-103528571D01*
X155934285Y-103623809D01*
X169753333Y-104052380D02*
X169420000Y-103576190D01*
X169181904Y-104052380D02*
X169181904Y-103052380D01*
X169562857Y-103052380D01*
X169658095Y-103100000D01*
X169705714Y-103147619D01*
X169753333Y-103242857D01*
X169753333Y-103385714D01*
X169705714Y-103480952D01*
X169658095Y-103528571D01*
X169562857Y-103576190D01*
X169181904Y-103576190D01*
X170086666Y-103052380D02*
X170753333Y-103052380D01*
X170324761Y-104052380D01*
X155553333Y-110252380D02*
X155220000Y-109776190D01*
X154981904Y-110252380D02*
X154981904Y-109252380D01*
X155362857Y-109252380D01*
X155458095Y-109300000D01*
X155505714Y-109347619D01*
X155553333Y-109442857D01*
X155553333Y-109585714D01*
X155505714Y-109680952D01*
X155458095Y-109728571D01*
X155362857Y-109776190D01*
X154981904Y-109776190D01*
X156124761Y-109680952D02*
X156029523Y-109633333D01*
X155981904Y-109585714D01*
X155934285Y-109490476D01*
X155934285Y-109442857D01*
X155981904Y-109347619D01*
X156029523Y-109300000D01*
X156124761Y-109252380D01*
X156315238Y-109252380D01*
X156410476Y-109300000D01*
X156458095Y-109347619D01*
X156505714Y-109442857D01*
X156505714Y-109490476D01*
X156458095Y-109585714D01*
X156410476Y-109633333D01*
X156315238Y-109680952D01*
X156124761Y-109680952D01*
X156029523Y-109728571D01*
X155981904Y-109776190D01*
X155934285Y-109871428D01*
X155934285Y-110061904D01*
X155981904Y-110157142D01*
X156029523Y-110204761D01*
X156124761Y-110252380D01*
X156315238Y-110252380D01*
X156410476Y-110204761D01*
X156458095Y-110157142D01*
X156505714Y-110061904D01*
X156505714Y-109871428D01*
X156458095Y-109776190D01*
X156410476Y-109728571D01*
X156315238Y-109680952D01*
X169753333Y-110252380D02*
X169420000Y-109776190D01*
X169181904Y-110252380D02*
X169181904Y-109252380D01*
X169562857Y-109252380D01*
X169658095Y-109300000D01*
X169705714Y-109347619D01*
X169753333Y-109442857D01*
X169753333Y-109585714D01*
X169705714Y-109680952D01*
X169658095Y-109728571D01*
X169562857Y-109776190D01*
X169181904Y-109776190D01*
X170229523Y-110252380D02*
X170420000Y-110252380D01*
X170515238Y-110204761D01*
X170562857Y-110157142D01*
X170658095Y-110014285D01*
X170705714Y-109823809D01*
X170705714Y-109442857D01*
X170658095Y-109347619D01*
X170610476Y-109300000D01*
X170515238Y-109252380D01*
X170324761Y-109252380D01*
X170229523Y-109300000D01*
X170181904Y-109347619D01*
X170134285Y-109442857D01*
X170134285Y-109680952D01*
X170181904Y-109776190D01*
X170229523Y-109823809D01*
X170324761Y-109871428D01*
X170515238Y-109871428D01*
X170610476Y-109823809D01*
X170658095Y-109776190D01*
X170705714Y-109680952D01*
X134489523Y-94385380D02*
X134156190Y-93909190D01*
X133918095Y-94385380D02*
X133918095Y-93385380D01*
X134299047Y-93385380D01*
X134394285Y-93433000D01*
X134441904Y-93480619D01*
X134489523Y-93575857D01*
X134489523Y-93718714D01*
X134441904Y-93813952D01*
X134394285Y-93861571D01*
X134299047Y-93909190D01*
X133918095Y-93909190D01*
X134918095Y-94385380D02*
X134918095Y-93385380D01*
X135489523Y-94385380D01*
X135489523Y-93385380D01*
X136489523Y-94385380D02*
X135918095Y-94385380D01*
X136203809Y-94385380D02*
X136203809Y-93385380D01*
X136108571Y-93528238D01*
X136013333Y-93623476D01*
X135918095Y-93671095D01*
D10*
X103599000Y-63489000D02*
X104460000Y-63489000D01*
X106540000Y-63009000D02*
X106819000Y-63009000D01*
X106540000Y-64489000D02*
X107968000Y-64489000D01*
X106540000Y-65010000D02*
X108069000Y-65010000D01*
X103801000Y-63289000D02*
X104460000Y-63289000D01*
X102944000Y-64890000D02*
X104460000Y-64890000D01*
X106540000Y-64970000D02*
X108065000Y-64970000D01*
X106540000Y-63129000D02*
X107000000Y-63129000D01*
X103895000Y-63209000D02*
X104460000Y-63209000D01*
X103529000Y-63569000D02*
X104460000Y-63569000D01*
X106540000Y-64850000D02*
X108050000Y-64850000D01*
X104823000Y-62729000D02*
X106177000Y-62729000D01*
X103325000Y-63849000D02*
X104460000Y-63849000D01*
X102931000Y-65010000D02*
X104460000Y-65010000D01*
X104025000Y-68054775D02*
X104025000Y-67554775D01*
X102939000Y-64930000D02*
X104460000Y-64930000D01*
X103300000Y-63889000D02*
X104460000Y-63889000D01*
X106540000Y-63889000D02*
X107700000Y-63889000D01*
X106540000Y-64249000D02*
X107882000Y-64249000D01*
X103674000Y-63409000D02*
X104460000Y-63409000D01*
X102935000Y-64970000D02*
X104460000Y-64970000D01*
X106540000Y-63369000D02*
X107285000Y-63369000D01*
X106540000Y-63769000D02*
X107622000Y-63769000D01*
X106540000Y-63329000D02*
X107243000Y-63329000D01*
X103045000Y-64449000D02*
X104460000Y-64449000D01*
X103190000Y-64089000D02*
X104460000Y-64089000D01*
X106540000Y-63929000D02*
X107724000Y-63929000D01*
X103351000Y-63809000D02*
X104460000Y-63809000D01*
X106540000Y-64049000D02*
X107790000Y-64049000D01*
X103086000Y-64329000D02*
X104460000Y-64329000D01*
X103847000Y-63249000D02*
X104460000Y-63249000D01*
X106540000Y-63089000D02*
X106943000Y-63089000D01*
X104181000Y-63009000D02*
X104460000Y-63009000D01*
X106540000Y-63409000D02*
X107326000Y-63409000D01*
X104585000Y-62809000D02*
X106415000Y-62809000D01*
X106540000Y-64810000D02*
X108043000Y-64810000D01*
X106540000Y-63449000D02*
X107364000Y-63449000D01*
X106540000Y-63729000D02*
X107595000Y-63729000D01*
X102999000Y-64610000D02*
X104460000Y-64610000D01*
X106540000Y-64009000D02*
X107768000Y-64009000D01*
X103058000Y-64409000D02*
X104460000Y-64409000D01*
X106540000Y-63489000D02*
X107401000Y-63489000D01*
X103465000Y-63649000D02*
X104460000Y-63649000D01*
X106540000Y-64930000D02*
X108061000Y-64930000D01*
X102920000Y-65250000D02*
X108080000Y-65250000D01*
X103276000Y-63929000D02*
X104460000Y-63929000D01*
X106540000Y-64529000D02*
X107980000Y-64529000D01*
X102921000Y-65170000D02*
X108079000Y-65170000D01*
X106540000Y-62969000D02*
X106751000Y-62969000D01*
X106540000Y-63249000D02*
X107153000Y-63249000D01*
X103072000Y-64369000D02*
X104460000Y-64369000D01*
X103210000Y-64049000D02*
X104460000Y-64049000D01*
X104695000Y-62769000D02*
X106305000Y-62769000D01*
X102972000Y-64730000D02*
X104460000Y-64730000D01*
X106540000Y-64289000D02*
X107898000Y-64289000D01*
X102922000Y-65130000D02*
X108078000Y-65130000D01*
X103946000Y-63169000D02*
X104460000Y-63169000D01*
X104117000Y-63049000D02*
X104460000Y-63049000D01*
X106540000Y-64730000D02*
X108028000Y-64730000D01*
X103757000Y-63329000D02*
X104460000Y-63329000D01*
X106540000Y-63049000D02*
X106883000Y-63049000D01*
X106540000Y-63289000D02*
X107199000Y-63289000D01*
X106540000Y-63569000D02*
X107471000Y-63569000D01*
X106540000Y-63649000D02*
X107535000Y-63649000D01*
X103118000Y-64249000D02*
X104460000Y-64249000D01*
X103232000Y-64009000D02*
X104460000Y-64009000D01*
X106540000Y-64690000D02*
X108020000Y-64690000D01*
X106540000Y-64650000D02*
X108011000Y-64650000D01*
X103563000Y-63529000D02*
X104460000Y-63529000D01*
X104249000Y-62969000D02*
X104460000Y-62969000D01*
X106540000Y-63849000D02*
X107675000Y-63849000D01*
X103253000Y-63969000D02*
X104460000Y-63969000D01*
X104402000Y-62889000D02*
X106598000Y-62889000D01*
X103152000Y-64169000D02*
X104460000Y-64169000D01*
X103435000Y-63689000D02*
X104460000Y-63689000D01*
X103405000Y-63729000D02*
X104460000Y-63729000D01*
X104322000Y-62929000D02*
X106678000Y-62929000D01*
X106540000Y-63609000D02*
X107504000Y-63609000D01*
X106540000Y-64169000D02*
X107848000Y-64169000D01*
X106540000Y-64129000D02*
X107829000Y-64129000D01*
X106540000Y-64890000D02*
X108056000Y-64890000D01*
X103171000Y-64129000D02*
X104460000Y-64129000D01*
X102924000Y-65090000D02*
X108076000Y-65090000D01*
X102927000Y-65050000D02*
X108073000Y-65050000D01*
X106540000Y-64409000D02*
X107942000Y-64409000D01*
X106540000Y-64369000D02*
X107928000Y-64369000D01*
X106540000Y-64770000D02*
X108036000Y-64770000D01*
X103775000Y-67804775D02*
X104275000Y-67804775D01*
X106540000Y-63529000D02*
X107437000Y-63529000D01*
X106540000Y-64610000D02*
X108001000Y-64610000D01*
X105216000Y-62649000D02*
X105784000Y-62649000D01*
X103032000Y-64489000D02*
X104460000Y-64489000D01*
X103102000Y-64289000D02*
X104460000Y-64289000D01*
X102980000Y-64690000D02*
X104460000Y-64690000D01*
X102920000Y-65210000D02*
X108080000Y-65210000D01*
X104982000Y-62689000D02*
X106018000Y-62689000D01*
X104057000Y-63089000D02*
X104460000Y-63089000D01*
X103009000Y-64570000D02*
X104460000Y-64570000D01*
X106540000Y-64089000D02*
X107810000Y-64089000D01*
X102964000Y-64770000D02*
X104460000Y-64770000D01*
X106540000Y-63169000D02*
X107054000Y-63169000D01*
X106540000Y-64329000D02*
X107914000Y-64329000D01*
X104000000Y-63129000D02*
X104460000Y-63129000D01*
X103135000Y-64209000D02*
X104460000Y-64209000D01*
X106540000Y-63809000D02*
X107649000Y-63809000D01*
X106540000Y-64449000D02*
X107955000Y-64449000D01*
X106540000Y-63209000D02*
X107105000Y-63209000D01*
X103020000Y-64529000D02*
X104460000Y-64529000D01*
X102950000Y-64850000D02*
X104460000Y-64850000D01*
X102957000Y-64810000D02*
X104460000Y-64810000D01*
X106540000Y-64209000D02*
X107865000Y-64209000D01*
X106540000Y-63689000D02*
X107565000Y-63689000D01*
X106540000Y-64570000D02*
X107991000Y-64570000D01*
X103378000Y-63769000D02*
X104460000Y-63769000D01*
X103715000Y-63369000D02*
X104460000Y-63369000D01*
X104489000Y-62849000D02*
X106511000Y-62849000D01*
X102989000Y-64650000D02*
X104460000Y-64650000D01*
X103636000Y-63449000D02*
X104460000Y-63449000D01*
X106540000Y-63969000D02*
X107747000Y-63969000D01*
X103496000Y-63609000D02*
X104460000Y-63609000D01*
X108120000Y-65250000D02*
G75*
G03*
X108120000Y-65250000I-2620000J0D01*
G01*
X107229000Y-93956000D02*
X108487000Y-93956000D01*
X107229000Y-92116000D02*
X108487000Y-92116000D01*
X99479000Y-92116000D02*
X100737000Y-92116000D01*
X99479000Y-93956000D02*
X100737000Y-93956000D01*
X132544000Y-109563000D02*
X132544000Y-108305000D01*
X130704000Y-109563000D02*
X130704000Y-108305000D01*
X151831000Y-70484000D02*
X150573000Y-70484000D01*
X151831000Y-68644000D02*
X150573000Y-68644000D01*
X140157000Y-70484000D02*
X138899000Y-70484000D01*
X140157000Y-68644000D02*
X138899000Y-68644000D01*
X147960000Y-123514000D02*
X147960000Y-123670000D01*
X147960000Y-125830000D02*
X147960000Y-125986000D01*
X148479039Y-125830000D02*
G75*
G03*
X150561130Y-125829837I1040961J1080000D01*
G01*
X147960000Y-125985516D02*
G75*
G03*
X151192335Y-125828608I1560000J1235517D01*
G01*
X150561130Y-123670163D02*
G75*
G03*
X148479039Y-123670000I-1041130J-1079837D01*
G01*
X151192335Y-123671392D02*
G75*
G03*
X147960000Y-123514484I-1672335J-1078609D01*
G01*
X156710000Y-123514000D02*
X156710000Y-123670000D01*
X156710000Y-125830000D02*
X156710000Y-125986000D01*
X157229039Y-125830000D02*
G75*
G03*
X159311130Y-125829837I1040961J1080000D01*
G01*
X159311130Y-123670163D02*
G75*
G03*
X157229039Y-123670000I-1041130J-1079837D01*
G01*
X156710000Y-125985516D02*
G75*
G03*
X159942335Y-125828608I1560000J1235517D01*
G01*
X159942335Y-123671392D02*
G75*
G03*
X156710000Y-123514484I-1672335J-1078609D01*
G01*
X139440000Y-62917071D02*
X139440000Y-62520000D01*
X159760000Y-59860000D02*
X159760000Y-53860000D01*
X144520000Y-65457071D02*
X144520000Y-65002929D01*
X163950000Y-62520000D02*
X163950000Y-59860000D01*
X119660000Y-59860000D02*
X119660000Y-53860000D01*
X152140000Y-62917071D02*
X152140000Y-62520000D01*
X167380000Y-53860000D02*
X168140000Y-53860000D01*
X153790000Y-62520000D02*
X153790000Y-59860000D01*
X127500000Y-62917071D02*
X127500000Y-62520000D01*
X162300000Y-59860000D02*
X162300000Y-53860000D01*
X157980000Y-65457071D02*
X157980000Y-65002929D01*
X168140000Y-62917071D02*
X168140000Y-62520000D01*
X155440000Y-65457071D02*
X155440000Y-65002929D01*
X154680000Y-65457071D02*
X154680000Y-65002929D01*
X134360000Y-53860000D02*
X135120000Y-53860000D01*
X130040000Y-62917071D02*
X130040000Y-62520000D01*
X129280000Y-65457071D02*
X129280000Y-65002929D01*
X158870000Y-62520000D02*
X158870000Y-59860000D01*
X132580000Y-62917071D02*
X132580000Y-62520000D01*
X144520000Y-53860000D02*
X145280000Y-53860000D01*
X152140000Y-59860000D02*
X152140000Y-53860000D01*
X160520000Y-62917071D02*
X160520000Y-62520000D01*
X136010000Y-62520000D02*
X136010000Y-59860000D01*
X163060000Y-53860000D02*
X163060000Y-59860000D01*
X140200000Y-65457071D02*
X140200000Y-65002929D01*
X119880000Y-62917071D02*
X119880000Y-62520000D01*
X147060000Y-62917071D02*
X147060000Y-62520000D01*
X130930000Y-62520000D02*
X130930000Y-59860000D01*
X121660000Y-53860000D02*
X122420000Y-53860000D01*
X118170000Y-62520000D02*
X169090000Y-62520000D01*
X154680000Y-53860000D02*
X155440000Y-53860000D01*
X119300000Y-59860000D02*
X119300000Y-53860000D01*
X124200000Y-62917071D02*
X124200000Y-62520000D01*
X157980000Y-53860000D02*
X157980000Y-59860000D01*
X118230000Y-67770000D02*
X118230000Y-66500000D01*
X119880000Y-53860000D02*
X119880000Y-59860000D01*
X139440000Y-59860000D02*
X139440000Y-53860000D01*
X124200000Y-53860000D02*
X124960000Y-53860000D01*
X163060000Y-65457071D02*
X163060000Y-65002929D01*
X131820000Y-65457071D02*
X131820000Y-65002929D01*
X137660000Y-65457071D02*
X137660000Y-65002929D01*
X121660000Y-59860000D02*
X121660000Y-53860000D01*
X141980000Y-65457071D02*
X141980000Y-65002929D01*
X167380000Y-62917071D02*
X167380000Y-62520000D01*
X124960000Y-65457071D02*
X124960000Y-65002929D01*
X122420000Y-62917071D02*
X122420000Y-62520000D01*
X138550000Y-62520000D02*
X138550000Y-59860000D01*
X162300000Y-62917071D02*
X162300000Y-62520000D01*
X137660000Y-53860000D02*
X137660000Y-59860000D01*
X156330000Y-62520000D02*
X156330000Y-59860000D01*
X118170000Y-59860000D02*
X118170000Y-62520000D01*
X122420000Y-65457071D02*
X122420000Y-65002929D01*
X140200000Y-62917071D02*
X140200000Y-62520000D01*
X164840000Y-65457071D02*
X164840000Y-65002929D01*
X169090000Y-59860000D02*
X118170000Y-59860000D01*
X146170000Y-62520000D02*
X146170000Y-59860000D01*
X140200000Y-53860000D02*
X140200000Y-59860000D01*
X168140000Y-65457071D02*
X168140000Y-65002929D01*
X154680000Y-62917071D02*
X154680000Y-62520000D01*
X157220000Y-65457071D02*
X157220000Y-65002929D01*
X129280000Y-59860000D02*
X129280000Y-53860000D01*
X125850000Y-62520000D02*
X125850000Y-59860000D01*
X124200000Y-65457071D02*
X124200000Y-65002929D01*
X152900000Y-53860000D02*
X152900000Y-59860000D01*
X147060000Y-59860000D02*
X147060000Y-53860000D01*
X126740000Y-53860000D02*
X127500000Y-53860000D01*
X168140000Y-53860000D02*
X168140000Y-59860000D01*
X160520000Y-53860000D02*
X160520000Y-59860000D01*
X126740000Y-62917071D02*
X126740000Y-62520000D01*
X132580000Y-65457071D02*
X132580000Y-65002929D01*
X165600000Y-65457071D02*
X165600000Y-65002929D01*
X147060000Y-53860000D02*
X147820000Y-53860000D01*
X167380000Y-59860000D02*
X167380000Y-53860000D01*
X136900000Y-53860000D02*
X137660000Y-53860000D01*
X154680000Y-59860000D02*
X154680000Y-53860000D01*
X134360000Y-65457071D02*
X134360000Y-65002929D01*
X159760000Y-62917071D02*
X159760000Y-62520000D01*
X145280000Y-65457071D02*
X145280000Y-65002929D01*
X119780000Y-59860000D02*
X119780000Y-53860000D01*
X165600000Y-62917071D02*
X165600000Y-62520000D01*
X131820000Y-53860000D02*
X132580000Y-53860000D01*
X142740000Y-53860000D02*
X142740000Y-59860000D01*
X129280000Y-53860000D02*
X130040000Y-53860000D01*
X144520000Y-62917071D02*
X144520000Y-62520000D01*
X119540000Y-59860000D02*
X119540000Y-53860000D01*
X166490000Y-62520000D02*
X166490000Y-59860000D01*
X119120000Y-65390000D02*
X119120000Y-65002929D01*
X157220000Y-53860000D02*
X157980000Y-53860000D01*
X122420000Y-53860000D02*
X122420000Y-59860000D01*
X143630000Y-62520000D02*
X143630000Y-59860000D01*
X127500000Y-65457071D02*
X127500000Y-65002929D01*
X139440000Y-65457071D02*
X139440000Y-65002929D01*
X164840000Y-59860000D02*
X164840000Y-53860000D01*
X169090000Y-62520000D02*
X169090000Y-59860000D01*
X157980000Y-62917071D02*
X157980000Y-62520000D01*
X119500000Y-67770000D02*
X118230000Y-67770000D01*
X145280000Y-53860000D02*
X145280000Y-59860000D01*
X147060000Y-65457071D02*
X147060000Y-65002929D01*
X135120000Y-65457071D02*
X135120000Y-65002929D01*
X119180000Y-59860000D02*
X119180000Y-53860000D01*
X151250000Y-62520000D02*
X151250000Y-59860000D01*
X136900000Y-59860000D02*
X136900000Y-53860000D01*
X128390000Y-62520000D02*
X128390000Y-59860000D01*
X132580000Y-53860000D02*
X132580000Y-59860000D01*
X164840000Y-62917071D02*
X164840000Y-62520000D01*
X149600000Y-62917071D02*
X149600000Y-62520000D01*
X165600000Y-53860000D02*
X165600000Y-59860000D01*
X149600000Y-65457071D02*
X149600000Y-65002929D01*
X119420000Y-59860000D02*
X119420000Y-53860000D01*
X149600000Y-59860000D02*
X149600000Y-53860000D01*
X161410000Y-62520000D02*
X161410000Y-59860000D01*
X131820000Y-59860000D02*
X131820000Y-53860000D01*
X148710000Y-62520000D02*
X148710000Y-59860000D01*
X137660000Y-62917071D02*
X137660000Y-62520000D01*
X150360000Y-65457071D02*
X150360000Y-65002929D01*
X121660000Y-62917071D02*
X121660000Y-62520000D01*
X141980000Y-62917071D02*
X141980000Y-62520000D01*
X120770000Y-62520000D02*
X120770000Y-59860000D01*
X160520000Y-65457071D02*
X160520000Y-65002929D01*
X136900000Y-65457071D02*
X136900000Y-65002929D01*
X152140000Y-53860000D02*
X152900000Y-53860000D01*
X142740000Y-65457071D02*
X142740000Y-65002929D01*
X124200000Y-59860000D02*
X124200000Y-53860000D01*
X124960000Y-53860000D02*
X124960000Y-59860000D01*
X119880000Y-65390000D02*
X119880000Y-65002929D01*
X157220000Y-62917071D02*
X157220000Y-62520000D01*
X152900000Y-65457071D02*
X152900000Y-65002929D01*
X135120000Y-62917071D02*
X135120000Y-62520000D01*
X119120000Y-62917071D02*
X119120000Y-62520000D01*
X162300000Y-53860000D02*
X163060000Y-53860000D01*
X139440000Y-53860000D02*
X140200000Y-53860000D01*
X131820000Y-62917071D02*
X131820000Y-62520000D01*
X134360000Y-62917071D02*
X134360000Y-62520000D01*
X124960000Y-62917071D02*
X124960000Y-62520000D01*
X121660000Y-65457071D02*
X121660000Y-65002929D01*
X155440000Y-53860000D02*
X155440000Y-59860000D01*
X123310000Y-62520000D02*
X123310000Y-59860000D01*
X135120000Y-53860000D02*
X135120000Y-59860000D01*
X119120000Y-59860000D02*
X119120000Y-53860000D01*
X144520000Y-59860000D02*
X144520000Y-53860000D01*
X157220000Y-59860000D02*
X157220000Y-53860000D01*
X147820000Y-62917071D02*
X147820000Y-62520000D01*
X136900000Y-62917071D02*
X136900000Y-62520000D01*
X159760000Y-53860000D02*
X160520000Y-53860000D01*
X147820000Y-65457071D02*
X147820000Y-65002929D01*
X150360000Y-53860000D02*
X150360000Y-59860000D01*
X126740000Y-59860000D02*
X126740000Y-53860000D01*
X162300000Y-65457071D02*
X162300000Y-65002929D01*
X119120000Y-53860000D02*
X119880000Y-53860000D01*
X127500000Y-53860000D02*
X127500000Y-59860000D01*
X142740000Y-62917071D02*
X142740000Y-62520000D01*
X147820000Y-53860000D02*
X147820000Y-59860000D01*
X145280000Y-62917071D02*
X145280000Y-62520000D01*
X133470000Y-62520000D02*
X133470000Y-59860000D01*
X150360000Y-62917071D02*
X150360000Y-62520000D01*
X149600000Y-53860000D02*
X150360000Y-53860000D01*
X152140000Y-65457071D02*
X152140000Y-65002929D01*
X155440000Y-62917071D02*
X155440000Y-62520000D01*
X141980000Y-53860000D02*
X142740000Y-53860000D01*
X167380000Y-65457071D02*
X167380000Y-65002929D01*
X129280000Y-62917071D02*
X129280000Y-62520000D01*
X164840000Y-53860000D02*
X165600000Y-53860000D01*
X126740000Y-65457071D02*
X126740000Y-65002929D01*
X134360000Y-59860000D02*
X134360000Y-53860000D01*
X159760000Y-65457071D02*
X159760000Y-65002929D01*
X130040000Y-53860000D02*
X130040000Y-59860000D01*
X152900000Y-62917071D02*
X152900000Y-62520000D01*
X141090000Y-62520000D02*
X141090000Y-59860000D01*
X163060000Y-62917071D02*
X163060000Y-62520000D01*
X141980000Y-59860000D02*
X141980000Y-53860000D01*
X130040000Y-65457071D02*
X130040000Y-65002929D01*
X99431000Y-68493000D02*
X94231000Y-68493000D01*
X99431000Y-85063000D02*
X99431000Y-86393000D01*
X99431000Y-83793000D02*
X96831000Y-83793000D01*
X99431000Y-86393000D02*
X98101000Y-86393000D01*
X96831000Y-83793000D02*
X96831000Y-86393000D01*
X99431000Y-83793000D02*
X99431000Y-68493000D01*
X96831000Y-86393000D02*
X94231000Y-86393000D01*
X94231000Y-86393000D02*
X94231000Y-68493000D01*
D11*
X96000000Y-118800000D02*
X100105000Y-118800000D01*
X92500000Y-116000000D02*
X96000000Y-116000000D01*
X92500000Y-110000000D02*
X92500000Y-116000000D01*
X103100000Y-107200000D02*
X96000000Y-107200000D01*
X96000000Y-116000000D02*
X96000000Y-118800000D01*
X110200000Y-107200000D02*
X110200000Y-116128000D01*
X96000000Y-107200000D02*
X96000000Y-110000000D01*
X96000000Y-110000000D02*
X92500000Y-110000000D01*
D13*
X91924000Y-112949000D02*
G75*
G03*
X91924000Y-112949000I-103000J0D01*
G01*
D10*
X183292929Y-83460000D02*
X183690000Y-83460000D01*
X186350000Y-78280000D02*
X192350000Y-78280000D01*
X192350000Y-80920000D02*
X186350000Y-80920000D01*
X183360000Y-78380000D02*
X183690000Y-78380000D01*
X183360000Y-77620000D02*
X183690000Y-77620000D01*
X183292929Y-90320000D02*
X183690000Y-90320000D01*
X192350000Y-78380000D02*
X186350000Y-78380000D01*
X183690000Y-81810000D02*
X186350000Y-81810000D01*
X180980000Y-78000000D02*
X180980000Y-76730000D01*
X192350000Y-77620000D02*
X192350000Y-78380000D01*
X183690000Y-92030000D02*
X186350000Y-92030000D01*
X192350000Y-90320000D02*
X192350000Y-91080000D01*
X183690000Y-84350000D02*
X186350000Y-84350000D01*
X186350000Y-92030000D02*
X186350000Y-76670000D01*
X183690000Y-79270000D02*
X186350000Y-79270000D01*
X186350000Y-78160000D02*
X192350000Y-78160000D01*
X183292929Y-91080000D02*
X183690000Y-91080000D01*
X183292929Y-87780000D02*
X183690000Y-87780000D01*
X183292929Y-85240000D02*
X183690000Y-85240000D01*
X186350000Y-76670000D02*
X183690000Y-76670000D01*
X186350000Y-82700000D02*
X192350000Y-82700000D01*
X183292929Y-80920000D02*
X183690000Y-80920000D01*
X183690000Y-86890000D02*
X186350000Y-86890000D01*
X192350000Y-80160000D02*
X192350000Y-80920000D01*
X186350000Y-77680000D02*
X192350000Y-77680000D01*
X192350000Y-88540000D02*
X186350000Y-88540000D01*
X192350000Y-87780000D02*
X192350000Y-88540000D01*
X183292929Y-88540000D02*
X183690000Y-88540000D01*
X192350000Y-83460000D02*
X186350000Y-83460000D01*
X180980000Y-76730000D02*
X182250000Y-76730000D01*
X183292929Y-86000000D02*
X183690000Y-86000000D01*
X186350000Y-78040000D02*
X192350000Y-78040000D01*
X183292929Y-80160000D02*
X183690000Y-80160000D01*
X192350000Y-85240000D02*
X192350000Y-86000000D01*
X186350000Y-85240000D02*
X192350000Y-85240000D01*
X186350000Y-87780000D02*
X192350000Y-87780000D01*
X192350000Y-86000000D02*
X186350000Y-86000000D01*
X192350000Y-91080000D02*
X186350000Y-91080000D01*
X186350000Y-80160000D02*
X192350000Y-80160000D01*
X183292929Y-82700000D02*
X183690000Y-82700000D01*
X183690000Y-89430000D02*
X186350000Y-89430000D01*
X186350000Y-77620000D02*
X192350000Y-77620000D01*
X186350000Y-77800000D02*
X192350000Y-77800000D01*
X186350000Y-77920000D02*
X192350000Y-77920000D01*
X192350000Y-82700000D02*
X192350000Y-83460000D01*
X183690000Y-76670000D02*
X183690000Y-92030000D01*
X186350000Y-90320000D02*
X192350000Y-90320000D01*
X190353000Y-63926000D02*
X190353000Y-74206000D01*
X187753000Y-66526000D02*
X187753000Y-63926000D01*
X185153000Y-65256000D02*
X185153000Y-63926000D01*
X185153000Y-74206000D02*
X190353000Y-74206000D01*
X187753000Y-63926000D02*
X190353000Y-63926000D01*
X185153000Y-66526000D02*
X185153000Y-74206000D01*
X185153000Y-63926000D02*
X186483000Y-63926000D01*
X185153000Y-66526000D02*
X187753000Y-66526000D01*
X183753000Y-63926000D02*
X183753000Y-74206000D01*
X178553000Y-65256000D02*
X178553000Y-63926000D01*
X178553000Y-66526000D02*
X181153000Y-66526000D01*
X178553000Y-74206000D02*
X183753000Y-74206000D01*
X178553000Y-63926000D02*
X179883000Y-63926000D01*
X181153000Y-63926000D02*
X183753000Y-63926000D01*
X181153000Y-66526000D02*
X181153000Y-63926000D01*
X178553000Y-66526000D02*
X178553000Y-74206000D01*
X175146000Y-87344000D02*
X175146000Y-92484000D01*
X175146000Y-87344000D02*
X177806000Y-87344000D01*
X177806000Y-87344000D02*
X177806000Y-92484000D01*
X175146000Y-86074000D02*
X175146000Y-84744000D01*
X175146000Y-84744000D02*
X176476000Y-84744000D01*
X175146000Y-92484000D02*
X177806000Y-92484000D01*
X143100000Y-124620000D02*
X143100000Y-121880000D01*
X143100000Y-121880000D02*
X136560000Y-121880000D01*
X136560000Y-124620000D02*
X143100000Y-124620000D01*
X143870000Y-123250000D02*
X143100000Y-123250000D01*
X135790000Y-123250000D02*
X136560000Y-123250000D01*
X136560000Y-121880000D02*
X136560000Y-124620000D01*
X143870000Y-126500000D02*
X143100000Y-126500000D01*
X136560000Y-125130000D02*
X136560000Y-127870000D01*
X135790000Y-126500000D02*
X136560000Y-126500000D01*
X143100000Y-125130000D02*
X136560000Y-125130000D01*
X143100000Y-127870000D02*
X143100000Y-125130000D01*
X136560000Y-127870000D02*
X143100000Y-127870000D01*
X99898000Y-99536000D02*
X100668000Y-99536000D01*
X107208000Y-98166000D02*
X100668000Y-98166000D01*
X100668000Y-100906000D02*
X107208000Y-100906000D01*
X107978000Y-99536000D02*
X107208000Y-99536000D01*
X107208000Y-100906000D02*
X107208000Y-98166000D01*
X100668000Y-98166000D02*
X100668000Y-100906000D01*
X100668000Y-101416000D02*
X100668000Y-104156000D01*
X107208000Y-104156000D02*
X107208000Y-101416000D01*
X107978000Y-102786000D02*
X107208000Y-102786000D01*
X100668000Y-104156000D02*
X107208000Y-104156000D01*
X99898000Y-102786000D02*
X100668000Y-102786000D01*
X107208000Y-101416000D02*
X100668000Y-101416000D01*
X100668000Y-97656000D02*
X107208000Y-97656000D01*
X99898000Y-96286000D02*
X100668000Y-96286000D01*
X107208000Y-97656000D02*
X107208000Y-94916000D01*
X100668000Y-94916000D02*
X100668000Y-97656000D01*
X107978000Y-96286000D02*
X107208000Y-96286000D01*
X107208000Y-94916000D02*
X100668000Y-94916000D01*
X175080000Y-122920000D02*
X175080000Y-124250000D01*
X172480000Y-122920000D02*
X167340000Y-122920000D01*
X167340000Y-122920000D02*
X167340000Y-125580000D01*
X173750000Y-122920000D02*
X175080000Y-122920000D01*
X172480000Y-122920000D02*
X172480000Y-125580000D01*
X172480000Y-125580000D02*
X167340000Y-125580000D01*
X157600000Y-96250000D02*
X157200000Y-96250000D01*
X162700000Y-96250000D02*
X162300000Y-96250000D01*
X190500000Y-96250000D02*
X190500000Y-117250000D01*
X170300000Y-96250000D02*
X169900000Y-96250000D01*
X167700000Y-117250000D02*
X167300000Y-117250000D01*
X188100000Y-117250000D02*
X187700000Y-117250000D01*
X165200000Y-117250000D02*
X164800000Y-117250000D01*
X144900000Y-96250000D02*
X144500000Y-96250000D01*
X139500000Y-103050000D02*
X139500000Y-96250000D01*
X160100000Y-117250000D02*
X159700000Y-117250000D01*
X172800000Y-96250000D02*
X172400000Y-96250000D01*
X177900000Y-96250000D02*
X177500000Y-96250000D01*
X142300000Y-117250000D02*
X141900000Y-117250000D01*
X167700000Y-96250000D02*
X167300000Y-96250000D01*
X177900000Y-117250000D02*
X177500000Y-117250000D01*
X190500000Y-117250000D02*
X190200000Y-117250000D01*
X152500000Y-96250000D02*
X152100000Y-96250000D01*
X172800000Y-117250000D02*
X172400000Y-117250000D01*
X149900000Y-117250000D02*
X149500000Y-117250000D01*
X139500000Y-105250000D02*
X139500000Y-105650000D01*
X170300000Y-117250000D02*
X169900000Y-117250000D01*
X147400000Y-117250000D02*
X147000000Y-117250000D01*
X180400000Y-117250000D02*
X180000000Y-117250000D01*
X175400000Y-117250000D02*
X175000000Y-117250000D01*
X155000000Y-96250000D02*
X154600000Y-96250000D01*
X155000000Y-117250000D02*
X154600000Y-117250000D01*
X149900000Y-96250000D02*
X149500000Y-96250000D01*
X175400000Y-96250000D02*
X175000000Y-96250000D01*
X139500000Y-117250000D02*
X139500000Y-110450000D01*
X160100000Y-96250000D02*
X159700000Y-96250000D01*
X183000000Y-117250000D02*
X182600000Y-117250000D01*
X185500000Y-117250000D02*
X185100000Y-117250000D01*
X147400000Y-96250000D02*
X147000000Y-96250000D01*
X180400000Y-96250000D02*
X180000000Y-96250000D01*
X183000000Y-96250000D02*
X182600000Y-96250000D01*
X144900000Y-117250000D02*
X144500000Y-117250000D01*
X142300000Y-96250000D02*
X141900000Y-96250000D01*
X188100000Y-96250000D02*
X187700000Y-96250000D01*
X165200000Y-96250000D02*
X164800000Y-96250000D01*
X152500000Y-117250000D02*
X152100000Y-117250000D01*
X187833000Y-99257000D02*
X190500000Y-99257000D01*
X187833000Y-96250000D02*
X187833000Y-99257000D01*
X139500000Y-107850000D02*
X139500000Y-108250000D01*
X190500000Y-96250000D02*
X190200000Y-96250000D01*
X157600000Y-117250000D02*
X157200000Y-117250000D01*
X185500000Y-96250000D02*
X185100000Y-96250000D01*
X162700000Y-117250000D02*
X162300000Y-117250000D01*
X127416000Y-71028000D02*
X121956000Y-71028000D01*
X127416000Y-121948000D02*
X127416000Y-71028000D01*
X112006000Y-70968000D02*
X112006000Y-122008000D01*
X114496000Y-71028000D02*
X114496000Y-121948000D01*
X129906000Y-70968000D02*
X112006000Y-70968000D01*
X112006000Y-122008000D02*
X129906000Y-122008000D01*
X119956000Y-71028000D02*
X114496000Y-71028000D01*
X129906000Y-122008000D02*
X129906000Y-70968000D01*
X114496000Y-121948000D02*
X127416000Y-121948000D01*
X119956000Y-71028000D02*
G75*
G03*
X121956000Y-71028000I1000000J0D01*
G01*
X145484000Y-71018000D02*
X145484000Y-91458000D01*
X150784000Y-91458000D02*
X150784000Y-71018000D01*
X142994000Y-70958000D02*
X142994000Y-91518000D01*
X153274000Y-91518000D02*
X153274000Y-70958000D01*
X153274000Y-70958000D02*
X142994000Y-70958000D01*
X145484000Y-91458000D02*
X150784000Y-91458000D01*
X142994000Y-91518000D02*
X153274000Y-91518000D01*
X147134000Y-71018000D02*
X145484000Y-71018000D01*
X150784000Y-71018000D02*
X149134000Y-71018000D01*
X147134000Y-71018000D02*
G75*
G03*
X149134000Y-71018000I1000000J0D01*
G01*
X141610000Y-88978000D02*
X141610000Y-70958000D01*
X139120000Y-71018000D02*
X137470000Y-71018000D01*
X139120000Y-88918000D02*
X139120000Y-71018000D01*
X131330000Y-88978000D02*
X141610000Y-88978000D01*
X141610000Y-70958000D02*
X131330000Y-70958000D01*
X135470000Y-71018000D02*
X133820000Y-71018000D01*
X133820000Y-71018000D02*
X133820000Y-88918000D01*
X133820000Y-88918000D02*
X139120000Y-88918000D01*
X131330000Y-70958000D02*
X131330000Y-88978000D01*
X135470000Y-71018000D02*
G75*
G03*
X137470000Y-71018000I1000000J0D01*
G01*
X152450000Y-104970000D02*
X158990000Y-104970000D01*
X152450000Y-102230000D02*
X152450000Y-104970000D01*
X159760000Y-103600000D02*
X158990000Y-103600000D01*
X151680000Y-103600000D02*
X152450000Y-103600000D01*
X158990000Y-104970000D02*
X158990000Y-102230000D01*
X158990000Y-102230000D02*
X152450000Y-102230000D01*
X173190000Y-104970000D02*
X173190000Y-102230000D01*
X166650000Y-102230000D02*
X166650000Y-104970000D01*
X173960000Y-103600000D02*
X173190000Y-103600000D01*
X166650000Y-104970000D02*
X173190000Y-104970000D01*
X173190000Y-102230000D02*
X166650000Y-102230000D01*
X165880000Y-103600000D02*
X166650000Y-103600000D01*
X158990000Y-108430000D02*
X152450000Y-108430000D01*
X151680000Y-109800000D02*
X152450000Y-109800000D01*
X159760000Y-109800000D02*
X158990000Y-109800000D01*
X152450000Y-111170000D02*
X158990000Y-111170000D01*
X158990000Y-111170000D02*
X158990000Y-108430000D01*
X152450000Y-108430000D02*
X152450000Y-111170000D01*
X173960000Y-109800000D02*
X173190000Y-109800000D01*
X173190000Y-108430000D02*
X166650000Y-108430000D01*
X165880000Y-109800000D02*
X166650000Y-109800000D01*
X173190000Y-111170000D02*
X173190000Y-108430000D01*
X166650000Y-111170000D02*
X173190000Y-111170000D01*
X166650000Y-108430000D02*
X166650000Y-111170000D01*
X136580000Y-119010000D02*
X136580000Y-95810000D01*
X133780000Y-95810000D02*
X133780000Y-119010000D01*
X136580000Y-95810000D02*
X133780000Y-95810000D01*
X133780000Y-116300000D02*
X136580000Y-116300000D01*
X133780000Y-119010000D02*
X136580000Y-119010000D01*
D14*
X97700000Y-113000000D03*
D15*
X106200000Y-107600000D03*
X104500000Y-110100000D03*
D14*
X109000000Y-117300000D03*
D15*
X101200000Y-117500000D03*
%LPC*%
G36*
G01*
X106300000Y-67351000D02*
X104700000Y-67351000D01*
G75*
G02*
X104649000Y-67300000I0J51000D01*
G01*
X104649000Y-65700000D01*
G75*
G02*
X104700000Y-65649000I51000J0D01*
G01*
X106300000Y-65649000D01*
G75*
G02*
X106351000Y-65700000I0J-51000D01*
G01*
X106351000Y-67300000D01*
G75*
G02*
X106300000Y-67351000I-51000J0D01*
G01*
G37*
D16*
X105500000Y-64000000D03*
X106608000Y-93036000D03*
X109108000Y-93036000D03*
X98858000Y-93036000D03*
X101358000Y-93036000D03*
X131624000Y-110184000D03*
X131624000Y-107684000D03*
X152452000Y-69564000D03*
X149952000Y-69564000D03*
X140778000Y-69564000D03*
X138278000Y-69564000D03*
G36*
G01*
X147299000Y-125650000D02*
X147299000Y-123850000D01*
G75*
G02*
X147350000Y-123799000I51000J0D01*
G01*
X149150000Y-123799000D01*
G75*
G02*
X149201000Y-123850000I0J-51000D01*
G01*
X149201000Y-125650000D01*
G75*
G02*
X149150000Y-125701000I-51000J0D01*
G01*
X147350000Y-125701000D01*
G75*
G02*
X147299000Y-125650000I0J51000D01*
G01*
G37*
D17*
X150790000Y-124750000D03*
G36*
G01*
X156049000Y-125650000D02*
X156049000Y-123850000D01*
G75*
G02*
X156100000Y-123799000I51000J0D01*
G01*
X157900000Y-123799000D01*
G75*
G02*
X157951000Y-123850000I0J-51000D01*
G01*
X157951000Y-125650000D01*
G75*
G02*
X157900000Y-125701000I-51000J0D01*
G01*
X156100000Y-125701000D01*
G75*
G02*
X156049000Y-125650000I0J51000D01*
G01*
G37*
X159540000Y-124750000D03*
G36*
G01*
X120350000Y-67401000D02*
X118650000Y-67401000D01*
G75*
G02*
X118599000Y-67350000I0J51000D01*
G01*
X118599000Y-65650000D01*
G75*
G02*
X118650000Y-65599000I51000J0D01*
G01*
X120350000Y-65599000D01*
G75*
G02*
X120401000Y-65650000I0J-51000D01*
G01*
X120401000Y-67350000D01*
G75*
G02*
X120350000Y-67401000I-51000J0D01*
G01*
G37*
D18*
X119500000Y-63960000D03*
X122040000Y-66500000D03*
X122040000Y-63960000D03*
X124580000Y-66500000D03*
X124580000Y-63960000D03*
X127120000Y-66500000D03*
X127120000Y-63960000D03*
X129660000Y-66500000D03*
X129660000Y-63960000D03*
X132200000Y-66500000D03*
X132200000Y-63960000D03*
X134740000Y-66500000D03*
X134740000Y-63960000D03*
X137280000Y-66500000D03*
X137280000Y-63960000D03*
X139820000Y-66500000D03*
X139820000Y-63960000D03*
X142360000Y-66500000D03*
X142360000Y-63960000D03*
X144900000Y-66500000D03*
X144900000Y-63960000D03*
X147440000Y-66500000D03*
X147440000Y-63960000D03*
X149980000Y-66500000D03*
X149980000Y-63960000D03*
X152520000Y-66500000D03*
X152520000Y-63960000D03*
X155060000Y-66500000D03*
X155060000Y-63960000D03*
X157600000Y-66500000D03*
X157600000Y-63960000D03*
X160140000Y-66500000D03*
X160140000Y-63960000D03*
X162680000Y-66500000D03*
X162680000Y-63960000D03*
X165220000Y-66500000D03*
X165220000Y-63960000D03*
X167760000Y-66500000D03*
X167760000Y-63960000D03*
G36*
G01*
X99002000Y-84213000D02*
X99002000Y-85913000D01*
G75*
G02*
X98951000Y-85964000I-51000J0D01*
G01*
X97251000Y-85964000D01*
G75*
G02*
X97200000Y-85913000I0J51000D01*
G01*
X97200000Y-84213000D01*
G75*
G02*
X97251000Y-84162000I51000J0D01*
G01*
X98951000Y-84162000D01*
G75*
G02*
X99002000Y-84213000I0J-51000D01*
G01*
G37*
X95561000Y-85063000D03*
X98101000Y-82523000D03*
X95561000Y-82523000D03*
X98101000Y-79983000D03*
X95561000Y-79983000D03*
X98101000Y-77443000D03*
X95561000Y-77443000D03*
X98101000Y-74903000D03*
X95561000Y-74903000D03*
X98101000Y-72363000D03*
X95561000Y-72363000D03*
X98101000Y-69823000D03*
X95561000Y-69823000D03*
D19*
X97700000Y-113000000D03*
D20*
X106200000Y-107600000D03*
X104500000Y-110100000D03*
D19*
X109000000Y-117300000D03*
D20*
X101200000Y-117500000D03*
G36*
G01*
X181349000Y-78850000D02*
X181349000Y-77150000D01*
G75*
G02*
X181400000Y-77099000I51000J0D01*
G01*
X183100000Y-77099000D01*
G75*
G02*
X183151000Y-77150000I0J-51000D01*
G01*
X183151000Y-78850000D01*
G75*
G02*
X183100000Y-78901000I-51000J0D01*
G01*
X181400000Y-78901000D01*
G75*
G02*
X181349000Y-78850000I0J51000D01*
G01*
G37*
D18*
X182250000Y-80540000D03*
X182250000Y-83080000D03*
X182250000Y-85620000D03*
X182250000Y-88160000D03*
X182250000Y-90700000D03*
G36*
G01*
X185582000Y-66106000D02*
X185582000Y-64406000D01*
G75*
G02*
X185633000Y-64355000I51000J0D01*
G01*
X187333000Y-64355000D01*
G75*
G02*
X187384000Y-64406000I0J-51000D01*
G01*
X187384000Y-66106000D01*
G75*
G02*
X187333000Y-66157000I-51000J0D01*
G01*
X185633000Y-66157000D01*
G75*
G02*
X185582000Y-66106000I0J51000D01*
G01*
G37*
X189023000Y-65256000D03*
X186483000Y-67796000D03*
X189023000Y-67796000D03*
X186483000Y-70336000D03*
X189023000Y-70336000D03*
X186483000Y-72876000D03*
X189023000Y-72876000D03*
G36*
G01*
X178982000Y-66106000D02*
X178982000Y-64406000D01*
G75*
G02*
X179033000Y-64355000I51000J0D01*
G01*
X180733000Y-64355000D01*
G75*
G02*
X180784000Y-64406000I0J-51000D01*
G01*
X180784000Y-66106000D01*
G75*
G02*
X180733000Y-66157000I-51000J0D01*
G01*
X179033000Y-66157000D01*
G75*
G02*
X178982000Y-66106000I0J51000D01*
G01*
G37*
X182423000Y-65256000D03*
X179883000Y-67796000D03*
X182423000Y-67796000D03*
X179883000Y-70336000D03*
X182423000Y-70336000D03*
X179883000Y-72876000D03*
X182423000Y-72876000D03*
G36*
G01*
X175575000Y-86924000D02*
X175575000Y-85224000D01*
G75*
G02*
X175626000Y-85173000I51000J0D01*
G01*
X177326000Y-85173000D01*
G75*
G02*
X177377000Y-85224000I0J-51000D01*
G01*
X177377000Y-86924000D01*
G75*
G02*
X177326000Y-86975000I-51000J0D01*
G01*
X175626000Y-86975000D01*
G75*
G02*
X175575000Y-86924000I0J51000D01*
G01*
G37*
X176476000Y-88614000D03*
X176476000Y-91154000D03*
D21*
X97500000Y-58500000D03*
X186500000Y-58500000D03*
X97500000Y-124500000D03*
X186500000Y-124500000D03*
D16*
X134750000Y-123250000D03*
D22*
X144910000Y-123250000D03*
D16*
X134750000Y-126500000D03*
D22*
X144910000Y-126500000D03*
D16*
X98858000Y-99536000D03*
D22*
X109018000Y-99536000D03*
D16*
X98858000Y-102786000D03*
D22*
X109018000Y-102786000D03*
D16*
X98858000Y-96286000D03*
D22*
X109018000Y-96286000D03*
G36*
G01*
X172900000Y-123349000D02*
X174600000Y-123349000D01*
G75*
G02*
X174651000Y-123400000I0J-51000D01*
G01*
X174651000Y-125100000D01*
G75*
G02*
X174600000Y-125151000I-51000J0D01*
G01*
X172900000Y-125151000D01*
G75*
G02*
X172849000Y-125100000I0J51000D01*
G01*
X172849000Y-123400000D01*
G75*
G02*
X172900000Y-123349000I51000J0D01*
G01*
G37*
D18*
X171210000Y-124250000D03*
X168670000Y-124250000D03*
D23*
X185970000Y-109175000D03*
X185970000Y-104325000D03*
D24*
X189000000Y-109475000D03*
X189000000Y-104025000D03*
D18*
X189130000Y-97860000D03*
G36*
G01*
X188280000Y-95159000D02*
X189980000Y-95159000D01*
G75*
G02*
X190031000Y-95210000I0J-51000D01*
G01*
X190031000Y-98710000D01*
G75*
G02*
X189980000Y-98761000I-51000J0D01*
G01*
X188280000Y-98761000D01*
G75*
G02*
X188229000Y-98710000I0J51000D01*
G01*
X188229000Y-95210000D01*
G75*
G02*
X188280000Y-95159000I51000J0D01*
G01*
G37*
X186590000Y-97860000D03*
G36*
G01*
X185740000Y-95159000D02*
X187440000Y-95159000D01*
G75*
G02*
X187491000Y-95210000I0J-51000D01*
G01*
X187491000Y-98710000D01*
G75*
G02*
X187440000Y-98761000I-51000J0D01*
G01*
X185740000Y-98761000D01*
G75*
G02*
X185689000Y-98710000I0J51000D01*
G01*
X185689000Y-95210000D01*
G75*
G02*
X185740000Y-95159000I51000J0D01*
G01*
G37*
G36*
G01*
X183200000Y-95159000D02*
X184900000Y-95159000D01*
G75*
G02*
X184951000Y-95210000I0J-51000D01*
G01*
X184951000Y-98710000D01*
G75*
G02*
X184900000Y-98761000I-51000J0D01*
G01*
X183200000Y-98761000D01*
G75*
G02*
X183149000Y-98710000I0J51000D01*
G01*
X183149000Y-95210000D01*
G75*
G02*
X183200000Y-95159000I51000J0D01*
G01*
G37*
G36*
G01*
X183200000Y-96959000D02*
X184900000Y-96959000D01*
G75*
G02*
X184951000Y-97010000I0J-51000D01*
G01*
X184951000Y-98710000D01*
G75*
G02*
X184900000Y-98761000I-51000J0D01*
G01*
X183200000Y-98761000D01*
G75*
G02*
X183149000Y-98710000I0J51000D01*
G01*
X183149000Y-97010000D01*
G75*
G02*
X183200000Y-96959000I51000J0D01*
G01*
G37*
G36*
G01*
X180660000Y-95159000D02*
X182360000Y-95159000D01*
G75*
G02*
X182411000Y-95210000I0J-51000D01*
G01*
X182411000Y-98710000D01*
G75*
G02*
X182360000Y-98761000I-51000J0D01*
G01*
X180660000Y-98761000D01*
G75*
G02*
X180609000Y-98710000I0J51000D01*
G01*
X180609000Y-95210000D01*
G75*
G02*
X180660000Y-95159000I51000J0D01*
G01*
G37*
X181510000Y-97860000D03*
G36*
G01*
X178120000Y-95159000D02*
X179820000Y-95159000D01*
G75*
G02*
X179871000Y-95210000I0J-51000D01*
G01*
X179871000Y-98710000D01*
G75*
G02*
X179820000Y-98761000I-51000J0D01*
G01*
X178120000Y-98761000D01*
G75*
G02*
X178069000Y-98710000I0J51000D01*
G01*
X178069000Y-95210000D01*
G75*
G02*
X178120000Y-95159000I51000J0D01*
G01*
G37*
X178970000Y-97860000D03*
G36*
G01*
X175580000Y-95159000D02*
X177280000Y-95159000D01*
G75*
G02*
X177331000Y-95210000I0J-51000D01*
G01*
X177331000Y-98710000D01*
G75*
G02*
X177280000Y-98761000I-51000J0D01*
G01*
X175580000Y-98761000D01*
G75*
G02*
X175529000Y-98710000I0J51000D01*
G01*
X175529000Y-95210000D01*
G75*
G02*
X175580000Y-95159000I51000J0D01*
G01*
G37*
X176430000Y-97860000D03*
X173890000Y-97860000D03*
G36*
G01*
X173040000Y-95159000D02*
X174740000Y-95159000D01*
G75*
G02*
X174791000Y-95210000I0J-51000D01*
G01*
X174791000Y-98710000D01*
G75*
G02*
X174740000Y-98761000I-51000J0D01*
G01*
X173040000Y-98761000D01*
G75*
G02*
X172989000Y-98710000I0J51000D01*
G01*
X172989000Y-95210000D01*
G75*
G02*
X173040000Y-95159000I51000J0D01*
G01*
G37*
G36*
G01*
X170500000Y-95159000D02*
X172200000Y-95159000D01*
G75*
G02*
X172251000Y-95210000I0J-51000D01*
G01*
X172251000Y-98710000D01*
G75*
G02*
X172200000Y-98761000I-51000J0D01*
G01*
X170500000Y-98761000D01*
G75*
G02*
X170449000Y-98710000I0J51000D01*
G01*
X170449000Y-95210000D01*
G75*
G02*
X170500000Y-95159000I51000J0D01*
G01*
G37*
G36*
G01*
X170500000Y-96959000D02*
X172200000Y-96959000D01*
G75*
G02*
X172251000Y-97010000I0J-51000D01*
G01*
X172251000Y-98710000D01*
G75*
G02*
X172200000Y-98761000I-51000J0D01*
G01*
X170500000Y-98761000D01*
G75*
G02*
X170449000Y-98710000I0J51000D01*
G01*
X170449000Y-97010000D01*
G75*
G02*
X170500000Y-96959000I51000J0D01*
G01*
G37*
X168810000Y-97860000D03*
G36*
G01*
X167960000Y-95159000D02*
X169660000Y-95159000D01*
G75*
G02*
X169711000Y-95210000I0J-51000D01*
G01*
X169711000Y-98710000D01*
G75*
G02*
X169660000Y-98761000I-51000J0D01*
G01*
X167960000Y-98761000D01*
G75*
G02*
X167909000Y-98710000I0J51000D01*
G01*
X167909000Y-95210000D01*
G75*
G02*
X167960000Y-95159000I51000J0D01*
G01*
G37*
X166270000Y-97860000D03*
G36*
G01*
X165420000Y-95159000D02*
X167120000Y-95159000D01*
G75*
G02*
X167171000Y-95210000I0J-51000D01*
G01*
X167171000Y-98710000D01*
G75*
G02*
X167120000Y-98761000I-51000J0D01*
G01*
X165420000Y-98761000D01*
G75*
G02*
X165369000Y-98710000I0J51000D01*
G01*
X165369000Y-95210000D01*
G75*
G02*
X165420000Y-95159000I51000J0D01*
G01*
G37*
G36*
G01*
X162880000Y-95159000D02*
X164580000Y-95159000D01*
G75*
G02*
X164631000Y-95210000I0J-51000D01*
G01*
X164631000Y-98710000D01*
G75*
G02*
X164580000Y-98761000I-51000J0D01*
G01*
X162880000Y-98761000D01*
G75*
G02*
X162829000Y-98710000I0J51000D01*
G01*
X162829000Y-95210000D01*
G75*
G02*
X162880000Y-95159000I51000J0D01*
G01*
G37*
X163730000Y-97860000D03*
G36*
G01*
X160340000Y-95159000D02*
X162040000Y-95159000D01*
G75*
G02*
X162091000Y-95210000I0J-51000D01*
G01*
X162091000Y-98710000D01*
G75*
G02*
X162040000Y-98761000I-51000J0D01*
G01*
X160340000Y-98761000D01*
G75*
G02*
X160289000Y-98710000I0J51000D01*
G01*
X160289000Y-95210000D01*
G75*
G02*
X160340000Y-95159000I51000J0D01*
G01*
G37*
X161190000Y-97860000D03*
G36*
G01*
X157800000Y-95159000D02*
X159500000Y-95159000D01*
G75*
G02*
X159551000Y-95210000I0J-51000D01*
G01*
X159551000Y-98710000D01*
G75*
G02*
X159500000Y-98761000I-51000J0D01*
G01*
X157800000Y-98761000D01*
G75*
G02*
X157749000Y-98710000I0J51000D01*
G01*
X157749000Y-95210000D01*
G75*
G02*
X157800000Y-95159000I51000J0D01*
G01*
G37*
G36*
G01*
X157800000Y-96959000D02*
X159500000Y-96959000D01*
G75*
G02*
X159551000Y-97010000I0J-51000D01*
G01*
X159551000Y-98710000D01*
G75*
G02*
X159500000Y-98761000I-51000J0D01*
G01*
X157800000Y-98761000D01*
G75*
G02*
X157749000Y-98710000I0J51000D01*
G01*
X157749000Y-97010000D01*
G75*
G02*
X157800000Y-96959000I51000J0D01*
G01*
G37*
G36*
G01*
X155260000Y-95159000D02*
X156960000Y-95159000D01*
G75*
G02*
X157011000Y-95210000I0J-51000D01*
G01*
X157011000Y-98710000D01*
G75*
G02*
X156960000Y-98761000I-51000J0D01*
G01*
X155260000Y-98761000D01*
G75*
G02*
X155209000Y-98710000I0J51000D01*
G01*
X155209000Y-95210000D01*
G75*
G02*
X155260000Y-95159000I51000J0D01*
G01*
G37*
X156110000Y-97860000D03*
G36*
G01*
X152720000Y-95159000D02*
X154420000Y-95159000D01*
G75*
G02*
X154471000Y-95210000I0J-51000D01*
G01*
X154471000Y-98710000D01*
G75*
G02*
X154420000Y-98761000I-51000J0D01*
G01*
X152720000Y-98761000D01*
G75*
G02*
X152669000Y-98710000I0J51000D01*
G01*
X152669000Y-95210000D01*
G75*
G02*
X152720000Y-95159000I51000J0D01*
G01*
G37*
X153570000Y-97860000D03*
X151030000Y-97860000D03*
G36*
G01*
X150180000Y-95159000D02*
X151880000Y-95159000D01*
G75*
G02*
X151931000Y-95210000I0J-51000D01*
G01*
X151931000Y-98710000D01*
G75*
G02*
X151880000Y-98761000I-51000J0D01*
G01*
X150180000Y-98761000D01*
G75*
G02*
X150129000Y-98710000I0J51000D01*
G01*
X150129000Y-95210000D01*
G75*
G02*
X150180000Y-95159000I51000J0D01*
G01*
G37*
X148490000Y-97860000D03*
G36*
G01*
X147640000Y-95159000D02*
X149340000Y-95159000D01*
G75*
G02*
X149391000Y-95210000I0J-51000D01*
G01*
X149391000Y-98710000D01*
G75*
G02*
X149340000Y-98761000I-51000J0D01*
G01*
X147640000Y-98761000D01*
G75*
G02*
X147589000Y-98710000I0J51000D01*
G01*
X147589000Y-95210000D01*
G75*
G02*
X147640000Y-95159000I51000J0D01*
G01*
G37*
G36*
G01*
X145100000Y-96959000D02*
X146800000Y-96959000D01*
G75*
G02*
X146851000Y-97010000I0J-51000D01*
G01*
X146851000Y-98710000D01*
G75*
G02*
X146800000Y-98761000I-51000J0D01*
G01*
X145100000Y-98761000D01*
G75*
G02*
X145049000Y-98710000I0J51000D01*
G01*
X145049000Y-97010000D01*
G75*
G02*
X145100000Y-96959000I51000J0D01*
G01*
G37*
G36*
G01*
X145100000Y-95159000D02*
X146800000Y-95159000D01*
G75*
G02*
X146851000Y-95210000I0J-51000D01*
G01*
X146851000Y-98710000D01*
G75*
G02*
X146800000Y-98761000I-51000J0D01*
G01*
X145100000Y-98761000D01*
G75*
G02*
X145049000Y-98710000I0J51000D01*
G01*
X145049000Y-95210000D01*
G75*
G02*
X145100000Y-95159000I51000J0D01*
G01*
G37*
X143410000Y-97860000D03*
G36*
G01*
X142560000Y-95159000D02*
X144260000Y-95159000D01*
G75*
G02*
X144311000Y-95210000I0J-51000D01*
G01*
X144311000Y-98710000D01*
G75*
G02*
X144260000Y-98761000I-51000J0D01*
G01*
X142560000Y-98761000D01*
G75*
G02*
X142509000Y-98710000I0J51000D01*
G01*
X142509000Y-95210000D01*
G75*
G02*
X142560000Y-95159000I51000J0D01*
G01*
G37*
G36*
G01*
X140020000Y-95159000D02*
X141720000Y-95159000D01*
G75*
G02*
X141771000Y-95210000I0J-51000D01*
G01*
X141771000Y-98710000D01*
G75*
G02*
X141720000Y-98761000I-51000J0D01*
G01*
X140020000Y-98761000D01*
G75*
G02*
X139969000Y-98710000I0J51000D01*
G01*
X139969000Y-95210000D01*
G75*
G02*
X140020000Y-95159000I51000J0D01*
G01*
G37*
X140870000Y-97860000D03*
G36*
G01*
X140020000Y-114739000D02*
X141720000Y-114739000D01*
G75*
G02*
X141771000Y-114790000I0J-51000D01*
G01*
X141771000Y-118290000D01*
G75*
G02*
X141720000Y-118341000I-51000J0D01*
G01*
X140020000Y-118341000D01*
G75*
G02*
X139969000Y-118290000I0J51000D01*
G01*
X139969000Y-114790000D01*
G75*
G02*
X140020000Y-114739000I51000J0D01*
G01*
G37*
X140870000Y-115640000D03*
X143410000Y-115640000D03*
G36*
G01*
X142560000Y-114739000D02*
X144260000Y-114739000D01*
G75*
G02*
X144311000Y-114790000I0J-51000D01*
G01*
X144311000Y-118290000D01*
G75*
G02*
X144260000Y-118341000I-51000J0D01*
G01*
X142560000Y-118341000D01*
G75*
G02*
X142509000Y-118290000I0J51000D01*
G01*
X142509000Y-114790000D01*
G75*
G02*
X142560000Y-114739000I51000J0D01*
G01*
G37*
G36*
G01*
X145100000Y-114739000D02*
X146800000Y-114739000D01*
G75*
G02*
X146851000Y-114790000I0J-51000D01*
G01*
X146851000Y-118290000D01*
G75*
G02*
X146800000Y-118341000I-51000J0D01*
G01*
X145100000Y-118341000D01*
G75*
G02*
X145049000Y-118290000I0J51000D01*
G01*
X145049000Y-114790000D01*
G75*
G02*
X145100000Y-114739000I51000J0D01*
G01*
G37*
G36*
G01*
X145100000Y-114739000D02*
X146800000Y-114739000D01*
G75*
G02*
X146851000Y-114790000I0J-51000D01*
G01*
X146851000Y-116490000D01*
G75*
G02*
X146800000Y-116541000I-51000J0D01*
G01*
X145100000Y-116541000D01*
G75*
G02*
X145049000Y-116490000I0J51000D01*
G01*
X145049000Y-114790000D01*
G75*
G02*
X145100000Y-114739000I51000J0D01*
G01*
G37*
X148490000Y-115640000D03*
G36*
G01*
X147640000Y-114739000D02*
X149340000Y-114739000D01*
G75*
G02*
X149391000Y-114790000I0J-51000D01*
G01*
X149391000Y-118290000D01*
G75*
G02*
X149340000Y-118341000I-51000J0D01*
G01*
X147640000Y-118341000D01*
G75*
G02*
X147589000Y-118290000I0J51000D01*
G01*
X147589000Y-114790000D01*
G75*
G02*
X147640000Y-114739000I51000J0D01*
G01*
G37*
X151030000Y-115640000D03*
G36*
G01*
X150180000Y-114739000D02*
X151880000Y-114739000D01*
G75*
G02*
X151931000Y-114790000I0J-51000D01*
G01*
X151931000Y-118290000D01*
G75*
G02*
X151880000Y-118341000I-51000J0D01*
G01*
X150180000Y-118341000D01*
G75*
G02*
X150129000Y-118290000I0J51000D01*
G01*
X150129000Y-114790000D01*
G75*
G02*
X150180000Y-114739000I51000J0D01*
G01*
G37*
G36*
G01*
X152720000Y-114739000D02*
X154420000Y-114739000D01*
G75*
G02*
X154471000Y-114790000I0J-51000D01*
G01*
X154471000Y-118290000D01*
G75*
G02*
X154420000Y-118341000I-51000J0D01*
G01*
X152720000Y-118341000D01*
G75*
G02*
X152669000Y-118290000I0J51000D01*
G01*
X152669000Y-114790000D01*
G75*
G02*
X152720000Y-114739000I51000J0D01*
G01*
G37*
X153570000Y-115640000D03*
X156110000Y-115640000D03*
G36*
G01*
X155260000Y-114739000D02*
X156960000Y-114739000D01*
G75*
G02*
X157011000Y-114790000I0J-51000D01*
G01*
X157011000Y-118290000D01*
G75*
G02*
X156960000Y-118341000I-51000J0D01*
G01*
X155260000Y-118341000D01*
G75*
G02*
X155209000Y-118290000I0J51000D01*
G01*
X155209000Y-114790000D01*
G75*
G02*
X155260000Y-114739000I51000J0D01*
G01*
G37*
G36*
G01*
X157800000Y-114739000D02*
X159500000Y-114739000D01*
G75*
G02*
X159551000Y-114790000I0J-51000D01*
G01*
X159551000Y-118290000D01*
G75*
G02*
X159500000Y-118341000I-51000J0D01*
G01*
X157800000Y-118341000D01*
G75*
G02*
X157749000Y-118290000I0J51000D01*
G01*
X157749000Y-114790000D01*
G75*
G02*
X157800000Y-114739000I51000J0D01*
G01*
G37*
G36*
G01*
X157800000Y-114739000D02*
X159500000Y-114739000D01*
G75*
G02*
X159551000Y-114790000I0J-51000D01*
G01*
X159551000Y-116490000D01*
G75*
G02*
X159500000Y-116541000I-51000J0D01*
G01*
X157800000Y-116541000D01*
G75*
G02*
X157749000Y-116490000I0J51000D01*
G01*
X157749000Y-114790000D01*
G75*
G02*
X157800000Y-114739000I51000J0D01*
G01*
G37*
X161190000Y-115640000D03*
G36*
G01*
X160340000Y-114739000D02*
X162040000Y-114739000D01*
G75*
G02*
X162091000Y-114790000I0J-51000D01*
G01*
X162091000Y-118290000D01*
G75*
G02*
X162040000Y-118341000I-51000J0D01*
G01*
X160340000Y-118341000D01*
G75*
G02*
X160289000Y-118290000I0J51000D01*
G01*
X160289000Y-114790000D01*
G75*
G02*
X160340000Y-114739000I51000J0D01*
G01*
G37*
G36*
G01*
X162880000Y-114739000D02*
X164580000Y-114739000D01*
G75*
G02*
X164631000Y-114790000I0J-51000D01*
G01*
X164631000Y-118290000D01*
G75*
G02*
X164580000Y-118341000I-51000J0D01*
G01*
X162880000Y-118341000D01*
G75*
G02*
X162829000Y-118290000I0J51000D01*
G01*
X162829000Y-114790000D01*
G75*
G02*
X162880000Y-114739000I51000J0D01*
G01*
G37*
X163730000Y-115640000D03*
G36*
G01*
X165420000Y-114739000D02*
X167120000Y-114739000D01*
G75*
G02*
X167171000Y-114790000I0J-51000D01*
G01*
X167171000Y-118290000D01*
G75*
G02*
X167120000Y-118341000I-51000J0D01*
G01*
X165420000Y-118341000D01*
G75*
G02*
X165369000Y-118290000I0J51000D01*
G01*
X165369000Y-114790000D01*
G75*
G02*
X165420000Y-114739000I51000J0D01*
G01*
G37*
X166270000Y-115640000D03*
G36*
G01*
X167960000Y-114739000D02*
X169660000Y-114739000D01*
G75*
G02*
X169711000Y-114790000I0J-51000D01*
G01*
X169711000Y-118290000D01*
G75*
G02*
X169660000Y-118341000I-51000J0D01*
G01*
X167960000Y-118341000D01*
G75*
G02*
X167909000Y-118290000I0J51000D01*
G01*
X167909000Y-114790000D01*
G75*
G02*
X167960000Y-114739000I51000J0D01*
G01*
G37*
X168810000Y-115640000D03*
G36*
G01*
X170500000Y-114739000D02*
X172200000Y-114739000D01*
G75*
G02*
X172251000Y-114790000I0J-51000D01*
G01*
X172251000Y-116490000D01*
G75*
G02*
X172200000Y-116541000I-51000J0D01*
G01*
X170500000Y-116541000D01*
G75*
G02*
X170449000Y-116490000I0J51000D01*
G01*
X170449000Y-114790000D01*
G75*
G02*
X170500000Y-114739000I51000J0D01*
G01*
G37*
G36*
G01*
X170500000Y-114739000D02*
X172200000Y-114739000D01*
G75*
G02*
X172251000Y-114790000I0J-51000D01*
G01*
X172251000Y-118290000D01*
G75*
G02*
X172200000Y-118341000I-51000J0D01*
G01*
X170500000Y-118341000D01*
G75*
G02*
X170449000Y-118290000I0J51000D01*
G01*
X170449000Y-114790000D01*
G75*
G02*
X170500000Y-114739000I51000J0D01*
G01*
G37*
X173890000Y-115640000D03*
G36*
G01*
X173040000Y-114739000D02*
X174740000Y-114739000D01*
G75*
G02*
X174791000Y-114790000I0J-51000D01*
G01*
X174791000Y-118290000D01*
G75*
G02*
X174740000Y-118341000I-51000J0D01*
G01*
X173040000Y-118341000D01*
G75*
G02*
X172989000Y-118290000I0J51000D01*
G01*
X172989000Y-114790000D01*
G75*
G02*
X173040000Y-114739000I51000J0D01*
G01*
G37*
G36*
G01*
X175580000Y-114739000D02*
X177280000Y-114739000D01*
G75*
G02*
X177331000Y-114790000I0J-51000D01*
G01*
X177331000Y-118290000D01*
G75*
G02*
X177280000Y-118341000I-51000J0D01*
G01*
X175580000Y-118341000D01*
G75*
G02*
X175529000Y-118290000I0J51000D01*
G01*
X175529000Y-114790000D01*
G75*
G02*
X175580000Y-114739000I51000J0D01*
G01*
G37*
X176430000Y-115640000D03*
X178970000Y-115640000D03*
G36*
G01*
X178120000Y-114739000D02*
X179820000Y-114739000D01*
G75*
G02*
X179871000Y-114790000I0J-51000D01*
G01*
X179871000Y-118290000D01*
G75*
G02*
X179820000Y-118341000I-51000J0D01*
G01*
X178120000Y-118341000D01*
G75*
G02*
X178069000Y-118290000I0J51000D01*
G01*
X178069000Y-114790000D01*
G75*
G02*
X178120000Y-114739000I51000J0D01*
G01*
G37*
G36*
G01*
X180660000Y-114739000D02*
X182360000Y-114739000D01*
G75*
G02*
X182411000Y-114790000I0J-51000D01*
G01*
X182411000Y-118290000D01*
G75*
G02*
X182360000Y-118341000I-51000J0D01*
G01*
X180660000Y-118341000D01*
G75*
G02*
X180609000Y-118290000I0J51000D01*
G01*
X180609000Y-114790000D01*
G75*
G02*
X180660000Y-114739000I51000J0D01*
G01*
G37*
X181510000Y-115640000D03*
G36*
G01*
X183200000Y-114739000D02*
X184900000Y-114739000D01*
G75*
G02*
X184951000Y-114790000I0J-51000D01*
G01*
X184951000Y-116490000D01*
G75*
G02*
X184900000Y-116541000I-51000J0D01*
G01*
X183200000Y-116541000D01*
G75*
G02*
X183149000Y-116490000I0J51000D01*
G01*
X183149000Y-114790000D01*
G75*
G02*
X183200000Y-114739000I51000J0D01*
G01*
G37*
G36*
G01*
X183200000Y-114739000D02*
X184900000Y-114739000D01*
G75*
G02*
X184951000Y-114790000I0J-51000D01*
G01*
X184951000Y-118290000D01*
G75*
G02*
X184900000Y-118341000I-51000J0D01*
G01*
X183200000Y-118341000D01*
G75*
G02*
X183149000Y-118290000I0J51000D01*
G01*
X183149000Y-114790000D01*
G75*
G02*
X183200000Y-114739000I51000J0D01*
G01*
G37*
G36*
G01*
X185740000Y-114739000D02*
X187440000Y-114739000D01*
G75*
G02*
X187491000Y-114790000I0J-51000D01*
G01*
X187491000Y-118290000D01*
G75*
G02*
X187440000Y-118341000I-51000J0D01*
G01*
X185740000Y-118341000D01*
G75*
G02*
X185689000Y-118290000I0J51000D01*
G01*
X185689000Y-114790000D01*
G75*
G02*
X185740000Y-114739000I51000J0D01*
G01*
G37*
X186590000Y-115640000D03*
X189130000Y-115640000D03*
G36*
G01*
X188280000Y-114739000D02*
X189980000Y-114739000D01*
G75*
G02*
X190031000Y-114790000I0J-51000D01*
G01*
X190031000Y-118290000D01*
G75*
G02*
X189980000Y-118341000I-51000J0D01*
G01*
X188280000Y-118341000D01*
G75*
G02*
X188229000Y-118290000I0J51000D01*
G01*
X188229000Y-114790000D01*
G75*
G02*
X188280000Y-114739000I51000J0D01*
G01*
G37*
X141100000Y-104210000D03*
G36*
G01*
X138399000Y-105060000D02*
X138399000Y-103360000D01*
G75*
G02*
X138450000Y-103309000I51000J0D01*
G01*
X141950000Y-103309000D01*
G75*
G02*
X142001000Y-103360000I0J-51000D01*
G01*
X142001000Y-105060000D01*
G75*
G02*
X141950000Y-105111000I-51000J0D01*
G01*
X138450000Y-105111000D01*
G75*
G02*
X138399000Y-105060000I0J51000D01*
G01*
G37*
G36*
G01*
X140250000Y-105849000D02*
X141950000Y-105849000D01*
G75*
G02*
X142001000Y-105900000I0J-51000D01*
G01*
X142001000Y-107600000D01*
G75*
G02*
X141950000Y-107651000I-51000J0D01*
G01*
X140250000Y-107651000D01*
G75*
G02*
X140199000Y-107600000I0J51000D01*
G01*
X140199000Y-105900000D01*
G75*
G02*
X140250000Y-105849000I51000J0D01*
G01*
G37*
G36*
G01*
X138399000Y-107600000D02*
X138399000Y-105900000D01*
G75*
G02*
X138450000Y-105849000I51000J0D01*
G01*
X141950000Y-105849000D01*
G75*
G02*
X142001000Y-105900000I0J-51000D01*
G01*
X142001000Y-107600000D01*
G75*
G02*
X141950000Y-107651000I-51000J0D01*
G01*
X138450000Y-107651000D01*
G75*
G02*
X138399000Y-107600000I0J51000D01*
G01*
G37*
G36*
G01*
X138399000Y-110140000D02*
X138399000Y-108440000D01*
G75*
G02*
X138450000Y-108389000I51000J0D01*
G01*
X141950000Y-108389000D01*
G75*
G02*
X142001000Y-108440000I0J-51000D01*
G01*
X142001000Y-110140000D01*
G75*
G02*
X141950000Y-110191000I-51000J0D01*
G01*
X138450000Y-110191000D01*
G75*
G02*
X138399000Y-110140000I0J51000D01*
G01*
G37*
X141100000Y-109290000D03*
G36*
G01*
X112485000Y-73158000D02*
X112485000Y-71558000D01*
G75*
G02*
X112536000Y-71507000I51000J0D01*
G01*
X114136000Y-71507000D01*
G75*
G02*
X114187000Y-71558000I0J-51000D01*
G01*
X114187000Y-73158000D01*
G75*
G02*
X114136000Y-73209000I-51000J0D01*
G01*
X112536000Y-73209000D01*
G75*
G02*
X112485000Y-73158000I0J51000D01*
G01*
G37*
D22*
X113336000Y-74898000D03*
X113336000Y-77438000D03*
X113336000Y-79978000D03*
X113336000Y-82518000D03*
X113336000Y-85058000D03*
X113336000Y-87598000D03*
X113336000Y-90138000D03*
X113336000Y-92678000D03*
X113336000Y-95218000D03*
X113336000Y-97758000D03*
X113336000Y-100298000D03*
X113336000Y-102838000D03*
X113336000Y-105378000D03*
X113336000Y-107918000D03*
X113336000Y-110458000D03*
X113336000Y-112998000D03*
X113336000Y-115538000D03*
X113336000Y-118078000D03*
X113336000Y-120618000D03*
X128576000Y-120618000D03*
X128576000Y-118078000D03*
X128576000Y-115538000D03*
X128576000Y-112998000D03*
X128576000Y-110458000D03*
X128576000Y-107918000D03*
X128576000Y-105378000D03*
X128576000Y-102838000D03*
X128576000Y-100298000D03*
X128576000Y-97758000D03*
X128576000Y-95218000D03*
X128576000Y-92678000D03*
X128576000Y-90138000D03*
X128576000Y-87598000D03*
X128576000Y-85058000D03*
X128576000Y-82518000D03*
X128576000Y-79978000D03*
X128576000Y-77438000D03*
X128576000Y-74898000D03*
X128576000Y-72358000D03*
G36*
G01*
X143473000Y-73148000D02*
X143473000Y-71548000D01*
G75*
G02*
X143524000Y-71497000I51000J0D01*
G01*
X145124000Y-71497000D01*
G75*
G02*
X145175000Y-71548000I0J-51000D01*
G01*
X145175000Y-73148000D01*
G75*
G02*
X145124000Y-73199000I-51000J0D01*
G01*
X143524000Y-73199000D01*
G75*
G02*
X143473000Y-73148000I0J51000D01*
G01*
G37*
X144324000Y-74888000D03*
X144324000Y-77428000D03*
X144324000Y-79968000D03*
X144324000Y-82508000D03*
X144324000Y-85048000D03*
X144324000Y-87588000D03*
X144324000Y-90128000D03*
X151944000Y-90128000D03*
X151944000Y-87588000D03*
X151944000Y-85048000D03*
X151944000Y-82508000D03*
X151944000Y-79968000D03*
X151944000Y-77428000D03*
X151944000Y-74888000D03*
X151944000Y-72348000D03*
G36*
G01*
X131809000Y-73148000D02*
X131809000Y-71548000D01*
G75*
G02*
X131860000Y-71497000I51000J0D01*
G01*
X133460000Y-71497000D01*
G75*
G02*
X133511000Y-71548000I0J-51000D01*
G01*
X133511000Y-73148000D01*
G75*
G02*
X133460000Y-73199000I-51000J0D01*
G01*
X131860000Y-73199000D01*
G75*
G02*
X131809000Y-73148000I0J51000D01*
G01*
G37*
X132660000Y-74888000D03*
X132660000Y-77428000D03*
X132660000Y-79968000D03*
X132660000Y-82508000D03*
X132660000Y-85048000D03*
X132660000Y-87588000D03*
X140280000Y-87588000D03*
X140280000Y-85048000D03*
X140280000Y-82508000D03*
X140280000Y-79968000D03*
X140280000Y-77428000D03*
X140280000Y-74888000D03*
X140280000Y-72348000D03*
D16*
X160800000Y-103600000D03*
D22*
X150640000Y-103600000D03*
D16*
X175000000Y-103600000D03*
D22*
X164840000Y-103600000D03*
D16*
X160800000Y-109800000D03*
D22*
X150640000Y-109800000D03*
D16*
X175000000Y-109800000D03*
D22*
X164840000Y-109800000D03*
G36*
G01*
X135980000Y-118421000D02*
X134380000Y-118421000D01*
G75*
G02*
X134329000Y-118370000I0J51000D01*
G01*
X134329000Y-116770000D01*
G75*
G02*
X134380000Y-116719000I51000J0D01*
G01*
X135980000Y-116719000D01*
G75*
G02*
X136031000Y-116770000I0J-51000D01*
G01*
X136031000Y-118370000D01*
G75*
G02*
X135980000Y-118421000I-51000J0D01*
G01*
G37*
X135180000Y-115030000D03*
X135180000Y-112490000D03*
X135180000Y-109950000D03*
X135180000Y-107410000D03*
X135180000Y-104870000D03*
X135180000Y-102330000D03*
X135180000Y-99790000D03*
X135180000Y-97250000D03*
M02*
