G04 #@! TF.GenerationSoftware,KiCad,Pcbnew,(6.0.4-0)*
G04 #@! TF.CreationDate,2022-06-01T20:22:46+09:00*
G04 #@! TF.ProjectId,KZ80-USBKBD,4b5a3830-2d55-4534-924b-42442e6b6963,rev?*
G04 #@! TF.SameCoordinates,Original*
G04 #@! TF.FileFunction,Soldermask,Bot*
G04 #@! TF.FilePolarity,Negative*
%FSLAX46Y46*%
G04 Gerber Fmt 4.6, Leading zero omitted, Abs format (unit mm)*
G04 Created by KiCad (PCBNEW (6.0.4-0)) date 2022-06-01 20:22:46*
%MOMM*%
%LPD*%
G01*
G04 APERTURE LIST*
%ADD10C,1.702000*%
%ADD11C,1.902000*%
%ADD12O,1.802000X1.802000*%
%ADD13O,2.102000X3.102000*%
%ADD14O,3.102000X2.102000*%
%ADD15C,3.302000*%
%ADD16O,1.702000X1.702000*%
%ADD17O,1.602000X1.602000*%
%ADD18O,1.902000X1.902000*%
G04 APERTURE END LIST*
G36*
G01*
X106300000Y-67351000D02*
X104700000Y-67351000D01*
G75*
G02*
X104649000Y-67300000I0J51000D01*
G01*
X104649000Y-65700000D01*
G75*
G02*
X104700000Y-65649000I51000J0D01*
G01*
X106300000Y-65649000D01*
G75*
G02*
X106351000Y-65700000I0J-51000D01*
G01*
X106351000Y-67300000D01*
G75*
G02*
X106300000Y-67351000I-51000J0D01*
G01*
G37*
D10*
X105500000Y-64000000D03*
X106608000Y-93036000D03*
X109108000Y-93036000D03*
X98858000Y-93036000D03*
X101358000Y-93036000D03*
X131624000Y-110184000D03*
X131624000Y-107684000D03*
X152452000Y-69564000D03*
X149952000Y-69564000D03*
X140778000Y-69564000D03*
X138278000Y-69564000D03*
G36*
G01*
X147299000Y-125650000D02*
X147299000Y-123850000D01*
G75*
G02*
X147350000Y-123799000I51000J0D01*
G01*
X149150000Y-123799000D01*
G75*
G02*
X149201000Y-123850000I0J-51000D01*
G01*
X149201000Y-125650000D01*
G75*
G02*
X149150000Y-125701000I-51000J0D01*
G01*
X147350000Y-125701000D01*
G75*
G02*
X147299000Y-125650000I0J51000D01*
G01*
G37*
D11*
X150790000Y-124750000D03*
G36*
G01*
X156049000Y-125650000D02*
X156049000Y-123850000D01*
G75*
G02*
X156100000Y-123799000I51000J0D01*
G01*
X157900000Y-123799000D01*
G75*
G02*
X157951000Y-123850000I0J-51000D01*
G01*
X157951000Y-125650000D01*
G75*
G02*
X157900000Y-125701000I-51000J0D01*
G01*
X156100000Y-125701000D01*
G75*
G02*
X156049000Y-125650000I0J51000D01*
G01*
G37*
X159540000Y-124750000D03*
G36*
G01*
X120350000Y-67401000D02*
X118650000Y-67401000D01*
G75*
G02*
X118599000Y-67350000I0J51000D01*
G01*
X118599000Y-65650000D01*
G75*
G02*
X118650000Y-65599000I51000J0D01*
G01*
X120350000Y-65599000D01*
G75*
G02*
X120401000Y-65650000I0J-51000D01*
G01*
X120401000Y-67350000D01*
G75*
G02*
X120350000Y-67401000I-51000J0D01*
G01*
G37*
D12*
X119500000Y-63960000D03*
X122040000Y-66500000D03*
X122040000Y-63960000D03*
X124580000Y-66500000D03*
X124580000Y-63960000D03*
X127120000Y-66500000D03*
X127120000Y-63960000D03*
X129660000Y-66500000D03*
X129660000Y-63960000D03*
X132200000Y-66500000D03*
X132200000Y-63960000D03*
X134740000Y-66500000D03*
X134740000Y-63960000D03*
X137280000Y-66500000D03*
X137280000Y-63960000D03*
X139820000Y-66500000D03*
X139820000Y-63960000D03*
X142360000Y-66500000D03*
X142360000Y-63960000D03*
X144900000Y-66500000D03*
X144900000Y-63960000D03*
X147440000Y-66500000D03*
X147440000Y-63960000D03*
X149980000Y-66500000D03*
X149980000Y-63960000D03*
X152520000Y-66500000D03*
X152520000Y-63960000D03*
X155060000Y-66500000D03*
X155060000Y-63960000D03*
X157600000Y-66500000D03*
X157600000Y-63960000D03*
X160140000Y-66500000D03*
X160140000Y-63960000D03*
X162680000Y-66500000D03*
X162680000Y-63960000D03*
X165220000Y-66500000D03*
X165220000Y-63960000D03*
X167760000Y-66500000D03*
X167760000Y-63960000D03*
G36*
G01*
X99002000Y-84213000D02*
X99002000Y-85913000D01*
G75*
G02*
X98951000Y-85964000I-51000J0D01*
G01*
X97251000Y-85964000D01*
G75*
G02*
X97200000Y-85913000I0J51000D01*
G01*
X97200000Y-84213000D01*
G75*
G02*
X97251000Y-84162000I51000J0D01*
G01*
X98951000Y-84162000D01*
G75*
G02*
X99002000Y-84213000I0J-51000D01*
G01*
G37*
X95561000Y-85063000D03*
X98101000Y-82523000D03*
X95561000Y-82523000D03*
X98101000Y-79983000D03*
X95561000Y-79983000D03*
X98101000Y-77443000D03*
X95561000Y-77443000D03*
X98101000Y-74903000D03*
X95561000Y-74903000D03*
X98101000Y-72363000D03*
X95561000Y-72363000D03*
X98101000Y-69823000D03*
X95561000Y-69823000D03*
D13*
X97700000Y-113000000D03*
D14*
X106200000Y-107600000D03*
X104500000Y-110100000D03*
D13*
X109000000Y-117300000D03*
D14*
X101200000Y-117500000D03*
G36*
G01*
X181349000Y-78850000D02*
X181349000Y-77150000D01*
G75*
G02*
X181400000Y-77099000I51000J0D01*
G01*
X183100000Y-77099000D01*
G75*
G02*
X183151000Y-77150000I0J-51000D01*
G01*
X183151000Y-78850000D01*
G75*
G02*
X183100000Y-78901000I-51000J0D01*
G01*
X181400000Y-78901000D01*
G75*
G02*
X181349000Y-78850000I0J51000D01*
G01*
G37*
D12*
X182250000Y-80540000D03*
X182250000Y-83080000D03*
X182250000Y-85620000D03*
X182250000Y-88160000D03*
X182250000Y-90700000D03*
G36*
G01*
X185582000Y-66106000D02*
X185582000Y-64406000D01*
G75*
G02*
X185633000Y-64355000I51000J0D01*
G01*
X187333000Y-64355000D01*
G75*
G02*
X187384000Y-64406000I0J-51000D01*
G01*
X187384000Y-66106000D01*
G75*
G02*
X187333000Y-66157000I-51000J0D01*
G01*
X185633000Y-66157000D01*
G75*
G02*
X185582000Y-66106000I0J51000D01*
G01*
G37*
X189023000Y-65256000D03*
X186483000Y-67796000D03*
X189023000Y-67796000D03*
X186483000Y-70336000D03*
X189023000Y-70336000D03*
X186483000Y-72876000D03*
X189023000Y-72876000D03*
G36*
G01*
X178982000Y-66106000D02*
X178982000Y-64406000D01*
G75*
G02*
X179033000Y-64355000I51000J0D01*
G01*
X180733000Y-64355000D01*
G75*
G02*
X180784000Y-64406000I0J-51000D01*
G01*
X180784000Y-66106000D01*
G75*
G02*
X180733000Y-66157000I-51000J0D01*
G01*
X179033000Y-66157000D01*
G75*
G02*
X178982000Y-66106000I0J51000D01*
G01*
G37*
X182423000Y-65256000D03*
X179883000Y-67796000D03*
X182423000Y-67796000D03*
X179883000Y-70336000D03*
X182423000Y-70336000D03*
X179883000Y-72876000D03*
X182423000Y-72876000D03*
G36*
G01*
X175575000Y-86924000D02*
X175575000Y-85224000D01*
G75*
G02*
X175626000Y-85173000I51000J0D01*
G01*
X177326000Y-85173000D01*
G75*
G02*
X177377000Y-85224000I0J-51000D01*
G01*
X177377000Y-86924000D01*
G75*
G02*
X177326000Y-86975000I-51000J0D01*
G01*
X175626000Y-86975000D01*
G75*
G02*
X175575000Y-86924000I0J51000D01*
G01*
G37*
X176476000Y-88614000D03*
X176476000Y-91154000D03*
D15*
X97500000Y-58500000D03*
X186500000Y-58500000D03*
X97500000Y-124500000D03*
X186500000Y-124500000D03*
D10*
X134750000Y-123250000D03*
D16*
X144910000Y-123250000D03*
D10*
X134750000Y-126500000D03*
D16*
X144910000Y-126500000D03*
D10*
X98858000Y-99536000D03*
D16*
X109018000Y-99536000D03*
D10*
X98858000Y-102786000D03*
D16*
X109018000Y-102786000D03*
D10*
X98858000Y-96286000D03*
D16*
X109018000Y-96286000D03*
G36*
G01*
X172900000Y-123349000D02*
X174600000Y-123349000D01*
G75*
G02*
X174651000Y-123400000I0J-51000D01*
G01*
X174651000Y-125100000D01*
G75*
G02*
X174600000Y-125151000I-51000J0D01*
G01*
X172900000Y-125151000D01*
G75*
G02*
X172849000Y-125100000I0J51000D01*
G01*
X172849000Y-123400000D01*
G75*
G02*
X172900000Y-123349000I51000J0D01*
G01*
G37*
D12*
X171210000Y-124250000D03*
X168670000Y-124250000D03*
D17*
X185970000Y-109175000D03*
X185970000Y-104325000D03*
D18*
X189000000Y-109475000D03*
X189000000Y-104025000D03*
D12*
X189130000Y-97860000D03*
X186590000Y-97860000D03*
G36*
G01*
X183200000Y-96959000D02*
X184900000Y-96959000D01*
G75*
G02*
X184951000Y-97010000I0J-51000D01*
G01*
X184951000Y-98710000D01*
G75*
G02*
X184900000Y-98761000I-51000J0D01*
G01*
X183200000Y-98761000D01*
G75*
G02*
X183149000Y-98710000I0J51000D01*
G01*
X183149000Y-97010000D01*
G75*
G02*
X183200000Y-96959000I51000J0D01*
G01*
G37*
X181510000Y-97860000D03*
X178970000Y-97860000D03*
X176430000Y-97860000D03*
X173890000Y-97860000D03*
G36*
G01*
X170500000Y-96959000D02*
X172200000Y-96959000D01*
G75*
G02*
X172251000Y-97010000I0J-51000D01*
G01*
X172251000Y-98710000D01*
G75*
G02*
X172200000Y-98761000I-51000J0D01*
G01*
X170500000Y-98761000D01*
G75*
G02*
X170449000Y-98710000I0J51000D01*
G01*
X170449000Y-97010000D01*
G75*
G02*
X170500000Y-96959000I51000J0D01*
G01*
G37*
X168810000Y-97860000D03*
X166270000Y-97860000D03*
X163730000Y-97860000D03*
X161190000Y-97860000D03*
G36*
G01*
X157800000Y-96959000D02*
X159500000Y-96959000D01*
G75*
G02*
X159551000Y-97010000I0J-51000D01*
G01*
X159551000Y-98710000D01*
G75*
G02*
X159500000Y-98761000I-51000J0D01*
G01*
X157800000Y-98761000D01*
G75*
G02*
X157749000Y-98710000I0J51000D01*
G01*
X157749000Y-97010000D01*
G75*
G02*
X157800000Y-96959000I51000J0D01*
G01*
G37*
X156110000Y-97860000D03*
X153570000Y-97860000D03*
X151030000Y-97860000D03*
X148490000Y-97860000D03*
G36*
G01*
X145100000Y-96959000D02*
X146800000Y-96959000D01*
G75*
G02*
X146851000Y-97010000I0J-51000D01*
G01*
X146851000Y-98710000D01*
G75*
G02*
X146800000Y-98761000I-51000J0D01*
G01*
X145100000Y-98761000D01*
G75*
G02*
X145049000Y-98710000I0J51000D01*
G01*
X145049000Y-97010000D01*
G75*
G02*
X145100000Y-96959000I51000J0D01*
G01*
G37*
X143410000Y-97860000D03*
X140870000Y-97860000D03*
X140870000Y-115640000D03*
X143410000Y-115640000D03*
G36*
G01*
X145100000Y-114739000D02*
X146800000Y-114739000D01*
G75*
G02*
X146851000Y-114790000I0J-51000D01*
G01*
X146851000Y-116490000D01*
G75*
G02*
X146800000Y-116541000I-51000J0D01*
G01*
X145100000Y-116541000D01*
G75*
G02*
X145049000Y-116490000I0J51000D01*
G01*
X145049000Y-114790000D01*
G75*
G02*
X145100000Y-114739000I51000J0D01*
G01*
G37*
X148490000Y-115640000D03*
X151030000Y-115640000D03*
X153570000Y-115640000D03*
X156110000Y-115640000D03*
G36*
G01*
X157800000Y-114739000D02*
X159500000Y-114739000D01*
G75*
G02*
X159551000Y-114790000I0J-51000D01*
G01*
X159551000Y-116490000D01*
G75*
G02*
X159500000Y-116541000I-51000J0D01*
G01*
X157800000Y-116541000D01*
G75*
G02*
X157749000Y-116490000I0J51000D01*
G01*
X157749000Y-114790000D01*
G75*
G02*
X157800000Y-114739000I51000J0D01*
G01*
G37*
X161190000Y-115640000D03*
X163730000Y-115640000D03*
X166270000Y-115640000D03*
X168810000Y-115640000D03*
G36*
G01*
X170500000Y-114739000D02*
X172200000Y-114739000D01*
G75*
G02*
X172251000Y-114790000I0J-51000D01*
G01*
X172251000Y-116490000D01*
G75*
G02*
X172200000Y-116541000I-51000J0D01*
G01*
X170500000Y-116541000D01*
G75*
G02*
X170449000Y-116490000I0J51000D01*
G01*
X170449000Y-114790000D01*
G75*
G02*
X170500000Y-114739000I51000J0D01*
G01*
G37*
X173890000Y-115640000D03*
X176430000Y-115640000D03*
X178970000Y-115640000D03*
X181510000Y-115640000D03*
G36*
G01*
X183200000Y-114739000D02*
X184900000Y-114739000D01*
G75*
G02*
X184951000Y-114790000I0J-51000D01*
G01*
X184951000Y-116490000D01*
G75*
G02*
X184900000Y-116541000I-51000J0D01*
G01*
X183200000Y-116541000D01*
G75*
G02*
X183149000Y-116490000I0J51000D01*
G01*
X183149000Y-114790000D01*
G75*
G02*
X183200000Y-114739000I51000J0D01*
G01*
G37*
X186590000Y-115640000D03*
X189130000Y-115640000D03*
X141100000Y-104210000D03*
G36*
G01*
X140250000Y-105849000D02*
X141950000Y-105849000D01*
G75*
G02*
X142001000Y-105900000I0J-51000D01*
G01*
X142001000Y-107600000D01*
G75*
G02*
X141950000Y-107651000I-51000J0D01*
G01*
X140250000Y-107651000D01*
G75*
G02*
X140199000Y-107600000I0J51000D01*
G01*
X140199000Y-105900000D01*
G75*
G02*
X140250000Y-105849000I51000J0D01*
G01*
G37*
X141100000Y-109290000D03*
G36*
G01*
X112485000Y-73158000D02*
X112485000Y-71558000D01*
G75*
G02*
X112536000Y-71507000I51000J0D01*
G01*
X114136000Y-71507000D01*
G75*
G02*
X114187000Y-71558000I0J-51000D01*
G01*
X114187000Y-73158000D01*
G75*
G02*
X114136000Y-73209000I-51000J0D01*
G01*
X112536000Y-73209000D01*
G75*
G02*
X112485000Y-73158000I0J51000D01*
G01*
G37*
D16*
X113336000Y-74898000D03*
X113336000Y-77438000D03*
X113336000Y-79978000D03*
X113336000Y-82518000D03*
X113336000Y-85058000D03*
X113336000Y-87598000D03*
X113336000Y-90138000D03*
X113336000Y-92678000D03*
X113336000Y-95218000D03*
X113336000Y-97758000D03*
X113336000Y-100298000D03*
X113336000Y-102838000D03*
X113336000Y-105378000D03*
X113336000Y-107918000D03*
X113336000Y-110458000D03*
X113336000Y-112998000D03*
X113336000Y-115538000D03*
X113336000Y-118078000D03*
X113336000Y-120618000D03*
X128576000Y-120618000D03*
X128576000Y-118078000D03*
X128576000Y-115538000D03*
X128576000Y-112998000D03*
X128576000Y-110458000D03*
X128576000Y-107918000D03*
X128576000Y-105378000D03*
X128576000Y-102838000D03*
X128576000Y-100298000D03*
X128576000Y-97758000D03*
X128576000Y-95218000D03*
X128576000Y-92678000D03*
X128576000Y-90138000D03*
X128576000Y-87598000D03*
X128576000Y-85058000D03*
X128576000Y-82518000D03*
X128576000Y-79978000D03*
X128576000Y-77438000D03*
X128576000Y-74898000D03*
X128576000Y-72358000D03*
G36*
G01*
X143473000Y-73148000D02*
X143473000Y-71548000D01*
G75*
G02*
X143524000Y-71497000I51000J0D01*
G01*
X145124000Y-71497000D01*
G75*
G02*
X145175000Y-71548000I0J-51000D01*
G01*
X145175000Y-73148000D01*
G75*
G02*
X145124000Y-73199000I-51000J0D01*
G01*
X143524000Y-73199000D01*
G75*
G02*
X143473000Y-73148000I0J51000D01*
G01*
G37*
X144324000Y-74888000D03*
X144324000Y-77428000D03*
X144324000Y-79968000D03*
X144324000Y-82508000D03*
X144324000Y-85048000D03*
X144324000Y-87588000D03*
X144324000Y-90128000D03*
X151944000Y-90128000D03*
X151944000Y-87588000D03*
X151944000Y-85048000D03*
X151944000Y-82508000D03*
X151944000Y-79968000D03*
X151944000Y-77428000D03*
X151944000Y-74888000D03*
X151944000Y-72348000D03*
G36*
G01*
X131809000Y-73148000D02*
X131809000Y-71548000D01*
G75*
G02*
X131860000Y-71497000I51000J0D01*
G01*
X133460000Y-71497000D01*
G75*
G02*
X133511000Y-71548000I0J-51000D01*
G01*
X133511000Y-73148000D01*
G75*
G02*
X133460000Y-73199000I-51000J0D01*
G01*
X131860000Y-73199000D01*
G75*
G02*
X131809000Y-73148000I0J51000D01*
G01*
G37*
X132660000Y-74888000D03*
X132660000Y-77428000D03*
X132660000Y-79968000D03*
X132660000Y-82508000D03*
X132660000Y-85048000D03*
X132660000Y-87588000D03*
X140280000Y-87588000D03*
X140280000Y-85048000D03*
X140280000Y-82508000D03*
X140280000Y-79968000D03*
X140280000Y-77428000D03*
X140280000Y-74888000D03*
X140280000Y-72348000D03*
D10*
X160800000Y-103600000D03*
D16*
X150640000Y-103600000D03*
D10*
X175000000Y-103600000D03*
D16*
X164840000Y-103600000D03*
D10*
X160800000Y-109800000D03*
D16*
X150640000Y-109800000D03*
D10*
X175000000Y-109800000D03*
D16*
X164840000Y-109800000D03*
G36*
G01*
X135980000Y-118421000D02*
X134380000Y-118421000D01*
G75*
G02*
X134329000Y-118370000I0J51000D01*
G01*
X134329000Y-116770000D01*
G75*
G02*
X134380000Y-116719000I51000J0D01*
G01*
X135980000Y-116719000D01*
G75*
G02*
X136031000Y-116770000I0J-51000D01*
G01*
X136031000Y-118370000D01*
G75*
G02*
X135980000Y-118421000I-51000J0D01*
G01*
G37*
X135180000Y-115030000D03*
X135180000Y-112490000D03*
X135180000Y-109950000D03*
X135180000Y-107410000D03*
X135180000Y-104870000D03*
X135180000Y-102330000D03*
X135180000Y-99790000D03*
X135180000Y-97250000D03*
M02*
