M48
; DRILL file {KiCad (6.0.4-0)} date 
; FORMAT={-:-/ absolute / metric / decimal}
; #@! TF.CreationDate,2022-06-01T20:22:55+09:00
; #@! TF.GenerationSoftware,Kicad,Pcbnew,(6.0.4-0)
; #@! TF.FileFunction,MixedPlating,1,2
FMAT,2
METRIC
; #@! TA.AperFunction,Plated,PTH,ViaDrill
T1C0.400
; #@! TA.AperFunction,Plated,PTH,ComponentDrill
T2C0.800
; #@! TA.AperFunction,Plated,PTH,ComponentDrill
T3C0.900
; #@! TA.AperFunction,Plated,PTH,ComponentDrill
T4C1.000
; #@! TA.AperFunction,Plated,PTH,ComponentDrill
T5C1.020
; #@! TA.AperFunction,Plated,PTH,ComponentDrill
T6C1.200
; #@! TA.AperFunction,NonPlated,NPTH,ComponentDrill
T7C1.500
; #@! TA.AperFunction,NonPlated,NPTH,ComponentDrill
T8C1.800
; #@! TA.AperFunction,NonPlated,NPTH,ComponentDrill
T9C3.200
%
G90
G05
T1
X107.009Y-84.696
X130.014Y-77.41
X130.28Y-69.452
X130.913Y-101.868
X132.387Y-70.223
X136.21Y-71.198
X136.936Y-82.739
X137.682Y-78.005
X146.583Y-73.825
X147.152Y-108.658
X148.176Y-108.749
X157.177Y-75.513
X158.814Y-73.148
X162.816Y-81.147
X165.214Y-72.423
X177.75Y-67.324
T2
X98.858Y-93.036
X98.858Y-96.286
X98.858Y-99.536
X98.858Y-102.786
X101.358Y-93.036
X105.5Y-64.0
X105.5Y-66.5
X106.608Y-93.036
X109.018Y-96.286
X109.018Y-99.536
X109.018Y-102.786
X109.108Y-93.036
X113.336Y-72.358
X113.336Y-74.898
X113.336Y-77.438
X113.336Y-79.978
X113.336Y-82.518
X113.336Y-85.058
X113.336Y-87.598
X113.336Y-90.138
X113.336Y-92.678
X113.336Y-95.218
X113.336Y-97.758
X113.336Y-100.298
X113.336Y-102.838
X113.336Y-105.378
X113.336Y-107.918
X113.336Y-110.458
X113.336Y-112.998
X113.336Y-115.538
X113.336Y-118.078
X113.336Y-120.618
X128.576Y-72.358
X128.576Y-74.898
X128.576Y-77.438
X128.576Y-79.978
X128.576Y-82.518
X128.576Y-85.058
X128.576Y-87.598
X128.576Y-90.138
X128.576Y-92.678
X128.576Y-95.218
X128.576Y-97.758
X128.576Y-100.298
X128.576Y-102.838
X128.576Y-105.378
X128.576Y-107.918
X128.576Y-110.458
X128.576Y-112.998
X128.576Y-115.538
X128.576Y-118.078
X128.576Y-120.618
X131.624Y-107.684
X131.624Y-110.184
X132.66Y-72.348
X132.66Y-74.888
X132.66Y-77.428
X132.66Y-79.968
X132.66Y-82.508
X132.66Y-85.048
X132.66Y-87.588
X134.75Y-123.25
X134.75Y-126.5
X135.18Y-97.25
X135.18Y-99.79
X135.18Y-102.33
X135.18Y-104.87
X135.18Y-107.41
X135.18Y-109.95
X135.18Y-112.49
X135.18Y-115.03
X135.18Y-117.57
X138.278Y-69.564
X140.28Y-72.348
X140.28Y-74.888
X140.28Y-77.428
X140.28Y-79.968
X140.28Y-82.508
X140.28Y-85.048
X140.28Y-87.588
X140.778Y-69.564
X144.324Y-72.348
X144.324Y-74.888
X144.324Y-77.428
X144.324Y-79.968
X144.324Y-82.508
X144.324Y-85.048
X144.324Y-87.588
X144.324Y-90.128
X144.91Y-123.25
X144.91Y-126.5
X149.952Y-69.564
X150.64Y-103.6
X150.64Y-109.8
X151.944Y-72.348
X151.944Y-74.888
X151.944Y-77.428
X151.944Y-79.968
X151.944Y-82.508
X151.944Y-85.048
X151.944Y-87.588
X151.944Y-90.128
X152.452Y-69.564
X160.8Y-103.6
X160.8Y-109.8
X164.84Y-103.6
X164.84Y-109.8
X175.0Y-103.6
X175.0Y-109.8
T3
X148.25Y-124.75
X150.79Y-124.75
X157.0Y-124.75
X159.54Y-124.75
T4
X95.561Y-69.823
X95.561Y-72.363
X95.561Y-74.903
X95.561Y-77.443
X95.561Y-79.983
X95.561Y-82.523
X95.561Y-85.063
X98.101Y-69.823
X98.101Y-72.363
X98.101Y-74.903
X98.101Y-77.443
X98.101Y-79.983
X98.101Y-82.523
X98.101Y-85.063
X119.5Y-63.96
X119.5Y-66.5
X122.04Y-63.96
X122.04Y-66.5
X124.58Y-63.96
X124.58Y-66.5
X127.12Y-63.96
X127.12Y-66.5
X129.66Y-63.96
X129.66Y-66.5
X132.2Y-63.96
X132.2Y-66.5
X134.74Y-63.96
X134.74Y-66.5
X137.28Y-63.96
X137.28Y-66.5
X139.82Y-63.96
X139.82Y-66.5
X142.36Y-63.96
X142.36Y-66.5
X144.9Y-63.96
X144.9Y-66.5
X147.44Y-63.96
X147.44Y-66.5
X149.98Y-63.96
X149.98Y-66.5
X152.52Y-63.96
X152.52Y-66.5
X155.06Y-63.96
X155.06Y-66.5
X157.6Y-63.96
X157.6Y-66.5
X160.14Y-63.96
X160.14Y-66.5
X162.68Y-63.96
X162.68Y-66.5
X165.22Y-63.96
X165.22Y-66.5
X167.76Y-63.96
X167.76Y-66.5
X168.67Y-124.25
X171.21Y-124.25
X173.75Y-124.25
X176.476Y-86.074
X176.476Y-88.614
X176.476Y-91.154
X179.883Y-65.256
X179.883Y-67.796
X179.883Y-70.336
X179.883Y-72.876
X182.25Y-78.0
X182.25Y-80.54
X182.25Y-83.08
X182.25Y-85.62
X182.25Y-88.16
X182.25Y-90.7
X182.423Y-65.256
X182.423Y-67.796
X182.423Y-70.336
X182.423Y-72.876
X186.483Y-65.256
X186.483Y-67.796
X186.483Y-70.336
X186.483Y-72.876
X189.023Y-65.256
X189.023Y-67.796
X189.023Y-70.336
X189.023Y-72.876
T5
X140.87Y-97.86
X140.87Y-115.64
X141.1Y-104.21
X141.1Y-106.75
X141.1Y-109.29
X143.41Y-97.86
X143.41Y-115.64
X145.95Y-97.86
X145.95Y-115.64
X148.49Y-97.86
X148.49Y-115.64
X151.03Y-97.86
X151.03Y-115.64
X153.57Y-97.86
X153.57Y-115.64
X156.11Y-97.86
X156.11Y-115.64
X158.65Y-97.86
X158.65Y-115.64
X161.19Y-97.86
X161.19Y-115.64
X163.73Y-97.86
X163.73Y-115.64
X166.27Y-97.86
X166.27Y-115.64
X168.81Y-97.86
X168.81Y-115.64
X171.35Y-97.86
X171.35Y-115.64
X173.89Y-97.86
X173.89Y-115.64
X176.43Y-97.86
X176.43Y-115.64
X178.97Y-97.86
X178.97Y-115.64
X181.51Y-97.86
X181.51Y-115.64
X184.05Y-97.86
X184.05Y-115.64
X186.59Y-97.86
X186.59Y-115.64
X189.13Y-97.86
X189.13Y-115.64
T7
X185.97Y-104.325
X185.97Y-109.175
T8
X189.0Y-104.025
X189.0Y-109.475
T9
X97.5Y-58.5
X97.5Y-124.5
X186.5Y-58.5
X186.5Y-124.5
T6
G00X97.7Y-113.4
M15
G01X97.7Y-112.6
M16
G05
G00X100.8Y-117.5
M15
G01X101.6Y-117.5
M16
G05
G00X104.1Y-110.1
M15
G01X104.9Y-110.1
M16
G05
G00X105.8Y-107.6
M15
G01X106.6Y-107.6
M16
G05
G00X109.0Y-117.7
M15
G01X109.0Y-116.9
M16
G05
T0
M30
