M48
; DRILL file {KiCad (5.1.4-0-10_14)} date 2021 August 08, Sunday 15:14:19
; FORMAT={-:-/ absolute / metric / decimal}
; #@! TF.CreationDate,2021-08-08T15:14:19+09:00
; #@! TF.GenerationSoftware,Kicad,Pcbnew,(5.1.4-0-10_14)
FMAT,2
METRIC
T1C0.400
T2C0.800
T3C0.900
T4C1.000
T5C1.020
T6C1.200
T7C1.500
T8C1.800
T9C3.200
%
G90
G05
T1
X110.5Y-69.0
X114.0Y-78.5
X126.5Y-79.5
X146.5Y-84.0
T2
X153.4Y-70.75
X153.4Y-73.25
X156.4Y-71.18
X156.4Y-78.8
X158.94Y-71.18
X158.94Y-78.8
X161.48Y-71.18
X161.48Y-78.8
X164.02Y-71.18
X164.02Y-78.8
X166.56Y-71.18
X166.56Y-78.8
X169.1Y-71.18
X169.1Y-78.8
X171.64Y-71.18
X113.25Y-111.0
X123.41Y-111.0
X164.84Y-103.6
X175.0Y-103.6
X102.25Y-73.26
X102.25Y-88.5
X104.79Y-73.26
X104.79Y-88.5
X107.33Y-73.26
X107.33Y-88.5
X171.64Y-78.8
X109.87Y-73.26
X109.87Y-88.5
X112.41Y-73.26
X112.41Y-88.5
X114.95Y-73.26
X114.95Y-88.5
X117.49Y-73.26
X117.49Y-88.5
X120.03Y-73.26
X120.03Y-88.5
X122.57Y-73.26
X122.57Y-88.5
X125.11Y-73.26
X125.11Y-88.5
X127.65Y-73.26
X127.65Y-88.5
X130.19Y-73.26
X130.19Y-88.5
X132.73Y-73.26
X132.73Y-88.5
X135.27Y-73.26
X135.27Y-88.5
X137.81Y-73.26
X137.81Y-88.5
X140.35Y-88.5
X142.89Y-88.5
X145.43Y-88.5
X147.97Y-73.26
X147.97Y-88.5
X150.51Y-73.26
X150.51Y-88.5
X174.18Y-71.18
X113.25Y-114.25
X123.41Y-114.25
X113.25Y-107.75
X174.18Y-78.8
X137.75Y-70.25
X150.64Y-103.6
X160.8Y-103.6
X140.35Y-73.26
X142.89Y-73.26
X135.25Y-70.25
X145.43Y-73.26
X115.75Y-107.75
X121.0Y-107.75
X123.5Y-107.75
X105.5Y-64.0
X105.5Y-66.5
X164.84Y-109.8
X175.0Y-109.8
X113.25Y-117.5
X123.41Y-117.5
X134.75Y-123.25
X144.91Y-123.25
X156.4Y-82.13
X156.4Y-89.75
X158.94Y-82.13
X158.94Y-89.75
X161.48Y-82.13
X161.48Y-89.75
X164.02Y-82.13
X164.02Y-89.75
X166.56Y-82.13
X166.56Y-89.75
X169.1Y-82.13
X169.1Y-89.75
X171.64Y-82.13
X150.64Y-109.8
X160.8Y-109.8
X171.64Y-89.75
X134.75Y-126.5
X144.91Y-126.5
X153.4Y-81.75
X153.4Y-84.25
T3
X157.0Y-124.75
X159.54Y-124.75
X162.08Y-124.75
X148.25Y-124.75
X150.79Y-124.75
X153.33Y-124.75
T4
X179.6Y-64.8
X179.6Y-67.34
X179.6Y-69.88
X179.6Y-72.42
X182.14Y-64.8
X182.14Y-67.34
X182.14Y-69.88
X182.14Y-72.42
X182.25Y-78.0
X182.25Y-80.54
X182.25Y-83.08
X182.25Y-85.62
X182.25Y-88.16
X182.25Y-90.7
X168.67Y-124.25
X171.21Y-124.25
X173.75Y-124.25
X119.5Y-63.96
X119.5Y-66.5
X122.04Y-63.96
X122.04Y-66.5
X124.58Y-63.96
X124.58Y-66.5
X127.12Y-63.96
X127.12Y-66.5
X129.66Y-63.96
X129.66Y-66.5
X132.2Y-63.96
X132.2Y-66.5
X134.74Y-63.96
X134.74Y-66.5
X137.28Y-63.96
X137.28Y-66.5
X139.82Y-63.96
X139.82Y-66.5
X142.36Y-63.96
X142.36Y-66.5
X144.9Y-63.96
X144.9Y-66.5
X147.44Y-63.96
X147.44Y-66.5
X149.98Y-63.96
X149.98Y-66.5
X152.52Y-63.96
X152.52Y-66.5
X155.06Y-63.96
X155.06Y-66.5
X157.6Y-63.96
X157.6Y-66.5
X160.14Y-63.96
X160.14Y-66.5
X162.68Y-63.96
X162.68Y-66.5
X165.22Y-63.96
X165.22Y-66.5
X167.76Y-63.96
X167.76Y-66.5
X186.2Y-64.8
X186.2Y-67.34
X186.2Y-69.88
X186.2Y-72.42
X188.74Y-64.8
X94.71Y-69.76
X94.71Y-72.3
X94.71Y-74.84
X94.71Y-77.38
X94.71Y-79.92
X94.71Y-82.46
X94.71Y-85.0
X97.25Y-72.3
X97.25Y-74.84
X97.25Y-77.38
X97.25Y-79.92
X188.74Y-69.88
X97.25Y-69.76
X97.25Y-82.46
X97.25Y-85.0
X188.74Y-67.34
X188.74Y-72.42
X175.6Y-84.42
X175.6Y-86.96
X175.6Y-89.5
T5
X140.87Y-97.86
X140.87Y-115.64
X141.1Y-104.21
X141.1Y-106.75
X141.1Y-109.29
X143.41Y-97.86
X143.41Y-115.64
X145.95Y-97.86
X145.95Y-115.64
X148.49Y-97.86
X148.49Y-115.64
X151.03Y-97.86
X151.03Y-115.64
X153.57Y-97.86
X153.57Y-115.64
X156.11Y-97.86
X156.11Y-115.64
X158.65Y-97.86
X158.65Y-115.64
X161.19Y-97.86
X161.19Y-115.64
X163.73Y-97.86
X163.73Y-115.64
X166.27Y-97.86
X166.27Y-115.64
X168.81Y-97.86
X168.81Y-115.64
X171.35Y-97.86
X171.35Y-115.64
X173.89Y-97.86
X173.89Y-115.64
X176.43Y-97.86
X176.43Y-115.64
X178.97Y-97.86
X178.97Y-115.64
X181.51Y-97.86
X181.51Y-115.64
X184.05Y-97.86
X184.05Y-115.64
X186.59Y-97.86
X186.59Y-115.64
X189.13Y-97.86
X189.13Y-115.64
T7
X185.97Y-104.325
X185.97Y-109.175
T8
X189.0Y-104.025
X189.0Y-109.475
T9
X97.5Y-124.5
X97.5Y-58.5
X186.5Y-124.5
X186.5Y-58.5
T6
G00X97.7Y-113.4
M15
G01X97.7Y-112.6
M16
G05
G00X100.8Y-117.5
M15
G01X101.6Y-117.5
M16
G05
G00X104.1Y-110.1
M15
G01X104.9Y-110.1
M16
G05
G00X105.8Y-107.6
M15
G01X106.6Y-107.6
M16
G05
G00X109.0Y-117.7
M15
G01X109.0Y-116.9
M16
G05
T0
M30
