G04 #@! TF.GenerationSoftware,KiCad,Pcbnew,(5.1.4)-1*
G04 #@! TF.CreationDate,2021-08-08T15:03:38+09:00*
G04 #@! TF.ProjectId,KZ80-USBKBD,4b5a3830-2d55-4534-924b-42442e6b6963,rev?*
G04 #@! TF.SameCoordinates,Original*
G04 #@! TF.FileFunction,Legend,Bot*
G04 #@! TF.FilePolarity,Positive*
%FSLAX46Y46*%
G04 Gerber Fmt 4.6, Leading zero omitted, Abs format (unit mm)*
G04 Created by KiCad (PCBNEW (5.1.4)-1) date 2021-08-08 15:03:38*
%MOMM*%
%LPD*%
G04 APERTURE LIST*
%ADD10O,1.702000X1.702000*%
%ADD11C,1.702000*%
%ADD12R,1.702000X1.702000*%
%ADD13O,1.802000X1.802000*%
%ADD14R,1.802000X1.802000*%
%ADD15O,1.602000X1.602000*%
%ADD16O,1.902000X1.902000*%
%ADD17C,3.302000*%
%ADD18O,3.102000X2.102000*%
%ADD19O,2.102000X3.102000*%
%ADD20C,1.902000*%
%ADD21R,1.902000X1.902000*%
G04 APERTURE END LIST*
%LPC*%
D10*
X164840000Y-109800000D03*
D11*
X175000000Y-109800000D03*
D10*
X150640000Y-109800000D03*
D11*
X160800000Y-109800000D03*
D10*
X164840000Y-103600000D03*
D11*
X175000000Y-103600000D03*
D10*
X150640000Y-103600000D03*
D11*
X160800000Y-103600000D03*
D10*
X156400000Y-82130000D03*
X171640000Y-89750000D03*
X158940000Y-82130000D03*
X169100000Y-89750000D03*
X161480000Y-82130000D03*
X166560000Y-89750000D03*
X164020000Y-82130000D03*
X164020000Y-89750000D03*
X166560000Y-82130000D03*
X161480000Y-89750000D03*
X169100000Y-82130000D03*
X158940000Y-89750000D03*
X171640000Y-82130000D03*
D12*
X156400000Y-89750000D03*
D10*
X156400000Y-71180000D03*
X174180000Y-78800000D03*
X158940000Y-71180000D03*
X171640000Y-78800000D03*
X161480000Y-71180000D03*
X169100000Y-78800000D03*
X164020000Y-71180000D03*
X166560000Y-78800000D03*
X166560000Y-71180000D03*
X164020000Y-78800000D03*
X169100000Y-71180000D03*
X161480000Y-78800000D03*
X171640000Y-71180000D03*
X158940000Y-78800000D03*
X174180000Y-71180000D03*
D12*
X156400000Y-78800000D03*
D10*
X102250000Y-73260000D03*
X150510000Y-88500000D03*
X104790000Y-73260000D03*
X147970000Y-88500000D03*
X107330000Y-73260000D03*
X145430000Y-88500000D03*
X109870000Y-73260000D03*
X142890000Y-88500000D03*
X112410000Y-73260000D03*
X140350000Y-88500000D03*
X114950000Y-73260000D03*
X137810000Y-88500000D03*
X117490000Y-73260000D03*
X135270000Y-88500000D03*
X120030000Y-73260000D03*
X132730000Y-88500000D03*
X122570000Y-73260000D03*
X130190000Y-88500000D03*
X125110000Y-73260000D03*
X127650000Y-88500000D03*
X127650000Y-73260000D03*
X125110000Y-88500000D03*
X130190000Y-73260000D03*
X122570000Y-88500000D03*
X132730000Y-73260000D03*
X120030000Y-88500000D03*
X135270000Y-73260000D03*
X117490000Y-88500000D03*
X137810000Y-73260000D03*
X114950000Y-88500000D03*
X140350000Y-73260000D03*
X112410000Y-88500000D03*
X142890000Y-73260000D03*
X109870000Y-88500000D03*
X145430000Y-73260000D03*
X107330000Y-88500000D03*
X147970000Y-73260000D03*
X104790000Y-88500000D03*
X150510000Y-73260000D03*
D12*
X102250000Y-88500000D03*
D13*
X141100000Y-109290000D03*
D14*
X141100000Y-106750000D03*
D13*
X141100000Y-104210000D03*
D15*
X185970000Y-109175000D03*
X185970000Y-104325000D03*
D16*
X189000000Y-109475000D03*
X189000000Y-104025000D03*
D13*
X189130000Y-115640000D03*
X186590000Y-115640000D03*
D14*
X184050000Y-115640000D03*
D13*
X181510000Y-115640000D03*
X178970000Y-115640000D03*
X176430000Y-115640000D03*
X173890000Y-115640000D03*
D14*
X171350000Y-115640000D03*
D13*
X168810000Y-115640000D03*
X166270000Y-115640000D03*
X163730000Y-115640000D03*
X161190000Y-115640000D03*
D14*
X158650000Y-115640000D03*
D13*
X156110000Y-115640000D03*
X153570000Y-115640000D03*
X151030000Y-115640000D03*
X148490000Y-115640000D03*
D14*
X145950000Y-115640000D03*
D13*
X143410000Y-115640000D03*
X140870000Y-115640000D03*
X140870000Y-97860000D03*
X143410000Y-97860000D03*
D14*
X145950000Y-97860000D03*
D13*
X148490000Y-97860000D03*
X151030000Y-97860000D03*
X153570000Y-97860000D03*
X156110000Y-97860000D03*
D14*
X158650000Y-97860000D03*
D13*
X161190000Y-97860000D03*
X163730000Y-97860000D03*
X166270000Y-97860000D03*
X168810000Y-97860000D03*
D14*
X171350000Y-97860000D03*
D13*
X173890000Y-97860000D03*
X176430000Y-97860000D03*
X178970000Y-97860000D03*
X181510000Y-97860000D03*
D14*
X184050000Y-97860000D03*
D13*
X186590000Y-97860000D03*
X189130000Y-97860000D03*
X168670000Y-124250000D03*
X171210000Y-124250000D03*
D14*
X173750000Y-124250000D03*
D10*
X123410000Y-111000000D03*
D11*
X113250000Y-111000000D03*
D10*
X123410000Y-117500000D03*
D11*
X113250000Y-117500000D03*
D10*
X123410000Y-114250000D03*
D11*
X113250000Y-114250000D03*
D10*
X144910000Y-126500000D03*
D11*
X134750000Y-126500000D03*
D10*
X144910000Y-123250000D03*
D11*
X134750000Y-123250000D03*
D17*
X186500000Y-124500000D03*
X97500000Y-124500000D03*
X186500000Y-58500000D03*
X97500000Y-58500000D03*
D13*
X175600000Y-89500000D03*
X175600000Y-86960000D03*
D14*
X175600000Y-84420000D03*
D13*
X182140000Y-72420000D03*
X179600000Y-72420000D03*
X182140000Y-69880000D03*
X179600000Y-69880000D03*
X182140000Y-67340000D03*
X179600000Y-67340000D03*
X182140000Y-64800000D03*
D14*
X179600000Y-64800000D03*
D13*
X188740000Y-72420000D03*
X186200000Y-72420000D03*
X188740000Y-69880000D03*
X186200000Y-69880000D03*
X188740000Y-67340000D03*
X186200000Y-67340000D03*
X188740000Y-64800000D03*
D14*
X186200000Y-64800000D03*
D13*
X182250000Y-90700000D03*
X182250000Y-88160000D03*
X182250000Y-85620000D03*
X182250000Y-83080000D03*
X182250000Y-80540000D03*
D14*
X182250000Y-78000000D03*
D18*
X101200000Y-117500000D03*
D19*
X109000000Y-117300000D03*
D18*
X104500000Y-110100000D03*
X106200000Y-107600000D03*
D19*
X97700000Y-113000000D03*
D13*
X94710000Y-69760000D03*
X97250000Y-69760000D03*
X94710000Y-72300000D03*
X97250000Y-72300000D03*
X94710000Y-74840000D03*
X97250000Y-74840000D03*
X94710000Y-77380000D03*
X97250000Y-77380000D03*
X94710000Y-79920000D03*
X97250000Y-79920000D03*
X94710000Y-82460000D03*
X97250000Y-82460000D03*
X94710000Y-85000000D03*
D14*
X97250000Y-85000000D03*
D13*
X167760000Y-63960000D03*
X167760000Y-66500000D03*
X165220000Y-63960000D03*
X165220000Y-66500000D03*
X162680000Y-63960000D03*
X162680000Y-66500000D03*
X160140000Y-63960000D03*
X160140000Y-66500000D03*
X157600000Y-63960000D03*
X157600000Y-66500000D03*
X155060000Y-63960000D03*
X155060000Y-66500000D03*
X152520000Y-63960000D03*
X152520000Y-66500000D03*
X149980000Y-63960000D03*
X149980000Y-66500000D03*
X147440000Y-63960000D03*
X147440000Y-66500000D03*
X144900000Y-63960000D03*
X144900000Y-66500000D03*
X142360000Y-63960000D03*
X142360000Y-66500000D03*
X139820000Y-63960000D03*
X139820000Y-66500000D03*
X137280000Y-63960000D03*
X137280000Y-66500000D03*
X134740000Y-63960000D03*
X134740000Y-66500000D03*
X132200000Y-63960000D03*
X132200000Y-66500000D03*
X129660000Y-63960000D03*
X129660000Y-66500000D03*
X127120000Y-63960000D03*
X127120000Y-66500000D03*
X124580000Y-63960000D03*
X124580000Y-66500000D03*
X122040000Y-63960000D03*
X122040000Y-66500000D03*
X119500000Y-63960000D03*
D14*
X119500000Y-66500000D03*
D20*
X162080000Y-124750000D03*
X159540000Y-124750000D03*
D21*
X157000000Y-124750000D03*
D20*
X153330000Y-124750000D03*
X150790000Y-124750000D03*
D21*
X148250000Y-124750000D03*
D11*
X153400000Y-84250000D03*
X153400000Y-81750000D03*
X153400000Y-73250000D03*
X153400000Y-70750000D03*
X137750000Y-70250000D03*
X135250000Y-70250000D03*
X115750000Y-107750000D03*
X113250000Y-107750000D03*
X123500000Y-107750000D03*
X121000000Y-107750000D03*
X105500000Y-64000000D03*
D12*
X105500000Y-66500000D03*
M02*
